<svg xmlns="http://www.w3.org/2000/svg" viewBox="0 0 500 500"><defs><clipPath id="a"><path d="M343.69 348.43a2.32 2.32 0 01-.49.83c-3.54 3.35-18.65 7.07-31.63 9.75-10.75 2.23-20 3.74-20 3.74s-7.12-59.17-7.12-65.39-11.48-106.92-11.48-106.92l27.52-1.19 36.51-1.58s.22 2.69.59 7.39c2.41 29.94 10.69 141.56 6.1 153.37z" fill="#fca311" stroke="#263238" stroke-linecap="round" stroke-linejoin="round"/></clipPath><clipPath id="b"><path d="M326.68 175L400 194.34s-25.77 78.21-31 87.91l-8.74 68.18s-46.84-2.06-68.38-8.57c0 0 13.62-71 14.35-80.47S326.68 175 326.68 175z" fill="#fca311" stroke="#263238" stroke-linecap="round" stroke-linejoin="round"/></clipPath><clipPath id="c"><path fill="#757575" stroke="#263238" stroke-linecap="round" stroke-linejoin="round" d="M233.62 166.73l-9.7 164.75-95.29-3.13 7.52-126.24 2.34-39.2 41.52 1.67 53.61 2.15z"/></clipPath></defs><path d="M67.93 167.09s-27.88 72 11.3 144.5 119.88 110.8 184.47 143.55 131.66 16.8 163.53-36.84-11.84-91.93-11.9-168.42 11.45-96.74-30-161.36-143.06-78.93-219.9-31-97.5 109.57-97.5 109.57z" fill="#fff" opacity=".7"/><path d="M77.07 166.45c28.82-53.06 101.32-115 200.78-89.2s166.66 80.38 155.65 175.34S364.63 426.45 240 428.76 13.87 282.8 77.07 166.45z" fill="#fca311"/><path d="M77.07 166.45c28.82-53.06 101.32-115 200.78-89.2s166.66 80.38 155.65 175.34S364.63 426.45 240 428.76 13.87 282.8 77.07 166.45z" fill="#fff" opacity=".7"/><g fill="none" stroke="#263238" stroke-linecap="round" stroke-linejoin="round"><rect x="373.07" y="242.94" width="74.72" height="49.06" rx="4.54" transform="rotate(-8.8 410.438 267.486)"/><path d="M371.44 259.81l73.84-11.43m-17.701 14.808l11.928-1.847 2.658 17.175-11.927 1.847z"/><path d="M432.42 266c2.52-3 6.66-1 5.69 8.31l3.69 1.83.36 2.34-11.92 1.85-.49-3.13 4.5-1.75s-4.2-6.62-1.83-9.45zm-25.87 21s8.62.07 6.15-1.65-2.84-3.46-.74-3.49 5.62 4 5.34 1.54 1.24-.86 1.53-.7 2.78-.84 2.9-.55-.05 1.1 8.06-.15m-52.09-14.52l36.16-5.6m-35.52 9.7l21.3-3.3m-20.18 10.53l29.71-4.6m-20.49-22.44l36.26-5.62M43.35 226.44l81.07-16.19 28.31 135.92-86.17 18.48-23.21-138.21zM63.3 345.26l86-15.57m-10.19-11.56l-41.07 7.58m34.98-14.4l-12 1.77m13.83-15.65l-61.3 11.5"/><path stroke-dasharray="1,2" d="M53.95 289.58l83.91-14.81"/><path d="M143.11 341.77l-50.97 10.68m49.45-14.98l-23.96 4.3m11-75.96l-42.03 8.33m38.71-17.66l-13.39 2.63m12.6-9.11L63.3 261.8m55.66-43.34l-16.53 3.42m-39.13 8.33l-14.26 2.77m5.19 7.86a7.41 7.41 0 014-4.64m2.34 13.8a7.45 7.45 0 01-6.57-7.16m12.13 5.46a6.9 6.9 0 01-3.63 1.7m-1.23-14.48a7.46 7.46 0 016.22 11.18m8.36-9.3c-1.33-.42-2.65-.9-4-1.2m15.34 2.16c-1.13 2.69-7.45.24-9.29-.32m-1.53-6.82L88.19 234c-.19.79-.34 1.59-.49 2.38M70.52 234c1.26-3 .76-4 3.9-3.27"/></g><g fill="none" stroke="#263238" stroke-linecap="round" stroke-linejoin="round"><path d="M214.75 446.27l15.65 4.8-11.63-13.7a40.22 40.22 0 0010.3-25.74m-33.31 40.68a52.6 52.6 0 0014.67-7.37m-75.06-21.73c4.61 22.21 29.15 35.89 54.82 30.57m-51.08-55.61a40.17 40.17 0 00-2.5 5.82m91.71-.06c-4.6-22.21-29.15-35.89-54.81-30.56a51.42 51.42 0 00-29.72 17.69"/><path d="M201.09 395.79c-7.39-8.05-17.46-2.47-21.65 5.7-6.92-6-18.35-7.47-22.21 2.76-6.52 17.23 15.78 27.74 26.1 31.54 1.17.44 2.13.81 2.93 1.08.65-.55 1.41-1.25 2.33-2.09 8.16-7.37 24.96-25.41 12.5-38.99z"/></g><g fill="none" stroke="#263238" stroke-linecap="round" stroke-linejoin="round"><path d="M262.54 68l-15.11-6.29 10.25 14.76a40.19 40.19 0 00-12.68 24.6m37-37.28a53 53 0 00-15.31 5.92m72.64 28.86C336.88 76 313.77 60 287.71 62.87m45.49 60.26a40.46 40.46 0 003-5.55m-91.2-8.77c2.45 22.55 25.56 38.53 51.62 35.7a51.46 51.46 0 0031.28-14.75"/><circle cx="291.93" cy="101.71" r="23.73" transform="rotate(-28.16 291.886 101.708)"/><path d="M282.91 104.69l7.1 6.7L301.85 91"/></g><path d="M321.59 327.71s-3.56 43.08 1.59 53.53 7.73 81.85 5.42 90.83c0 0 16.58 4.18 23.14-1.76s16.65-.22 33.27-6 4.63-134.07 4.63-134.07l.51-46.67-27.41-24.42z" fill-opacity=".7" opacity=".2"/><path d="M343.69 348.43a2.32 2.32 0 01-.49.83c-3.54 3.35-18.65 7.07-31.63 9.75-10.75 2.23-20 3.74-20 3.74s-7.12-59.17-7.12-65.39-11.48-106.92-11.48-106.92l27.52-1.19 36.51-1.58s.22 2.69.59 7.39c2.41 29.94 10.69 141.56 6.1 153.37z" fill="#fca311"/><g clip-path="url(#a)"><path d="M343.69 348.43L311.57 355l-12.13 2.49c-3.29-3.23-5.8-3.29-5.8-3.29l-1-9.05-1.57-14.81-13.82-130.3c3-2.07 4.48-6.6 4.48-6.6l18.5-.67 32.05-1.17 5.29 3.42c2.43 29.98 10.71 141.6 6.12 153.41z" fill-opacity=".7" opacity=".2"/><path d="M343.69 348.43L311.57 355l-12.13 2.49c-3.29-3.23-5.8-3.29-5.8-3.29l-1-9.05-1.57-14.81-13.82-130.3c3-2.07 4.48-6.6 4.48-6.6l18.5-.67 32.05-1.17 5.29 3.42c2.43 29.98 10.71 141.6 6.12 153.41z" fill="none" stroke="#263238" stroke-linecap="round" stroke-linejoin="round"/><path fill="#fca311" stroke="#263238" stroke-linecap="round" stroke-linejoin="round" d="M295.34 310.07l10.72-.02.01 3.35-2.98 1.06-6.87.75-.88-5.14zm.66 6.9l7.88-.27 2.02.96-.1 4.45-9.2.1-.6-5.24zm1.26 7.11l9-.65-.1 3.37-4.35 1.54-4.6-.26.05-4zm.54 5.68l7.27.37.66 1.86-1.06 2.05-6.5.42-1.12-3.17.75-1.53zm8.38 6.51l1 2.91a2.18 2.18 0 010 2 1.65 1.65 0 01-1.52.54c-.56-.05-1.11-.24-1.67-.27-1.69-.07-3.24 1.32-4.9 1-.65-1.8-2.29-4.44-.07-5.25.41-.13 7.4-.27 7.16-.93zm-.03 8.19a16.41 16.41 0 01.34 2.1 2.68 2.68 0 01-.74 2.51 3 3 0 01-1.39.37l-5.78.52a26.52 26.52 0 01-.05-3.28c.34-1.3.1-1.19 1.33-1.72 1.95-.83 4.29.49 6.29-.5z"/><path d="M285.13 203s2.18 21.07 2.28 25.24m2.42-25.01l1.02 11.61" fill="none" stroke="#263238" stroke-linecap="round" stroke-linejoin="round"/><path fill="#fca311" stroke="#263238" stroke-linecap="round" stroke-linejoin="round" d="M306.12 198.84l1.32 13.61 1.85.18-.6-13.66-2.57-.13z"/><path d="M343.69 348.43a2.32 2.32 0 01-.49.83c-3.54 3.35-18.65 7.07-31.63 9.75v-9l-18.89-4.84-2.85-.73 1.28-14.08 4.89-53.8 4.27-83.75.18-3.56 36.55-1.58s.22 2.69.59 7.39c2.41 29.94 10.69 141.56 6.1 153.37z" fill-opacity=".7" opacity=".2"/></g><path d="M343.69 348.43a2.32 2.32 0 01-.49.83c-3.54 3.35-18.65 7.07-31.63 9.75-10.75 2.23-20 3.74-20 3.74s-7.12-59.17-7.12-65.39-11.48-106.92-11.48-106.92l27.52-1.19 36.51-1.58s.22 2.69.59 7.39c2.41 29.94 10.69 141.56 6.1 153.37z" fill="none" stroke="#263238" stroke-linecap="round" stroke-linejoin="round"/><path d="M363.06 482.7c.23-2.11-3.09-32.38-3.15-35.67-.16-9-2.71-20.81-2.71-20.81-3.56-9.1-6.33-30.07-15.83-43.52s-9.49-29.27-11.07-42.7-1.19-12.27-.79-24.19a175.41 175.41 0 00-1.19-26.81c-.79-7.92-2.37-21.85 0-28.34s8.57-8 15.36-1.5 9.56 33.15 9.56 36.44 0 13.57 2.38 17.53c0 0 13.45-6.88 13.45-8.78s-.4-18.69 1.58-19.59l-7.91-25.6 15-5.33a39 39 0 017.24 8.7 46.94 46.94 0 014.23 8.49c6.33 16.79 16.5 28.5 18.6 33.33s0 43.19 0 50.32-4.6 40-4.48 45.53c.09 4 2.79 18.88 5.48 30.29 1 4.4 7.07 36.28 8 38.81z" fill="#fff"/><path d="M374.9 283.07c-.1 2.15 2.47 19.29 2.47 19.29 1.78 4.27-7.94 18.83-7.94 18.83-2.1 1.18-3 8.5-3 8.5-6.58-1.46-21.65-16.61-21.65-16.61s-1.78 6.21-3.78 21.58 10.68 51.88 16.08 77.09 2.83 35.25 2.83 35.25c-.16-9-2.71-20.81-2.71-20.81-3.56-9.1-6.33-30.07-15.83-43.52s-9.49-29.24-11.07-42.67-1.19-12.27-.79-24.19a175.41 175.41 0 00-1.19-26.81c-.79-7.92-2.37-21.85 0-28.34s8.57-8 15.36-1.5 9.56 33.15 9.56 36.44 0 13.57 2.38 17.53c0 0 13.45-6.88 13.45-8.78s-.4-18.69 1.58-19.59l-7.91-25.6 15-5.33a39 39 0 017.24 8.7c-4.85 9.7-9.98 19.2-10.08 20.54zm25.22 119.78c.66-6 2.63-20.26 3.88-29.16-1.53 6.95-4 10.47-4 10.47s4.26-51 4.68-54.11 4.72-17.09 3.14-25.75c2.1 4.82 0 43.19 0 50.32s-4.6 40-4.48 45.53c.09 4 4.38 29.49 7.07 40.9-5.78-8.4-10.95-32.17-10.29-38.2z" fill="#fca311" opacity=".4"/><path d="M416.79 469.25c-3.16-9.1-13.31-63.6-13.43-69.1s4.48-38.41 4.48-45.53 2.1-45.5 0-50.32-12.27-16.54-18.6-33.33a43.66 43.66 0 00-11.47-17.19l-15 5.33 7.91 25.6c-2 .9-1.58 17.69-1.58 19.59s-13.45 8.78-13.45 8.78c-2.38-4-2.38-14.24-2.38-17.53s-2.77-29.95-9.56-36.44-13-5-15.36 1.5-.79 20.42 0 28.34a175.41 175.41 0 011.19 26.84c-.4 11.92-.8 10.74.79 24.19s1.58 29.27 11.07 42.72 12.27 34.42 15.83 43.52c0 0 6.72 48.57 5.86 56.48m-7.47-169.62s2.37 11.07 7.71 16.61m-6.27-11.56s10 3.06 14.18 3.25m-2.17-17.08s7.12-3.29 11.67-1.31m-10.09-18.28s5.54-.51 6.72-3.28M343.2 385.52s10.64 13.21 13.8 19.93m48.07-77.74c-1.78 10.49-4.16 39.17-4.95 44.31m8.35-64.09c.3 9.5-2 14.44-2 14.44" fill="none" stroke="#263238" stroke-linecap="round" stroke-linejoin="round"/><path d="M326.68 175L400 194.34s-25.77 78.21-31 87.91l-8.74 68.18s-46.84-2.06-68.38-8.57c0 0 13.62-71 14.35-80.47S326.68 175 326.68 175z" fill="#fca311"/><g clip-path="url(#b)"><path d="M310.91 257.19l16.16-69.09s6.95-3.45 9.64-6.6l52.53 14.94s.16 5.15 3.17 8.45l-26.51 76.39-6.43 56.31s-8.55.68-9.37 7c0 0-27.72 1.5-46.31-3.4 0 0-2.19-6.83-5.54-11.15z" fill-opacity=".7" opacity=".2"/><path d="M310.91 257.19l16.16-69.09s6.95-3.45 9.64-6.6l52.53 14.94s.16 5.15 3.17 8.45l-26.51 76.39-6.43 56.31s-8.55.68-9.37 7c0 0-27.72 1.5-46.31-3.4 0 0-2.19-6.83-5.54-11.15z" fill="none" stroke="#263238" stroke-linecap="round" stroke-linejoin="round"/><path d="M324.36 260.78s4.77-18 21.57-14.77 7.31 25.41 7.31 25.41.1 17.9-13.53 15.43c-11.82-2.14-18.12-8.63-15.35-26.07z" fill="#fca311" stroke="#263238" stroke-linecap="round" stroke-linejoin="round"/><path d="M333.46 194.67s-5.08 20.57-6.39 24.53m10.74-22.75l-2.96 11.28" fill="none" stroke="#263238" stroke-linecap="round" stroke-linejoin="round"/><path fill="#fca311" stroke="#263238" stroke-linecap="round" stroke-linejoin="round" d="M374.9 204.36l10.11 3.56-1.11 3.17h-3.16l-6.73-1.58.89-5.15zm-1.68 6.73l7.52 2.37 1.58 1.58-1.58 4.16-8.71-2.97 1.19-5.14zm-1.19 7.12l8.71 2.4-1.23 3.14h-4.61l-4.25-1.78 1.38-3.76zm-1.38 5.54l6.72 2.77v1.97l-1.68 1.59-6.26-1.78v-3.37l1.22-1.18zm5.73 8.93v3.08a2.2 2.2 0 01-.61 1.88 1.69 1.69 0 01-1.62 0c-.51-.24-1-.6-1.48-.81-1.57-.63-3.5.16-5-.68 0-1.91-.67-4.94 1.69-5 .39.03 7.02 2.23 7.02 1.53zm-2.77 7.71a14.52 14.52 0 01-.38 2.09c-.22.89-.65 1.88-1.54 2.12a2.92 2.92 0 01-1.43-.12l-5.62-1.48a27.5 27.5 0 011-3.1c.76-1.11.5-1.09 1.83-1.18 2.16-.09 3.92 1.94 6.14 1.67zm-18.98-42.55l-3.37 13.25 1.68.79 4.06-13.06-2.37-.98zm-42.23 88.98l10.38 2.69-.84 3.24-3.15.28-6.84-1.01.45-5.2zm-1.1 6.85l7.69 1.72 1.72 1.44-1.22 4.28-8.93-2.22.74-5.22zm-.57 7.2l8.88 1.64-.96 3.23-4.59.4-4.39-1.41 1.06-3.86zm-.91 5.63l6.94 2.19.17 1.97-1.54 1.72-6.39-1.24-.29-3.35 1.11-1.29zm6.47 8.41l.27 3.07a2.19 2.19 0 01-.45 1.93 1.67 1.67 0 01-1.61.13c-.53-.19-1-.51-1.55-.67-1.61-.5-3.47.45-5-.26-.18-1.9-1.09-4.86 1.25-5.09.36-.02 7.15 1.59 7.09.89zm-2.09 7.92a15.06 15.06 0 01-.2 2.17c-.15.9-.49 1.93-1.35 2.24a2.92 2.92 0 01-1.44 0l-5.72-1a27.16 27.16 0 01.77-3.18c.66-1.17.4-1.13 1.72-1.33 2.1-.31 4.02 1.56 6.22 1.1z"/><path d="M355.62 332.54S358 306 358 303.33m-7.13 28.02s1-13.8 1.18-16.2" fill="none" stroke="#263238" stroke-linecap="round" stroke-linejoin="round"/><path fill="#fca311" stroke="#263238" stroke-linecap="round" stroke-linejoin="round" d="M332.32 321.38l-3.21 15.71h3.21l2.33-15.71h-2.33z"/><path d="M369.17 281.86c-6.94-1.45-13.13-3.58-17.71-6.65 0 0 3.32 9.54 15.09 25.8l-6.33 49.42s-30.57-1.34-53.67-5.29c7.1-20 20-57.9 18.47-65.41-2.07-10.31 5.24-22.48 5.24-22.48 23.11-4.16 45.52-21.63 60.9-36.4-7.83 23.15-18.52 54.15-21.99 61.01z" fill-opacity=".7" opacity=".2"/></g><path d="M326.68 175L400 194.34s-25.77 78.21-31 87.91l-8.74 68.18s-46.84-2.06-68.38-8.57c0 0 13.62-71 14.35-80.47S326.68 175 326.68 175z" fill="none" stroke="#263238" stroke-linecap="round" stroke-linejoin="round"/><path d="M367.33 330.69L357 405.45c-2.3-4.89-8.57-13.23-11.81-17.4-1.2-1.56-2-2.53-2-2.53l-1.83-2.82c-9.49-13.45-9.49-29.27-11.07-42.72s-1.19-12.27-.79-24.19a175.41 175.41 0 00-1.18-26.79c-.79-7.92-2.37-21.85 0-28.34 1.16-3.18 3.25-5.16 5.87-5.58s6 .78 9.49 4.08c6.79 6.49 9.56 33.15 9.56 36.44s0 13.57 2.38 17.53c0-.05 6.38 12.02 11.71 17.56z" fill="#fff"/><path d="M340.58 377.37c2.16 2.76 3.63 6.74 4.61 10.68-1.2-1.56-2-2.53-2-2.53l-1.83-2.82c-9.49-13.45-9.49-29.27-11.07-42.72s-1.19-12.27-.79-24.19a175.41 175.41 0 00-1.18-26.79c-.79-7.92-2.37-21.85 0-28.34 1.16-3.18 3.25-5.16 5.87-5.58 5 1.42 10 6.51 11.74 15.22 3 14.62-10.53 2.81-13.66 15.2s1.42 15.73 3.29 18.85-.52 10-3.29 19.24 2.38 46.19 8.31 53.78z" fill="#fca311" opacity=".4"/><path d="M367.33 330.69c-5.34-5.54-11.71-17.61-11.71-17.61-2.38-4-2.38-14.24-2.38-17.53s-2.77-29.95-9.56-36.44-13-5-15.36 1.5-.79 20.42 0 28.34a175.41 175.41 0 011.19 26.84c-.4 11.92-.8 10.74.79 24.19s1.58 29.27 11.07 42.72l1.83 2.82s10.64 13.21 13.8 19.93m-24.68-106.4s9.07-4.69 13.61-4.29" fill="none" stroke="#263238" stroke-linecap="round" stroke-linejoin="round"/><path d="M193.81 170.81s-22.94-25.26-24.52-26.81-2.77-28.49-7.13-40.35-6.47-81.5-6.47-81.5-4.15-5.14-15.85-2.37-23.17-2.38-36.22 5.14S115.88 140 115.88 140l25.69 81.87z" fill-opacity=".7" opacity=".2"/><path d="M209.57 171s-10.28 65.67-21 74.37c-6.19 5-15.84 7.3-24.4 7-6.2-.22-11.84-1.78-15.16-4.61-7.91-6.73-19-10.29-24.52-14.64s-5.54-19.78-9.1-32.84-8.71-13.45-9.89-26.5-5.94-53-14.54-64.09-8.8-19.78-12.36-31.06S49 26.54 49 26.54l63.48-13s6.24 25.83 12.92 46.9c3.17 10 6.44 18.94 9.18 23.52a196.78 196.78 0 0113.63 27.69c7.18 7.52 11.11 24.18 12.3 38.77l17 9.48c13.07 3.57 32.06 11.1 32.06 11.1z" fill="#fff"/><path d="M209.57 171s-10.28 65.67-21 74.37c-6.19 5-15.84 7.3-24.4 7-20.3-5-25.76-16.32-28.51-19.06-3.66-3.65-8.47-25.89-5.83-38.83s.74-17.73-1.44-24.05c-4.83-14 9.9-21.54 11.42-26.84s1-34.94-5.63-44.58c-3.52-5.13-12.59-31.57-8.77-38.55 3.17 10 6.44 18.94 9.18 23.52a196.78 196.78 0 0113.63 27.69c7.18 7.52 11.11 24.18 12.3 38.77l17 9.48c13.06 3.55 32.05 11.08 32.05 11.08z" fill="#fca311" opacity=".4"/><path d="M132.05 166.38s-3.58 4.21-6.74 4.21m14.53 10.02s-3.85 8.18-10 10m3.16 37.94s8.71-3.76 10.09-10.09m34.44-58.55s-2.18 2.77-2.18 5" fill="none" stroke="#263238" stroke-linecap="round" stroke-linejoin="round"/><path d="M112.52 13.54S126.1 69.71 134.62 84a196.78 196.78 0 0113.63 27.69c7.18 7.52 11.11 24.19 12.3 38.78h0l17 9.48c13.05 3.56 32 11.08 32 11.08s-10.28 65.67-21 74.37-31.55 9.06-39.55 2.34-19-10.29-24.52-14.64-5.54-19.78-9.1-32.84-8.71-13.45-9.89-26.5-5.94-53-14.54-64.09-8.8-19.78-12.36-31.06S49 26.54 49 26.54" fill="none" stroke="#263238" stroke-linecap="round" stroke-linejoin="round"/><path fill="#263238" stroke="#263238" stroke-linecap="round" stroke-linejoin="round" d="M233.62 166.74L128.63 328.35l24.78 2.76 75.29 3.13 7.71-143.75-2.79-23.75z"/><path fill="#757575" d="M233.62 166.73l-9.7 164.75-95.29-3.13 7.52-126.24 2.34-39.2 41.52 1.67 53.61 2.15z"/><g clip-path="url(#c)"><circle cx="209.66" cy="300.91" r="11.6" fill="#bfbfbf" stroke="#263238" stroke-miterlimit="10"/><path fill="none" stroke="#263238" stroke-linecap="round" stroke-linejoin="round" d="M206.39 293.21l7.86 1.03m-9.97.88l11.81 1.15m-13.12 10.49l11.82 1.15"/><path d="M208.14 297.75a1.3 1.3 0 001.56-.89l.88.09-.89 8.35-1.31-.14.68-6.37-1-.11zm4.37.35c.52 0 .76.39.7.94v.1l-.51-.05V299c0-.24-.06-.35-.23-.37s-.28.07-.3.31.06.45.38.79a1.34 1.34 0 01.47 1.13c-.06.55-.36.83-.89.77s-.76-.4-.71-.94v-.21l.5.05v.25c0 .24.07.34.24.36s.29-.06.31-.3-.06-.45-.38-.79a1.34 1.34 0 01-.47-1.13c.07-.6.38-.92.89-.82zm.94.14l1.66.17-.06.49-.56-.06-.31 2.92-.53-.05.31-2.93-.56-.06z" fill="#263238"/><rect x="164.19" y="171.85" width="20.82" height="13.65" rx=".89" transform="rotate(12.31 174.56 178.595)" fill="#fff" stroke="#263238" stroke-linecap="round" stroke-linejoin="round"/><path d="M170 181.42l-.07-.07s0-.12-.05-.17a.46.46 0 01-.11-.16.14.14 0 010-.06s.05 0 .08-.07a.19.19 0 00.09-.14.11.11 0 010-.05h.06c0-.19-.12-.33-.24-.48-.29-.36-.35-.54-.29-.78s.16-.31.33-.28.24.15.19.39v.14l.5.11v-.11a.74.74 0 00-.39-.94l.06-.24-.43-.1-.05.25c-.39 0-.64.25-.74.7a1.2 1.2 0 00.37 1.11c.29.35.35.55.29.78s-.17.31-.34.27-.25-.15-.2-.38l.06-.27-.5-.11v.23a.75.75 0 00.39 1v.24l.43.1.05-.25h.26a.57.57 0 00.21-.13.8.8 0 00.15-.21c-.11-.26-.11-.29-.11-.32zm2.75-.16a.6.6 0 00-.06-.23.25.25 0 010-.12.16.16 0 01.07-.07c.27-.24-.06-.56-.32-.62a.54.54 0 00-.51.14l.21-.78.92.2.1-.48-1.38-.3a.83.83 0 00-.06.21c0 .07.09.09.09.17v.11a.25.25 0 00.11.14c.05 0 .1.09.09.15a.09.09 0 010 .06.46.46 0 01-.19.22.17.17 0 00-.1.06v.06c0 .07-.08.11-.14.15s-.21.36-.27.58l.5.11v-.1c.05-.24.18-.3.34-.27s.26.15.2.39l-.16.74c0 .23-.17.3-.34.26s-.25-.14-.2-.38l.07-.31-.5-.11-.06.28a.81.81 0 101.57.34 2.09 2.09 0 00.02-.6zm6.53 1.4a.86.86 0 00-.06-.23.25.25 0 010-.12.16.16 0 01.07-.07c.26-.24-.07-.56-.32-.62a.54.54 0 00-.51.14l.21-.78.92.2.1-.48-1.38-.3a.56.56 0 00-.06.21c0 .07.08.09.09.17s0 .07 0 .11a.25.25 0 00.11.14c.05 0 .1.09.09.15s0 0 0 .06a.43.43 0 01-.2.22.18.18 0 00-.09.06v.06c0 .06-.07.11-.13.15s-.21.36-.27.58l.5.11v-.1c.05-.24.18-.3.34-.27s.25.15.2.39l-.16.74c0 .23-.17.3-.34.26s-.25-.14-.2-.38l.07-.31-.5-.11-.06.28a.8.8 0 101.56.34 1.81 1.81 0 00.02-.6zm-5.39-2.39c.05-.24.18-.31.34-.27a.22.22 0 01.19.21h.17a.21.21 0 00.1.14c.06.05.14.08.21.13a.78.78 0 00-.6-1 .76.76 0 00-1 .67 1.29 1.29 0 000 .19c0 .16 0 .11.16.17s.21.14.07.19h.09v.1c0 .03 0 .05-.05.09a.12.12 0 010 .08s-.08.13-.1.15a.34.34 0 01-.12.12c-.13.08-.19 0-.23.2s-.05.22-.07.32a.82.82 0 101.59.35l.16-.7h-.06a2.27 2.27 0 01-.34-.19l-.09-.08-.2.9c0 .24-.18.31-.34.27s-.25-.15-.2-.39l.29-1.36a.39.39 0 01.06-.24zm2.46 1.65h.05v-.17h.22l.17-.77a.82.82 0 10-1.59-.35v.14c.07.06.11.16.18.21s.18 0 .15.17-.06.14 0 .19.07 0 .08.07a.09.09 0 010 .11s-.07 0-.08.09 0 .15-.06.17-.19-.12-.3-.11a.23.23 0 00-.16.17 3.21 3.21 0 00-.11.52.76.76 0 00.61 1 .8.8 0 00.67-.12 1 1 0 00.22-.27.28.28 0 000-.37h-.05l-.07-.24.07-.06c.07-.06 0-.19.1-.26s-.12-.1-.1-.12zm-.42.68c-.05.24-.18.31-.35.27s-.25-.15-.2-.39l.4-1.8c.05-.24.17-.31.34-.27s.25.15.2.39zm1.31.56l-.11.51-.51-.11.11-.51zm4.18-.89c.06 0 .06-.23.08-.31a.82.82 0 10-1.59-.35l-.15.67c.13.12 0 .31.06.45s0 0 0 .06-.15.09-.15.17-.08.12-.13.18a.3.3 0 00-.05.16.82.82 0 101.59.35l.12-.55c0-.14.18-.51 0-.62s-.08 0-.1-.07a.16.16 0 010-.15c.12-.1.21.07.32.01zm-.61.88c0 .06-.1.08-.15.16a1.08 1.08 0 00-.07.31c-.05.24-.18.3-.34.27s-.26-.15-.2-.39c0-.07.09-.27.07-.33s-.1 0-.14-.12a.58.58 0 010-.32.17.17 0 000-.07s-.05-.09 0-.13 0-.13 0-.22c.32.12.31-.37.36-.57s.18-.31.34-.27.25.15.2.38a2.41 2.41 0 00-.12.63.19.19 0 01.16.17.43.43 0 000 .16v.13c0 .04-.06 0-.1 0a.18.18 0 00-.11.13z" fill="#263238"/><path d="M175.83 175l3.38.74m-11.06-2.42l6 1.32m-6.5 1l3.96.86" fill="none" stroke="#263238" stroke-linecap="round" stroke-linejoin="round"/><path d="M133 326.89a66.47 66.47 0 0116.09-2.16c9.76-.24 16 1.61 24-2.35s13.19 3.17 20.84-.79 11.2-10.3 15.62-10.16 11-70.69 13.12-82.88 6.63-46.17 8.18-53.07l-8.71 153.57z" fill="#fff" opacity=".4"/><path fill="#fca311" stroke="#263238" stroke-linecap="round" stroke-linejoin="round" d="M133.42 296.67l24.39 29.67-25.76-1.6 1.37-28.07zM198.15 238l-.39 11.29a12 12 0 01-12.41 11.58l-11.6-.41A12 12 0 01162.17 248l.52-14.7a12 12 0 0112.41-11.57l11.6.4c.32 0 .64 0 1 .07a9.63 9.63 0 0010.45 15.8z"/><path d="M200.24 228.25a5.49 5.49 0 11-5.3-5.67 5.5 5.5 0 015.3 5.67z" fill="#fca311" stroke="#263238" stroke-linecap="round" stroke-linejoin="round"/><path d="M165.47 249.4l17.05-14.58s-2.16-7.81 0-10.28h-8.19a7.74 7.74 0 00-7.75 7.25zm26.96-20.85l3.65-4s-2.27-1.53-3.65 0 0 4 0 4z" fill="#fff" opacity=".4"/><path fill="none" stroke="#263238" stroke-linecap="round" stroke-linejoin="round" d="M190.65 315.66l27.49 1.19m-37.01 1.58l37.01 1.98m-9.69 5.93h9.69"/><path d="M174.76 225.37c-14.18 6.82-29.54-17.07-34.92-20.36a22.83 22.83 0 01-3.69-2.9l2.34-39.2 41.51 1.67c-.27 5.84-.18 12.29 1.12 16 2.8 8.09 7.81 37.98-6.36 44.79z" fill-opacity=".7" opacity=".2"/><path d="M158.87 226.59s11.34 4.92 16.48 2 10.68-8.5 11.47-20.89c0 0 6.75 17.45-6.86 22.68s-21.09-3.79-21.09-3.79z" fill="#fff" opacity=".4"/><path d="M154.45 233.57s23 6.18 32.84-5c0 0-1.32 6.21-11.94 8s-20.9-3-20.9-3zm36.99-39.95c-1.75-3.11.4 24.84.4 24.84s3.16-18.46-.4-24.84z" fill="#fff" opacity=".4"/></g><path fill="none" stroke="#263238" stroke-linecap="round" stroke-linejoin="round" d="M233.62 166.73l-9.7 164.75-95.29-3.13 7.52-126.24 2.34-39.2 41.52 1.67 53.61 2.15z"/><path fill="#fff" opacity=".4" d="M228.8 332.36l-3.47-.88 8.29-150.87 1.47 9.96-6.29 141.79z"/><path d="M174.76 225.37a9.37 9.37 0 01-8.54.13 12.25 12.25 0 01-5.31-5.46c-3.95-7.12-14.64-23.34-16.61-28s-6.33-17.84-10.68-23.37-6.73-13.85-6.73-13.85l-1.58-80.7c2.37 11.67 8.9 24.92 8.9 24.92a37.36 37.36 0 0114 12.66 23.36 23.36 0 012.73 3.53c6.46 10 9.59 28 9.93 42 .4 15.83 5.54 23 13.85 36.79s5.44 28.28.04 31.35z" fill="#fff"/><path d="M174.76 225.37a9.59 9.59 0 01-8.54.13c4.54-1.24 10.5-3.57 9.13-7-2.15-5.48-8.44 2.65-11.6 0s-14.64-17.85-7.35-24.54 5-17.91 0-21.07-1.75-10.69-.17-22.54c1-7.17-2.43-23.41-5.25-35.13 6.46 10 9.59 28 9.93 42 .4 15.83 5.54 23 13.85 36.79s5.4 28.48 0 31.36z" fill="#fca311" opacity=".4"/><path d="M125.31 74.07c2.37 11.67 8.9 24.92 8.9 24.92a37.36 37.36 0 0114 12.66c8.31 8.7 12.27 29.67 12.66 45.49s5.54 23 13.85 36.79 6 28.17 0 31.44c-4.18 2.29-9.89 1.79-13.85-5.33s-14.64-23.34-16.61-28-6.33-17.84-10.68-23.37-6.73-13.85-6.73-13.85M151 190.57s6.46-.58 9.42-3m-35.9-31.16s-1.26 3 5.34 6" fill="none" stroke="#263238" stroke-linecap="round" stroke-linejoin="round"/></svg>