<svg xmlns="http://www.w3.org/2000/svg" viewBox="0 0 500 500"><path d="M410 257.18c-89-51.39-232.87-51.39-321.3 0s-88 134.72 1 186.11 232.87 51.39 321.31 0S499 308.58 410 257.18z" fill="#f5f5f5"/><path d="M245.92 254.53l178.02 102.9L468 331.99 290.54 228.27l-44.62 26.26zm-59.17 34.41l-55 31.69c-14.87-5.57-34.89-4.59-47.85 2.94s-14.56 19-5.09 27.57L39.7 373.69l82.07 47.4 147-84.75zM271.67 412c-18.57-10.72-48.59-10.72-67 0s-18.35 28.11.22 38.83 48.58 10.72 67 0 18.35-28.1-.22-38.83zm137.04-34.17c-18.57-10.72-48.58-10.72-67 0s-18.35 28.11.22 38.83 48.58 10.72 67 0 18.36-28.11-.22-38.83z" fill="#e6e6e6"/><path fill="#e0e0e0" d="M379.45 58.63l-.21 75.76 4.21 2.44.22-75.77-4.22-2.43z"/><path fill="#f0f0f0" d="M383.67 61.06l-.22 75.77 3.67-2.13.2-71.53-3.65-2.11z"/><rect x="381.56" y="57.41" height="4.87" transform="rotate(-60 381.556 59.846)" fill="#e0e0e0"/><path opacity=".2" d="M383.66 64.46l.01-3.4-4.22-2.43-.01 3.4 4.22 2.43z"/><path opacity=".2" d="M383.66 64.46l2.95-1.7-2.94-1.7-.01 3.4z"/><rect x="381.56" y="57.41" height="4.87" transform="rotate(-60 381.556 59.846)" fill="#e0e0e0"/><path fill="#f0f0f0" d="M328.72 29.34l3.66-2.14-.21 75.77-3.67 2.13.22-75.76z"/><path fill="#f5f5f5" d="M328.5 105.1l3.67-2.13 105.69 61.02-3.67 2.13L328.5 105.1z"/><path d="M324.51 22.06L438.64 88l-.24 85.45-114.13-65.94zm109.68 144.06l.22-75.76-105.69-61-.22 75.76 105.69 61" fill="#e0e0e0"/><path fill="#f5f5f5" d="M324.51 22.06l3.67-2.13L442.3 85.82l-3.66 2.13-114.13-65.89z"/><path fill="#f0f0f0" d="M438.64 87.95l3.66-2.13-.24 85.45-3.67 2.13.25-85.45z"/><g fill="#e6e6e6"><path d="M195.76 43c.55-.32 1-.07 1 .56v6.1a2.19 2.19 0 01-1 1.72l-16.06 9.3c-.55.31-1 .06-1-.57V54a2.18 2.18 0 011-1.72zm0 21c.55-.32 1-.06 1 .57v6.1a2.17 2.17 0 01-1 1.71l-16.06 9.25c-.55.32-1 .06-1-.57V75a2.16 2.16 0 011-1.71zm10.69-16.81c.55-.31 1-.06 1 .57v6.1a2.23 2.23 0 01-1 1.72l-16.09 9.28c-.54.32-1 .07-1-.56v-6.11a2.16 2.16 0 011-1.71z"/><path d="M195.76 43c.55-.32 1-.07 1 .56v6.1a2.19 2.19 0 01-1 1.72l-16.06 9.3c-.55.31-1 .06-1-.57V54a2.18 2.18 0 011-1.72zm0 21c.55-.32 1-.06 1 .57v6.1a2.17 2.17 0 01-1 1.71l-16.06 9.25c-.55.32-1 .06-1-.57V75a2.16 2.16 0 011-1.71zm10.69-16.81c.55-.31 1-.06 1 .57v6.1a2.23 2.23 0 01-1 1.72l-16.09 9.28c-.54.32-1 .07-1-.56v-6.11a2.16 2.16 0 011-1.71z" opacity=".07"/><path d="M263.82 20.12c.54-.32 1-.06 1 .57v6.1a2.14 2.14 0 01-1 1.71l-16.08 9.29c-.55.32-1 .06-1-.57v-6.1a2.19 2.19 0 011-1.71zm0 20.95c.54-.31 1-.06 1 .57v6.1a2.16 2.16 0 01-1 1.72l-16.08 9.28c-.55.32-1 .07-1-.56v-6.1a2.21 2.21 0 011-1.72zm10.69-16.76c.55-.32 1-.07 1 .57V31a2.14 2.14 0 01-1 1.71L258.45 42c-.55.31-1 .06-1-.57v-6.1a2.17 2.17 0 011-1.72z"/><path d="M263.82 20.12c.54-.32 1-.06 1 .57v6.1a2.14 2.14 0 01-1 1.71l-16.08 9.29c-.55.32-1 .06-1-.57v-6.1a2.19 2.19 0 011-1.71zm0 20.95c.54-.31 1-.06 1 .57v6.1a2.16 2.16 0 01-1 1.72l-16.08 9.28c-.55.32-1 .07-1-.56v-6.1a2.21 2.21 0 011-1.72zm10.69-16.76c.55-.32 1-.07 1 .57V31a2.14 2.14 0 01-1 1.71L258.45 42c-.55.31-1 .06-1-.57v-6.1a2.17 2.17 0 011-1.72z" opacity=".07"/><path d="M284.77 30.6c.55-.32 1-.07 1 .57v6.1a2.19 2.19 0 01-1 1.71l-16.09 9.29c-.54.31-1 .06-1-.57v-6.1a2.2 2.2 0 011-1.72zm0 20.95c.55-.31 1-.06 1 .57v6.1a2.23 2.23 0 01-1 1.72l-16.09 9.28c-.54.32-1 .07-1-.57v-6.1a2.16 2.16 0 011-1.71z"/><path d="M284.77 30.6c.55-.32 1-.07 1 .57v6.1a2.19 2.19 0 01-1 1.71l-16.09 9.29c-.54.31-1 .06-1-.57v-6.1a2.2 2.2 0 011-1.72zm0 20.95c.55-.31 1-.06 1 .57v6.1a2.23 2.23 0 01-1 1.72l-16.09 9.28c-.54.32-1 .07-1-.57v-6.1a2.16 2.16 0 011-1.71z" opacity=".07"/><path d="M168.36 85.91c.55-.31 1-.06 1 .57v6.1a2.19 2.19 0 01-1 1.71l-16.09 9.29c-.54.32-1 .07-1-.57v-6.1a2.16 2.16 0 011-1.71zm10.69 4.19c.55-.32 1-.07 1 .57v6.1a2.19 2.19 0 01-1 1.71L163 107.77c-.54.31-1 .06-1-.57v-6.1a2.2 2.2 0 011-1.72z"/><path d="M168.36 85.91c.55-.31 1-.06 1 .57v6.1a2.19 2.19 0 01-1 1.71l-16.09 9.29c-.54.32-1 .07-1-.57v-6.1a2.16 2.16 0 011-1.71zm10.69 4.19c.55-.32 1-.07 1 .57v6.1a2.19 2.19 0 01-1 1.71L163 107.77c-.54.31-1 .06-1-.57v-6.1a2.2 2.2 0 011-1.72z" opacity=".07"/><path d="M131.6 137.86c.54-.32 1-.07 1 .57v6.1a2.16 2.16 0 01-1 1.71l-16.08 9.29c-.55.31-1 .06-1-.57v-6.1a2.23 2.23 0 011-1.72zm0 20.95c.54-.31 1-.06 1 .57v6.1a2.2 2.2 0 01-1 1.72l-16.08 9.28c-.55.32-1 .07-1-.57v-6.1a2.19 2.19 0 011-1.71zm-9.55-4.94c.55-.32 1-.07 1 .57v6.1a2.14 2.14 0 01-1 1.71L106 171.54c-.55.31-1 .06-1-.57v-6.1a2.17 2.17 0 011-1.72zm20.24-11.82c.55-.32 1-.07 1 .56v6.1a2.16 2.16 0 01-1 1.72l-16.08 9.29c-.55.31-1 .06-1-.57v-6.1a2.19 2.19 0 011-1.72z"/><path d="M131.6 137.86c.54-.32 1-.07 1 .57v6.1a2.16 2.16 0 01-1 1.71l-16.08 9.29c-.55.31-1 .06-1-.57v-6.1a2.23 2.23 0 011-1.72zm0 20.95c.54-.31 1-.06 1 .57v6.1a2.2 2.2 0 01-1 1.72l-16.08 9.28c-.55.32-1 .07-1-.57v-6.1a2.19 2.19 0 011-1.71zm-9.55-4.94c.55-.32 1-.07 1 .57v6.1a2.14 2.14 0 01-1 1.71L106 171.54c-.55.31-1 .06-1-.57v-6.1a2.17 2.17 0 011-1.72zm20.24-11.82c.55-.32 1-.07 1 .56v6.1a2.16 2.16 0 01-1 1.72l-16.08 9.29c-.55.31-1 .06-1-.57v-6.1a2.19 2.19 0 011-1.72z" opacity=".07"/><path d="M100.8 145.27c.54-.31 1-.06 1 .57v6.1a2.2 2.2 0 01-1 1.72l-16.08 9.28c-.55.32-1 .07-1-.57v-6.1a2.19 2.19 0 011-1.71zm0 20.96c.54-.32 1-.07 1 .56v6.11a2.16 2.16 0 01-1 1.71l-16.06 9.29c-.55.31-1 .06-1-.57v-6.1a2.23 2.23 0 011-1.72zm-9.55-4.95c.55-.31 1-.06 1 .57V168a2.17 2.17 0 01-1 1.72L75.19 179c-.55.32-1 .07-1-.56v-6.1a2.14 2.14 0 011-1.72zm20.24-11.82c.55-.32 1-.06 1 .57v6.1a2.14 2.14 0 01-1 1.71l-16.08 9.29c-.55.32-1 .06-1-.57v-6.1a2.14 2.14 0 011-1.71z"/><path d="M100.8 145.27c.54-.31 1-.06 1 .57v6.1a2.2 2.2 0 01-1 1.72l-16.08 9.28c-.55.32-1 .07-1-.57v-6.1a2.19 2.19 0 011-1.71zm0 20.96c.54-.32 1-.07 1 .56v6.11a2.16 2.16 0 01-1 1.71l-16.06 9.29c-.55.31-1 .06-1-.57v-6.1a2.23 2.23 0 011-1.72zm-9.55-4.95c.55-.31 1-.06 1 .57V168a2.17 2.17 0 01-1 1.72L75.19 179c-.55.32-1 .07-1-.56v-6.1a2.14 2.14 0 011-1.72zm20.24-11.82c.55-.32 1-.06 1 .57v6.1a2.14 2.14 0 01-1 1.71l-16.08 9.29c-.55.32-1 .06-1-.57v-6.1a2.14 2.14 0 011-1.71z" opacity=".07"/><path d="M50 196.56c.55-.32 1-.07 1 .56v6.11a2.17 2.17 0 01-1 1.71l-16.08 9.29c-.55.31-1 .06-1-.57v-6.1a2.17 2.17 0 011-1.72zm0 20.95c.55-.31 1-.06 1 .57v6.1a2.21 2.21 0 01-1 1.72l-16.08 9.28c-.55.32-1 .07-1-.57v-6.1a2.14 2.14 0 011-1.71zm-9.58-4.94c.55-.32 1-.07 1 .57v6.1a2.19 2.19 0 01-1 1.71l-16.09 9.29c-.54.31-1 .06-1-.57v-6.1a2.2 2.2 0 011-1.72zm20.24-11.83c.55-.31 1-.06 1 .57v6.1a2.21 2.21 0 01-1 1.72l-16.06 9.28c-.54.32-1 .07-1-.56v-6.1a2.18 2.18 0 011-1.72z"/><path d="M50 196.56c.55-.32 1-.07 1 .56v6.11a2.17 2.17 0 01-1 1.71l-16.08 9.29c-.55.31-1 .06-1-.57v-6.1a2.17 2.17 0 011-1.72zm0 20.95c.55-.31 1-.06 1 .57v6.1a2.21 2.21 0 01-1 1.72l-16.08 9.28c-.55.32-1 .07-1-.57v-6.1a2.14 2.14 0 011-1.71zm-9.58-4.94c.55-.32 1-.07 1 .57v6.1a2.19 2.19 0 01-1 1.71l-16.09 9.29c-.54.31-1 .06-1-.57v-6.1a2.2 2.2 0 011-1.72zm20.24-11.83c.55-.31 1-.06 1 .57v6.1a2.21 2.21 0 01-1 1.72l-16.06 9.28c-.54.32-1 .07-1-.56v-6.1a2.18 2.18 0 011-1.72z" opacity=".07"/><path d="M58.44 155.43c.55-.32 1-.07 1 .56v6.1a2.21 2.21 0 01-1 1.72l-16.06 9.29c-.54.31-1 .06-1-.57v-6.1a2.18 2.18 0 011-1.72zm10.69 4.18c.55-.31 1-.06 1 .57v6.1a2.23 2.23 0 01-1 1.72l-16.09 9.28c-.54.32-1 .07-1-.56v-6.11a2.16 2.16 0 011-1.71z"/><path d="M58.44 155.43c.55-.32 1-.07 1 .56v6.1a2.21 2.21 0 01-1 1.72l-16.06 9.29c-.54.31-1 .06-1-.57v-6.1a2.18 2.18 0 011-1.72zm10.69 4.18c.55-.31 1-.06 1 .57v6.1a2.23 2.23 0 01-1 1.72l-16.09 9.28c-.54.32-1 .07-1-.56v-6.11a2.16 2.16 0 011-1.71z" opacity=".07"/><path d="M105.76 92.61c.55-.31 1-.06 1 .57v6.1a2.23 2.23 0 01-1 1.72l-16.06 9.28c-.54.32-1 .07-1-.57v-6.1a2.16 2.16 0 011-1.71zm0 20.96c.55-.32 1-.07 1 .56v6.1a2.19 2.19 0 01-1 1.72l-16.06 9.29c-.54.31-1 .06-1-.57v-6.1a2.2 2.2 0 011-1.72zm-9.55-4.95c.55-.31 1-.06 1 .57v6.1a2.23 2.23 0 01-1 1.72l-16.09 9.28c-.54.32-1 .07-1-.57v-6.1a2.16 2.16 0 011-1.71zm20.24-11.82c.55-.32 1-.07 1 .57v6.1a2.19 2.19 0 01-1 1.71l-16.09 9.29c-.54.31-1 .06-1-.57v-6.1a2.16 2.16 0 011-1.71z"/><path d="M105.76 92.61c.55-.31 1-.06 1 .57v6.1a2.23 2.23 0 01-1 1.72l-16.06 9.28c-.54.32-1 .07-1-.57v-6.1a2.16 2.16 0 011-1.71zm0 20.96c.55-.32 1-.07 1 .56v6.1a2.19 2.19 0 01-1 1.72l-16.06 9.29c-.54.31-1 .06-1-.57v-6.1a2.2 2.2 0 011-1.72zm-9.55-4.95c.55-.31 1-.06 1 .57v6.1a2.23 2.23 0 01-1 1.72l-16.09 9.28c-.54.32-1 .07-1-.57v-6.1a2.16 2.16 0 011-1.71zm20.24-11.82c.55-.32 1-.07 1 .57v6.1a2.19 2.19 0 01-1 1.71l-16.09 9.29c-.54.31-1 .06-1-.57v-6.1a2.16 2.16 0 011-1.71z" opacity=".07"/><path d="M237.64 82.88c.54-.31 1-.06 1 .57v6.1a2.16 2.16 0 01-1 1.71l-16.08 9.29c-.55.32-1 .07-1-.57v-6.1a2.19 2.19 0 011-1.71zm0 20.96c.54-.32 1-.07 1 .56v6.1a2.18 2.18 0 01-1 1.72l-16.08 9.29c-.55.31-1 .06-1-.57v-6.1a2.21 2.21 0 011-1.72zm10.69-16.77c.54-.32 1-.07 1 .57v6.1a2.16 2.16 0 01-1 1.71l-16.08 9.29c-.55.31-1 .06-1-.57v-6.1a2.23 2.23 0 011-1.72z"/><path d="M237.64 82.88c.54-.31 1-.06 1 .57v6.1a2.16 2.16 0 01-1 1.71l-16.08 9.29c-.55.32-1 .07-1-.57v-6.1a2.19 2.19 0 011-1.71zm0 20.96c.54-.32 1-.07 1 .56v6.1a2.18 2.18 0 01-1 1.72l-16.08 9.29c-.55.31-1 .06-1-.57v-6.1a2.21 2.21 0 011-1.72zm10.69-16.77c.54-.32 1-.07 1 .57v6.1a2.16 2.16 0 01-1 1.71l-16.08 9.29c-.55.31-1 .06-1-.57v-6.1a2.23 2.23 0 011-1.72z" opacity=".07"/><path d="M442.51 205.23c-.55-.31-1-.06-1 .57v6.1a2.21 2.21 0 001 1.72l16.09 9.28c.54.32 1 .07 1-.56v-6.1a2.18 2.18 0 00-1-1.72zm0 20.96c-.55-.32-1-.07-1 .57v6.1a2.19 2.19 0 001 1.71l16.09 9.29c.54.31 1 .06 1-.57v-6.1a2.2 2.2 0 00-1-1.72zm9.54-4.94c-.54-.32-1-.07-1 .56v6.1a2.18 2.18 0 001 1.72l16.08 9.29c.55.31 1 .06 1-.57v-6.1a2.21 2.21 0 00-1-1.72z"/><path d="M442.51 205.23c-.55-.31-1-.06-1 .57v6.1a2.21 2.21 0 001 1.72l16.09 9.28c.54.32 1 .07 1-.56v-6.1a2.18 2.18 0 00-1-1.72zm0 20.96c-.55-.32-1-.07-1 .57v6.1a2.19 2.19 0 001 1.71l16.09 9.29c.54.31 1 .06 1-.57v-6.1a2.2 2.2 0 00-1-1.72zm9.54-4.94c-.54-.32-1-.07-1 .56v6.1a2.18 2.18 0 001 1.72l16.08 9.29c.55.31 1 .06 1-.57v-6.1a2.21 2.21 0 00-1-1.72z" opacity=".07"/><path d="M454.74 179.27c-.55-.31-1-.06-1 .57v6.1a2.17 2.17 0 001 1.72l16.08 9.28c.55.32 1 .07 1-.56v-6.11a2.14 2.14 0 00-1-1.71zm0 20.96c-.55-.32-1-.07-1 .57v6.1a2.14 2.14 0 001 1.71l16.08 9.29c.55.31 1 .06 1-.57v-6.1a2.17 2.17 0 00-1-1.72zm9.55-4.95c-.55-.31-1-.06-1 .57v6.1a2.21 2.21 0 001 1.72l16.06 9.33c.54.32 1 .07 1-.56v-6.1a2.18 2.18 0 00-1-1.72zm-20.24-11.82c-.55-.31-1-.06-1 .57v6.1a2.23 2.23 0 001 1.72l16.09 9.28c.54.32 1 .07 1-.57v-6.1a2.16 2.16 0 00-1-1.71z"/><path d="M454.74 179.27c-.55-.31-1-.06-1 .57v6.1a2.17 2.17 0 001 1.72l16.08 9.28c.55.32 1 .07 1-.56v-6.11a2.14 2.14 0 00-1-1.71zm0 20.96c-.55-.32-1-.07-1 .57v6.1a2.14 2.14 0 001 1.71l16.08 9.29c.55.31 1 .06 1-.57v-6.1a2.17 2.17 0 00-1-1.72zm9.55-4.95c-.55-.31-1-.06-1 .57v6.1a2.21 2.21 0 001 1.72l16.06 9.33c.54.32 1 .07 1-.56v-6.1a2.18 2.18 0 00-1-1.72zm-20.24-11.82c-.55-.31-1-.06-1 .57v6.1a2.23 2.23 0 001 1.72l16.09 9.28c.54.32 1 .07 1-.57v-6.1a2.16 2.16 0 00-1-1.71z" opacity=".07"/></g><path d="M319.37 137.09h.58a5.4 5.4 0 014.94 5.24l.74 27.76 4.7 28.4a9 9 0 01-9.23 2.76z" fill="#e0e0e0"/><path d="M319.37 137.09h.58a5.4 5.4 0 014.94 5.24l.74 27.76 4.7 28.4a9 9 0 01-9.23 2.76z" opacity=".2"/><path d="M323 150.8l-3.49-8.75 1.6 59.25a9.47 9.47 0 002.93.3l.16-44.5a16.84 16.84 0 00-1.2-6.3z" opacity=".3"/><path d="M284.33 174.42v45.67c-.31 5.2 9.47 3.95 24.18-4.66 12.9-7.55 13.84-5.82 13.84-14.85s.67-45.27.67-45.27c-.16-5.32-3.65-18.22-3.65-18.22l-9.72-.82-14.95 7.51-10.37 9.12z" fill="#e0e0e0"/><path d="M284.33 174.42v45.67c-.31 5.2 9.47 3.95 24.18-4.66 12.9-7.55 13.84-5.82 13.84-14.85s.67-45.27.67-45.27c-.16-5.32-3.65-18.22-3.65-18.22l-9.72-.82-14.95 7.51-10.37 9.12z" opacity=".2"/><path d="M287.58 216.34v-20.68l1.79-21.76-5 1.78v44.41c-.16 2.63 2.26 3.6 6.58 2.83-1.85-.71-3.37-2.52-3.37-6.58z" opacity=".3"/><path d="M284.33 152.9l-3.69 3.95a16.52 16.52 0 00-4.24 8.7l-4.07 26a31.16 31.16 0 000 9.64l4.08 25.89c6.87 1.6 10.18-3.15 10.18-3.15l-2.26-27.85 5-22.2z" fill="#e0e0e0"/><path d="M284.33 152.9l-3.69 3.95a16.52 16.52 0 00-4.24 8.7l-4.07 26a31.16 31.16 0 000 9.64l4.08 25.89c6.87 1.6 10.18-3.15 10.18-3.15l-2.26-27.85 5-22.2z" opacity=".2"/><path fill="#e0e0e0" d="M296.35 139.78l10.74-4.81v18.47l-10.74-13.66z"/><path opacity=".3" d="M296.35 139.78l10.74-4.81v18.47l-10.74-13.66z"/><path d="M296.52 144.51a4.73 4.73 0 00.68 2l11.31-6.55c.34-.92-.28-1.36-.18-2.26l-3.37 2-2.33 1.3-1.27.73z" fill="#f28f8f"/><path d="M302.63 141v-2.36a11.33 11.33 0 004.47-8.41c0-3.25-2.32-4.55-5.13-2.93a11.35 11.35 0 00-4.74 6.42 8.49 8.49 0 00-.36 2.41c0 .41.29.57.64.37a1.4 1.4 0 00.63-1.1 6.62 6.62 0 01.27-1.81 8.46 8.46 0 013.56-4.83c2.13-1.23 3.85-.23 3.86 2.2a8.48 8.48 0 01-3.83 6.64 1.37 1.37 0 00-.64 1.1v3zm-6.28-1.22l10.74 13.66-8.05 7.74-4.34-17.4 1.65-4z" fill="#e0e0e0"/><path fill="#e0e0e0" d="M307.09 153.44v-18.47l1.84 1.66 2.64 18.01-4.48-1.2z"/><path opacity=".1" d="M296.35 139.78l10.74 13.66-8.05 7.74-4.34-17.4 1.65-4z"/><path opacity=".1" d="M307.09 153.44v-18.47l1.84 1.66 2.64 18.01-4.48-1.2z"/><path d="M311.1 155.47l-2.76 1.71a36.74 36.74 0 00-11.2 10.9l-6 9.06a19.18 19.18 0 0012.08 7.7v45.67c-.31 5.21 9.26 3.58 24.18-4.65s16.72-6.73 16.72-15.76-2.21-44.36-2.21-44.36a19 19 0 005.79-15.64l-6.83-3.75a9.69 9.69 0 00-6.84-.93l-5.49 1.27z" fill="#455a64"/><path d="M315 189.76a17.45 17.45 0 01-6.6 2.32 6.85 6.85 0 01-5.13-1.65v11.36a6.85 6.85 0 005.13 1.65 17.45 17.45 0 006.6-2.32 237.6 237.6 0 0028-17.05c-.22-4-.45-7.82-.63-10.92A236.54 236.54 0 01315 189.76z" fill="#fff"/><path d="M305.22 227.29v-42.68a7.08 7.08 0 01-2 .23v45.67c-.1 1.75.93 2.71 2.88 2.93-1.29-1.2-.73-3.22-.88-6.15z" opacity=".15"/><path d="M326.92 147.52l-13.87 7c4.85 7.89 14.8 4.26 13.87-7z" fill="#455a64"/><path d="M326.92 147.52l-13.87 7c4.85 7.89 14.8 4.26 13.87-7z" opacity=".4"/><path d="M313.62 156a4.78 4.78 0 00.68 2l13.12-7.58a11.81 11.81 0 00.67-2.76l-4.22 2.45-2.33 1.35-1.26.73z" fill="#f28f8f"/><path d="M321.54 151.41v-2.36a11.35 11.35 0 004.47-8.42c0-3.24-2.31-4.55-5.13-2.92a11.29 11.29 0 00-4.74 6.42 8.81 8.81 0 00-.36 2.41c0 .41.29.56.64.36a1.39 1.39 0 00.63-1.1 6.55 6.55 0 01.27-1.8 8.54 8.54 0 013.57-4.84c2.12-1.22 3.84-.23 3.85 2.21a8.46 8.46 0 01-3.84 6.63 1.4 1.4 0 00-.63 1.1v3z" fill="#e0e0e0"/><path d="M328.56 146.69l-1.64.83c.93 11.26-9 14.89-13.87 7l-1.95 1c5.97 10.58 19.07 5.88 17.46-8.83z" fill="#fff"/><path d="M364.62 164.27h.59a5.4 5.4 0 014.94 5.24l.74 27.75 4.7 28.4a9 9 0 01-9.23 2.77z" fill="#fca311"/><path d="M364.62 164.27h.59a5.4 5.4 0 014.94 5.24l.74 27.75 4.7 28.4a9 9 0 01-9.23 2.77z" opacity=".2"/><path d="M368.24 178l-3.49-8.75 1.61 59.25a9.41 9.41 0 002.93.3l.15-44.5a16.8 16.8 0 00-1.2-6.3z" opacity=".3"/><path d="M329.59 201.6v45.67c-.32 5.2 9.46 3.95 24.18-4.66 12.9-7.55 13.83-5.82 13.83-14.85s.67-45.27.67-45.27c-.16-5.32-3.65-18.22-3.65-18.22l-9.72-.82L340 171l-10.38 9.12z" fill="#fca311"/><path d="M329.59 201.6v45.67c-.32 5.2 9.46 3.95 24.18-4.66 12.9-7.55 13.83-5.82 13.83-14.85s.67-45.27.67-45.27c-.16-5.32-3.65-18.22-3.65-18.22l-9.72-.82L340 171l-10.38 9.12z" opacity=".2"/><path d="M332.83 243.52v-20.68l1.79-21.76-5 1.78v44.41c-.16 2.62 2.25 3.6 6.57 2.83-1.83-.71-3.36-2.52-3.36-6.58z" opacity=".3"/><path d="M329.58 180.08l-3.69 3.92a16.47 16.47 0 00-4.23 8.7l-4.08 26a30.86 30.86 0 000 9.64l4.07 25.89c6.87 1.6 10.18-3.15 10.18-3.15l-2.25-27.85 5-22.2z" fill="#fca311"/><path d="M329.58 180.08l-3.69 3.92a16.47 16.47 0 00-4.23 8.7l-4.08 26a30.86 30.86 0 000 9.64l4.07 25.89c6.87 1.6 10.18-3.15 10.18-3.15l-2.25-27.85 5-22.2z" opacity=".2"/><path fill="#fca311" d="M341.61 166.96l10.73-4.81v18.46l-10.73-13.65z"/><path opacity=".3" d="M341.61 166.96l10.73-4.81v18.46l-10.73-13.65z"/><path d="M341.77 171.69a4.88 4.88 0 00.68 2l11.32-6.55c.33-.92-.29-1.36-.19-2.26l-3.36 2-2.34 1.34-1.26.74z" fill="#f28f8f"/><path d="M347.88 168.16v-2.36a11.36 11.36 0 004.46-8.41c0-3.25-2.31-4.55-5.13-2.93a11.29 11.29 0 00-4.73 6.42 8.89 8.89 0 00-.37 2.41c0 .41.29.57.64.37a1.39 1.39 0 00.63-1.1 6.57 6.57 0 01.27-1.81 8.52 8.52 0 013.57-4.83c2.12-1.23 3.84-.24 3.85 2.2a8.45 8.45 0 01-3.83 6.64 1.39 1.39 0 00-.63 1.1v3z" fill="#e0e0e0"/><path fill="#fca311" d="M341.61 166.96l10.73 13.65-8.05 7.75-4.33-17.4 1.65-4z"/><path fill="#fca311" d="M352.34 180.61v-18.46l1.84 1.66 2.65 18.01-4.49-1.21z"/><path opacity=".1" d="M341.61 166.96l10.73 13.65-8.05 7.75-4.33-17.4 1.65-4z"/><path opacity=".1" d="M352.34 180.61v-18.46l1.84 1.66 2.65 18.01-4.49-1.21z"/><path d="M384.18 174l.59.05a5.39 5.39 0 014.94 5.23l.74 27.76 4.7 28.4a9 9 0 01-9.23 2.76z" fill="#fca311"/><path d="M384.18 174l.59.05a5.39 5.39 0 014.94 5.23l.74 27.76 4.7 28.4a9 9 0 01-9.23 2.76z" fill="#fff" opacity=".3"/><path d="M387.81 187.66l-3.49-8.75 1.6 59.24a9.64 9.64 0 002.93.31L389 194a16.76 16.76 0 00-1.19-6.34z" opacity=".2"/><path d="M349.15 211.27v45.67c-.32 5.21 9.47 4 24.18-4.65 12.9-7.56 13.84-5.82 13.84-14.86s.67-45.26.67-45.26c-.16-5.33-3.66-18.22-3.66-18.22l-9.71-.83-15 7.51-10.38 9.13z" fill="#fca311"/><path d="M349.15 211.27v45.67c-.32 5.21 9.47 4 24.18-4.65 12.9-7.56 13.84-5.82 13.84-14.86s.67-45.26.67-45.26c-.16-5.33-3.66-18.22-3.66-18.22l-9.71-.83-15 7.51-10.38 9.13z" fill="#fff" opacity=".4"/><path d="M352.39 253.2v-20.69l1.79-21.76-5 1.79v44.4c-.16 2.63 2.26 3.61 6.58 2.83-1.84-.71-3.37-2.52-3.37-6.57z" opacity=".2"/><path d="M349.14 189.76l-3.68 4a16.49 16.49 0 00-4.24 8.7l-4.07 26a31.1 31.1 0 000 9.63l4.08 25.9c6.87 1.6 10.18-3.15 10.18-3.15L349.15 233l5-22.21.78-3.46a17.74 17.74 0 00-4.32-15.93z" fill="#fca311"/><path d="M349.14 189.76l-3.68 4a16.49 16.49 0 00-4.24 8.7l-4.07 26a31.1 31.1 0 000 9.63l4.08 25.9c6.87 1.6 10.18-3.15 10.18-3.15L349.15 233l5-22.21.78-3.46a17.74 17.74 0 00-4.32-15.93z" fill="#fff" opacity=".3"/><path fill="#fca311" d="M361.17 176.63l10.74-4.81v18.47l-10.74-13.66z"/><path opacity=".3" d="M361.17 176.63l10.74-4.81v18.47l-10.74-13.66z"/><path d="M361.34 181.37a4.64 4.64 0 00.68 2l11.31-6.55c.34-.92-.28-1.36-.18-2.27l-3.37 2-2.33 1.35-1.27.73z" fill="#f28f8f"/><path d="M367.45 177.84v-2.36a11.39 11.39 0 004.47-8.42c0-3.24-2.32-4.55-5.13-2.92a11.24 11.24 0 00-4.74 6.42 8.44 8.44 0 00-.36 2.41c0 .41.29.56.63.36a1.37 1.37 0 00.64-1.1 6.19 6.19 0 01.27-1.8 8.49 8.49 0 013.56-4.84c2.12-1.22 3.85-.23 3.85 2.21a8.43 8.43 0 01-3.82 6.63 1.39 1.39 0 00-.64 1.1v3z" fill="#e0e0e0"/><path fill="#fca311" d="M361.17 176.63l10.74 13.66-8.05 7.74-4.34-17.4 1.65-4z"/><path fill="#fca311" d="M371.91 190.29v-18.47l1.84 1.67 2.64 18.01-4.48-1.21z"/><path fill="#fff" opacity=".1" d="M361.17 176.63l10.74 13.66-8.05 7.74-4.34-17.4 1.65-4z"/><path fill="#fff" opacity=".1" d="M371.91 190.29v-18.47l1.84 1.67 2.64 18.01-4.48-1.21z"/><path d="M383.45 197.64l-19.94 21.68A19.21 19.21 0 00375.6 227v45.67c-.32 5.2 9.25 3.58 24.17-4.66s16.72-6.73 16.72-15.76-2.21-44.36-2.21-44.36a18.92 18.92 0 005.79-15.64l-19.16-3.4z" fill="#455a64"/><path d="M377.57 269.46v-42.68a6.94 6.94 0 01-2 .24v45.67c-.11 1.75.92 2.71 2.87 2.92-1.28-1.19-.72-3.21-.87-6.15z" opacity=".15"/><path d="M383.45 197.64l-19.94 21.68A19.21 19.21 0 00375.6 227v45.67c-.32 5.2 9.25 3.58 24.17-4.66s16.72-6.73 16.72-15.76-2.21-44.36-2.21-44.36a18.92 18.92 0 005.79-15.64l-19.16-3.4z" opacity=".2"/><path d="M383.45 197.64l-19.94 21.68A19.21 19.21 0 00375.6 227v45.67c-.32 5.2 9.25 3.58 24.17-4.66s16.72-6.73 16.72-15.76-2.21-44.36-2.21-44.36a18.92 18.92 0 005.79-15.64l-19.16-3.4z" fill="#fff" opacity=".1"/><path d="M399.27 189.69l-13.87 7c4.85 7.89 14.8 4.31 13.87-7z" fill="#455a64"/><path d="M399.27 189.69l-13.87 7c4.85 7.89 14.8 4.31 13.87-7z" opacity=".4"/><path d="M386 198.14a4.73 4.73 0 00.68 2l13.12-7.58a11.69 11.69 0 00.67-2.76l-4.21 2.46-2.34 1.34-1.26.74z" fill="#f28f8f"/><path d="M393.89 193.58v-2.36a11.36 11.36 0 004.46-8.42c0-3.24-2.31-4.54-5.13-2.92a11.35 11.35 0 00-4.74 6.42 9.27 9.27 0 00-.36 2.41c0 .41.29.57.64.37a1.39 1.39 0 00.63-1.1 6.57 6.57 0 01.27-1.81 8.52 8.52 0 013.57-4.83c2.12-1.23 3.84-.24 3.85 2.2a8.45 8.45 0 01-3.83 6.64 1.39 1.39 0 00-.63 1.1v3z" fill="#e0e0e0"/><path d="M400.91 188.87l-1.64.82c.93 11.27-9 14.89-13.87 7l-1.95 1c5.98 10.59 19.07 5.89 17.46-8.82z" fill="#fff"/><path d="M403 209.26l-19.94 21.67a19.21 19.21 0 0012.09 7.7v45.67c-.32 5.21 9.25 3.59 24.18-4.65s16.72-6.73 16.72-15.76-2.21-44.36-2.21-44.36a19 19 0 005.79-15.64l-19.16-3.4z" fill="#fca311"/><path d="M397.14 281.08V238.4a7.08 7.08 0 01-2 .23v45.67c-.11 1.75.93 2.71 2.88 2.93-1.29-1.23-.73-3.23-.88-6.15z" opacity=".15"/><path d="M403 209.26l-19.94 21.67a19.21 19.21 0 0012.09 7.7v45.67c-.32 5.21 9.25 3.59 24.18-4.65s16.72-6.73 16.72-15.76-2.21-44.36-2.21-44.36a19 19 0 005.79-15.64l-19.16-3.4z" opacity=".2"/><path d="M403 209.26l-19.94 21.67a19.21 19.21 0 0012.09 7.7v45.67c-.32 5.21 9.25 3.59 24.18-4.65s16.72-6.73 16.72-15.76-2.21-44.36-2.21-44.36a19 19 0 005.79-15.64l-19.16-3.4z" fill="#fff" opacity=".1"/><path d="M418.84 201.31l-13.88 7c4.85 7.89 14.81 4.26 13.88-7z" fill="#fca311"/><path d="M418.84 201.31l-13.88 7c4.85 7.89 14.81 4.26 13.88-7z" opacity=".4"/><path d="M405.53 209.75a4.92 4.92 0 00.68 2l13.13-7.58a11.81 11.81 0 00.67-2.76l-4.22 2.45-2.33 1.35-1.27.73z" fill="#f28f8f"/><path d="M413.46 205.2v-2.36a11.39 11.39 0 004.47-8.42c0-3.24-2.32-4.55-5.13-2.92a11.28 11.28 0 00-4.74 6.42 8.84 8.84 0 00-.37 2.41c0 .41.3.56.64.36a1.37 1.37 0 00.64-1.1 6.19 6.19 0 01.27-1.8 8.52 8.52 0 013.56-4.84c2.12-1.22 3.85-.23 3.85 2.21a8.43 8.43 0 01-3.82 6.63 1.4 1.4 0 00-.64 1.1v3z" fill="#e0e0e0"/><path d="M420.48 200.49l-1.64.82c.93 11.26-9 14.89-13.88 7l-1.95 1c5.99 10.59 19.08 5.88 17.47-8.82z" fill="#fff"/><path d="M281.28 118.34a10.21 10.21 0 00-15.28 8.84v108.09L249 245a2.69 2.69 0 00-1.34 2.33v4.07a2.69 2.69 0 105.37 0v-2.52l16.39-9.46a2.72 2.72 0 001-.59l15.93-9.2a2.69 2.69 0 005.34-.45V225a2.69 2.69 0 00-4-2.33l-16.39 9.46v-105a4.84 4.84 0 017.3-4.13l14.57 8.41 5.37-3.1z" fill="#263238"/><path d="M281.28 118.34a10.21 10.21 0 00-15.28 8.84v108.09L249 245a2.69 2.69 0 00-1.34 2.33v4.07a2.69 2.69 0 105.37 0v-2.52l16.39-9.46a2.72 2.72 0 001-.59l15.93-9.2a2.69 2.69 0 005.34-.45V225a2.69 2.69 0 00-4-2.33l-16.39 9.46v-105a4.84 4.84 0 017.3-4.13l14.57 8.41 5.37-3.1z" fill="#fff" opacity=".2"/><path d="M463.43 323.93a2.69 2.69 0 00-2.69 0l-15.31 8.84v-105.7a24.27 24.27 0 00-12.09-20.94l-134.8-77.82-5.37 3.1 137.48 79.37a18.86 18.86 0 019.4 16.29v108.8l-18 10.39a2.69 2.69 0 00-1.34 2.33v4.07a2.69 2.69 0 105.37 0v-2.52l33.35-19.26a2.69 2.69 0 005.34-.44v-4.19a2.68 2.68 0 00-1.34-2.32z" fill="#263238"/><path d="M463.43 323.93a2.69 2.69 0 00-2.69 0l-15.31 8.84v-105.7a24.27 24.27 0 00-12.09-20.94l-134.8-77.82-5.37 3.1 137.48 79.37a18.86 18.86 0 019.4 16.29v108.8l-18 10.39a2.69 2.69 0 00-1.34 2.33v4.07a2.69 2.69 0 105.37 0v-2.52l33.35-19.26a2.69 2.69 0 005.34-.44v-4.19a2.68 2.68 0 00-1.34-2.32z" fill="#fff" opacity=".2"/><path d="M287.46 110.1v13.75a.54.54 0 00.32.44 1.69 1.69 0 001.52 0 .53.53 0 00.31-.44V110.1z" fill="#263238"/><path d="M287.46 110.1v13.75a.54.54 0 00.32.44 1.69 1.69 0 001.52 0 .53.53 0 00.31-.44V110.1z" fill="#fff" opacity=".4"/><path fill="#fca311" d="M274.45 72.29l29.01 16.76v33.5l-29.01-16.75V72.29z"/><path opacity=".1" d="M274.45 72.29l29.01 16.76v33.5l-29.01-16.75V72.29z"/><path fill="#fff" opacity=".1" d="M274.45 72.29l29.01 16.76v33.5l-29.01-16.75V72.29z"/><path d="M283.29 81.65v1.76l-2.93-1.7-.15 2.86c.31-.4.78-.45 1.46-.06a4.15 4.15 0 011.85 3.89v2.75c0 2-.86 2.6-2.52 1.65a5 5 0 01-2.5-4.55v-1l1.59.92v1.14A1.77 1.77 0 00281 91c.53.31.87.19.87-.7v-2.7a1.8 1.8 0 00-.87-1.72c-.53-.31-.87-.17-.87.71V87l-1.59-.91.32-7zm3.81 2.06a5.06 5.06 0 012.55 4.58v6.4c0 2-.91 2.57-2.56 1.62a5.06 5.06 0 01-2.55-4.58v-6.4c0-1.97.91-2.57 2.56-1.62zm.9 10.12v-6.64a1.81 1.81 0 00-.87-1.72c-.54-.31-.87-.17-.88.71v6.65a1.8 1.8 0 00.87 1.71c.54.31.87.18.88-.71m9.58.49a3.19 3.19 0 011.61 2.91v4c0 1.27-.57 1.65-1.62 1a3.18 3.18 0 01-1.62-2.91v-4c.05-1.23.57-1.61 1.63-1zm.53 6.42v-4.21a1.15 1.15 0 00-.54-1.1c-.36-.21-.56-.09-.56.46v4.22a1.14 1.14 0 00.55 1.09c.34.19.55.09.55-.46m-4.23-7.03c0 1.26-.57 1.64-1.63 1a3.22 3.22 0 01-1.61-2.91v-4c0-1.27.57-1.65 1.63-1a3.22 3.22 0 011.62 2.91zm-2.17-1.17a1.15 1.15 0 00.55 1.09c.33.19.55.09.55-.45v-4.23a1.16 1.16 0 00-.56-1.09c-.35-.21-.55-.09-.55.45v4.23m4.8-3.26l1 .57-4.26 9.88-1-.58 4.26-9.87zm-16.04 8.83l.86 6.82-.87-.51-.15-1.23-1.06-.61-.15 1.06-.79-.46.9-5.8zm-1.1 3.68l.83.48-.4-3.43-.41 3m3.23-2.5l-.02 5.42 1.42.82v.9l-2.29-1.32.02-6.31.87.49zm2.66 1.54l-.02 5.42 1.42.82v.9l-2.29-1.32.02-6.32.87.5zm3.87 2.24l-.01 6.32-.87-.5.02-6.32.86.5zm3.06 1.76l-.01.91-.9-.52-.02 5.4-.86-.5.02-5.4-.91-.53v-.9l2.68 1.54zm2.73 1.58v.91l-1.5-.87v1.76l1.18.69v.89l-1.19-.68v1.85l1.49.87v.89l-2.35-1.35.01-6.32 2.36 1.36zm4.16 2.4l-.02 6.31-.83-.47.02-4.53-.61 4.19-.81-.47-.62-4.83-.03 4.46-.75-.44.02-6.32 1.2.7.61 4.84.02.01.59-4.15 1.21.7z" fill="#fca311"/><path d="M283.29 81.65v1.76l-2.93-1.7-.15 2.86c.31-.4.78-.45 1.46-.06a4.15 4.15 0 011.85 3.89v2.75c0 2-.86 2.6-2.52 1.65a5 5 0 01-2.5-4.55v-1l1.59.92v1.14A1.77 1.77 0 00281 91c.53.31.87.19.87-.7v-2.7a1.8 1.8 0 00-.87-1.72c-.53-.31-.87-.17-.87.71V87l-1.59-.91.32-7zm3.81 2.06a5.06 5.06 0 012.55 4.58v6.4c0 2-.91 2.57-2.56 1.62a5.06 5.06 0 01-2.55-4.58v-6.4c0-1.97.91-2.57 2.56-1.62zm.9 10.12v-6.64a1.81 1.81 0 00-.87-1.72c-.54-.31-.87-.17-.88.71v6.65a1.8 1.8 0 00.87 1.71c.54.31.87.18.88-.71m9.58.49a3.19 3.19 0 011.61 2.91v4c0 1.27-.57 1.65-1.62 1a3.18 3.18 0 01-1.62-2.91v-4c.05-1.23.57-1.61 1.63-1zm.53 6.42v-4.21a1.15 1.15 0 00-.54-1.1c-.36-.21-.56-.09-.56.46v4.22a1.14 1.14 0 00.55 1.09c.34.19.55.09.55-.46m-4.23-7.03c0 1.26-.57 1.64-1.63 1a3.22 3.22 0 01-1.61-2.91v-4c0-1.27.57-1.65 1.63-1a3.22 3.22 0 011.62 2.91zm-2.17-1.17a1.15 1.15 0 00.55 1.09c.33.19.55.09.55-.45v-4.23a1.16 1.16 0 00-.56-1.09c-.35-.21-.55-.09-.55.45v4.23m4.8-3.26l1 .57-4.26 9.88-1-.58 4.26-9.87zm-16.04 8.83l.86 6.82-.87-.51-.15-1.23-1.06-.61-.15 1.06-.79-.46.9-5.8zm-1.1 3.68l.83.48-.4-3.43-.41 3m3.23-2.5l-.02 5.42 1.42.82v.9l-2.29-1.32.02-6.31.87.49zm2.66 1.54l-.02 5.42 1.42.82v.9l-2.29-1.32.02-6.32.87.5zm3.87 2.24l-.01 6.32-.87-.5.02-6.32.86.5zm3.06 1.76l-.01.91-.9-.52-.02 5.4-.86-.5.02-5.4-.91-.53v-.9l2.68 1.54zm2.73 1.58v.91l-1.5-.87v1.76l1.18.69v.89l-1.19-.68v1.85l1.49.87v.89l-2.35-1.35.01-6.32 2.36 1.36zm4.16 2.4l-.02 6.31-.83-.47.02-4.53-.61 4.19-.81-.47-.62-4.83-.03 4.46-.75-.44.02-6.32 1.2.7.61 4.84.02.01.59-4.15 1.21.7z" opacity=".5" fill="#fff"/><path d="M412.79 191.51a11.28 11.28 0 00-4.74 6.42 8.84 8.84 0 00-.37 2.41c0 .41.3.56.64.36a1.37 1.37 0 00.64-1.1 6.19 6.19 0 01.27-1.8 8.52 8.52 0 013.56-4.84 3.55 3.55 0 011.67-.5l-1.26-1.17zm-19.57-11.61a11.35 11.35 0 00-4.74 6.42 9.27 9.27 0 00-.36 2.41c0 .41.29.57.64.37a1.38 1.38 0 00.63-1.1 6.62 6.62 0 01.27-1.81 8.52 8.52 0 013.57-4.83 3.44 3.44 0 011.67-.51l-1.26-1.16a4.11 4.11 0 00-.42.21zm-26.44-15.74a11.31 11.31 0 00-4.74 6.42 8.49 8.49 0 00-.36 2.41c0 .41.29.57.63.37a1.39 1.39 0 00.64-1.1 6.26 6.26 0 01.27-1.81 8.46 8.46 0 013.56-4.83 3.47 3.47 0 011.67-.51l-1.26-1.11zm-19.57-9.7a11.29 11.29 0 00-4.73 6.42 8.89 8.89 0 00-.37 2.41c0 .41.29.57.64.37a1.38 1.38 0 00.63-1.1 6.62 6.62 0 01.27-1.81 8.52 8.52 0 013.57-4.83 3.44 3.44 0 011.67-.51l-1.26-1.16zm-26.34-16.74a11.29 11.29 0 00-4.74 6.42 8.81 8.81 0 00-.36 2.41c0 .41.29.56.64.36a1.39 1.39 0 00.63-1.1 6.55 6.55 0 01.27-1.8 8.58 8.58 0 013.57-4.84 3.41 3.41 0 011.67-.5l-1.26-1.17zM302 127.3a11.29 11.29 0 00-4.74 6.42 8.44 8.44 0 00-.36 2.41c0 .4.29.56.64.36a1.39 1.39 0 00.63-1.1 6.68 6.68 0 01.27-1.81 8.5 8.5 0 013.56-4.83 3.5 3.5 0 011.68-.51l-1.26-1.16z" fill="#e0e0e0"/><path d="M142.9 160.33l4.14 4c4.25-5.43 10-9.1 15-16.71 1.44-1.82 1.29-5.45 2.27-7.31.76-1.45 2.1-3.63 2.66-4.85a.82.82 0 011.19-.36c1.42 1 .67 3.49-.07 6.09-.88 3 3.7-1.08 4.32-1.78 2.9-2.7 5.4-9.32 7.38-8.66s.41 4 .41 4c1.82.38 1.13 3.29 1.13 3.29 1.08 1.9.78 4.84-1.44 7.56-1.6 2-6 4.7-8.21 6a7.4 7.4 0 00-2.36 2.23l-14.21 21.11a8.61 8.61 0 01-12.36 2.06l-7.75-5.74z" fill="#ffa8a7"/><path d="M118.85 141.69c7.87-.35 18.55 12.42 24.57 18.44-.46 7.36-8.39 12.19-8.39 12.19a171.84 171.84 0 01-16.18-12.65z" fill="#fca311"/><path d="M118.85 141.69c7.87-.35 18.55 12.42 24.57 18.44-.46 7.36-8.39 12.19-8.39 12.19a171.84 171.84 0 01-16.18-12.65z" fill="#fff" opacity=".3"/><path d="M122.94 309.23c-.14 3.35 0 7.28 0 7.28l-1.94.11a4.69 4.69 0 00-4.17 3.1v.12a1.85 1.85 0 01-2.28 1.13 1.88 1.88 0 01-1.11-1l-1-8.4z" fill="#ffa8a7"/><path d="M125.8 338.37c5.09 2.18 12.89 2.6 16.13-2.6v1.41c-3.24 5.2-11 4.78-16.13 2.6s-4-5.73-8.55-7.64a12.37 12.37 0 01-4.45-2.81c0-.42-.09-.94-.16-1.54a15.33 15.33 0 004.61 2.94c4.57 1.91 3.45 5.47 8.55 7.64z" fill="#37474f"/><path d="M112.64 323.17a7.3 7.3 0 000-3 1.59 1.59 0 01.23-1.34l.38-.37.18 1.55a1.88 1.88 0 001.11 1 1.85 1.85 0 002.28-1.13v-.12a4.69 4.69 0 014.17-3.1l2-.11a1.43 1.43 0 011.39.87c2 4.91 7.14 10.35 11.08 12.85 2.9-.07 6.48 2.33 6.48 5.25v.29c-3.24 5.2-11 4.78-16.13 2.6s-4-5.73-8.55-7.64a15.33 15.33 0 01-4.61-2.94 16.07 16.07 0 01-.01-4.66z" fill="#fca311"/><path d="M122.5 327.19a.65.65 0 01-1-.81 7.38 7.38 0 016.65-2.92c.28.34.55.67.84 1a7.1 7.1 0 00-6.49 2.73zm-2.01-2.25a.63.63 0 01-.9.08.64.64 0 01-.11-.89 7.77 7.77 0 016.94-3c.25.36.5.72.77 1.08a7.2 7.2 0 00-6.7 2.73zm4.1 4.45a.65.65 0 01-1-.81 7.35 7.35 0 016.48-2.93c.33.34.66.68 1 1a7.12 7.12 0 00-6.48 2.74zm10.86.84c2.9-.07 6.48 2.33 6.48 5.25v.29c-3.19 5.13-10.8 4.79-15.9 2.69.39-7 7.11-8.26 9.42-8.23zm-8.71 1.26a.66.66 0 01-.91.08.64.64 0 01-.1-.89 7.34 7.34 0 016.49-2.93c.41.36.81.7 1.21 1a7.16 7.16 0 00-6.69 2.74z" fill="#fff"/><path d="M95.86 315.42c-.14 3.35 0 7.29 0 7.29l-1.94.1a4.72 4.72 0 00-4.17 3.1v.13a1.83 1.83 0 01-2.27 1.12 1.85 1.85 0 01-1.11-1l-1-8.4z" fill="#ffa8a7"/><path d="M98.72 344.57c5.09 2.17 12.89 2.6 16.13-2.6v1.4c-3.24 5.21-11 4.78-16.13 2.61s-4-5.74-8.55-7.65a12.32 12.32 0 01-4.46-2.81c0-.41-.08-.93-.15-1.53a15.52 15.52 0 004.61 2.94c4.57 1.91 3.45 5.46 8.55 7.64z" fill="#37474f"/><path d="M85.56 329.37a7.35 7.35 0 000-3 1.57 1.57 0 01.23-1.33l.38-.38.18 1.55a1.85 1.85 0 001.11 1A1.83 1.83 0 0089.7 326v-.13a4.72 4.72 0 014.17-3.1l2-.11a1.43 1.43 0 011.4.88c2 4.9 7.14 10.35 11.08 12.84 2.9-.06 6.48 2.34 6.48 5.26v.36c-3.24 5.2-11 4.77-16.13 2.6s-4-5.73-8.55-7.64a15.52 15.52 0 01-4.59-2.96 16.07 16.07 0 010-4.63z" fill="#fca311"/><path d="M95.42 333.39a.65.65 0 01-.9.08.64.64 0 01-.11-.89 7.38 7.38 0 016.65-2.92c.28.33.55.66.84 1a7.13 7.13 0 00-6.48 2.73zm-2.01-2.25a.65.65 0 01-.9.08.64.64 0 01-.11-.89 7.77 7.77 0 016.94-3c.25.37.5.73.77 1.09a7.18 7.18 0 00-6.7 2.72zm4.09 4.45a.64.64 0 01-.9.08.64.64 0 01-.1-.89 7.39 7.39 0 016.48-2.94c.32.35.66.68 1 1a7.12 7.12 0 00-6.48 2.75zm10.87.83c2.9-.06 6.48 2.34 6.48 5.26v.32c-3.19 5.12-10.81 4.78-15.9 2.69.39-7.03 7.11-8.29 9.42-8.27zm-8.72 1.27a.64.64 0 01-.9.08.64.64 0 01-.1-.89 7.35 7.35 0 016.49-2.94c.41.36.81.7 1.21 1a7.19 7.19 0 00-6.7 2.75z" fill="#fff"/><path d="M129.53 203.53l-.95 65-3.07 45.51c-7.76 4.91-15.79.26-15.79.26-3-21.56-3.06-34.89-1.46-43.86l-.94-34.72-1.54 35.9-7.3 46c-8 5.16-16.63-.16-16.63-.16 0-16.53-1.7-36.17 2.85-48.08-3.21-36.83 2.2-65.13 2.2-65.13z" fill="#37474f"/><path d="M110.53 222.67l-3.21 13.06.45 16.77 4.82-27c6.93-2.71 7.83-6.53 7.83-6.53a21.24 21.24 0 01-9.89 3.7z" opacity=".3"/><path d="M90 148c11.26-5.28 19.71-5.89 28.92-6.29 13.78 8.87 8.62 16.26 8.39 28.12a163.83 163.83 0 004.25 38.72c-18.06 14.43-42 11-47.43 7.57 1.26-35.3-.29-65.6 5.87-68.12z" fill="#fca311"/><path d="M90 148c11.26-5.28 19.71-5.89 28.92-6.29 13.78 8.87 8.62 16.26 8.39 28.12a163.83 163.83 0 004.25 38.72c-18.06 14.43-42 11-47.43 7.57 1.26-35.3-.29-65.6 5.87-68.12z" fill="#fff" opacity=".6"/><path d="M124.16 124.26a9.37 9.37 0 002.61-12.38 5 5 0 002.47-2.33 2.72 2.72 0 00-3.54-3.63 3.81 3.81 0 00-1.53-4.47 3.6 3.6 0 00-4.49.83 2.46 2.46 0 00-1.68-2.41 4.92 4.92 0 00-3.12.2c-1 .34-2 .84-3 1.16a22.93 22.93 0 01-5.31.68 10.64 10.64 0 00-5.12 1.36c-1.51 1-2.83 3.25-2 5.2a3 3 0 00-2.13-1.13 2.92 2.92 0 00-2.19.93c1.12.69 2.2 1.44 3.32 2.13a3 3 0 00-3.41 1.36 6.78 6.78 0 00-.6 3.6 48 48 0 002.47 13.78c.76 2.29 2.88 6.19 5.06 7.25z" fill="#263238"/><path d="M124.18 112.14a11.93 11.93 0 01-7.9 3.32c-2.78 0-5.47-.89-8.15-1.62a6.17 6.17 0 01-1.84 3.4 7 7 0 01-3.79 1.65 24 24 0 010 7.57 1.41 1.41 0 01-1 1.16c-.9.26-1.5-.66-1.94-1.41a6.11 6.11 0 00-1.94-2.21 3 3 0 00-2.83-.29 3 3 0 00-1.49 1.82 5.5 5.5 0 00-.12 2.39 7.36 7.36 0 001.56 3.67 4.94 4.94 0 003.48 1.79 3.56 3.56 0 003.35-1.65l.06.25a11.37 11.37 0 00.37 1.17 10 10 0 007.31 6.26c1.7.35 3.59.69 5.51 1 .94.14 1.89.27 2.84.39a6.87 6.87 0 007.57-5.61c1.29-7.29 1.77-15.81-1.05-23.05z" fill="#ffa8a7"/><path d="M102 133.18v12.74a14 14 0 0010.25 5.68 5 5 0 003.69-.94 3 3 0 00-.38-4.73 1.62 1.62 0 01-.74-1.36v-4.14c-1.92-.3-3.81-.64-5.51-1a10 10 0 01-7.31-6.25z" fill="#ffa8a7"/><path d="M110.51 142.24a27.41 27.41 0 004.31.77v-2.58c-1.92-.3-3.81-.64-5.51-1a10 10 0 01-7.06-5.71 10.09 10.09 0 002.58 5.33 12.11 12.11 0 005.68 3.19zm7.29-19.21l4.68 5.67-4.29 1.51-.39-7.18z" fill="#f28f8f"/><path d="M111.19 123.74a1.28 1.28 0 001.28 1.29 1.27 1.27 0 001.29-1.27 1.28 1.28 0 00-1.27-1.3 1.3 1.3 0 00-1.3 1.28zm10.81-.35a1.28 1.28 0 001.28 1.29 1.28 1.28 0 000-2.56 1.28 1.28 0 00-1.28 1.27zm-.69-5.7l3.44.39a1.84 1.84 0 00-1.45-1.51 2.15 2.15 0 00-1.99 1.12zm-7.68 0l-3.32 1a1.84 1.84 0 011.15-1.75 2.19 2.19 0 012.17.75z" fill="#263238"/><path d="M112.87 132.07l3.59 1.75a2.35 2.35 0 01-2.72.77 2.12 2.12 0 01-.87-2.52z" fill="#f28f8f"/><path d="M112.87 132.07l3.59 1.75a2.35 2.35 0 01-2.72.77 2.12 2.12 0 01-.87-2.52z" opacity=".3"/><path d="M115 134.71a2.08 2.08 0 01-1.24-.12 1.91 1.91 0 01-1-1.89 2.17 2.17 0 012.2 2z" fill="#f28f8f"/><path d="M80.14 221.48l-15.91-27.92a11.25 11.25 0 01-.28-9.39l8.85-20.81a27.06 27.06 0 0115.41-14.75l2.23-.84c1.27 12.48-2.5 18.49-13.92 40.17 0 0 6 20.21 10.72 29.2a34.06 34.06 0 0110.06 7.3 1.83 1.83 0 01.1 2.4 1.7 1.7 0 01-2.1.46c-1.53-.79-3.06-1.61-4.59-2.39a49.18 49.18 0 006 9.88 1.87 1.87 0 01-.12 2.43 1.86 1.86 0 01-1.64.57l-5-.74a9 9 0 01-6.76-4.94 30.75 30.75 0 01-3.05-10.63z" fill="#ffa8a7"/><path d="M90.44 147.77c-9.68 3.32-15.16 5.53-22.84 26.37 3.84 5.94 14.43 5.14 14.43 5.14 13.76-20.77 8.41-31.51 8.41-31.51z" fill="#fca311"/><path d="M90.44 147.77c-9.68 3.32-15.16 5.53-22.84 26.37 3.84 5.94 14.43 5.14 14.43 5.14 13.76-20.77 8.41-31.51 8.41-31.51z" fill="#fff" opacity=".3"/><path fill="#f0f0f0" d="M235.94 295.93l-42.95-24.8-42.68 24.8 42.95 24.8 42.68-24.8z"/><path fill="#e6e6e6" d="M193.26 320.73l-.11 38.98 42.68-24.8.11-38.98-42.68 24.8z"/><path fill="#e0e0e0" d="M150.31 295.93l-.11 38.98 42.95 24.8.11-38.98-42.95-24.8z"/><path fill="#fff" d="M176.22 280.87l-8.31 4.83 42.95 24.8 8.32-4.82-42.96-24.81z"/><path fill="#f5f5f5" d="M219.18 320.73l-8.32 4.83V310.5l8.32-4.82v15.05zm0 23.83l-8.32 4.83v-9.94l8.32-4.83v9.94z"/><path opacity=".14" d="M192.99 271.13l-16.77 9.74-5.8 3.37-20.11 11.69-.11 38.98 42.95 24.8 42.68-24.8.11-38.98-42.95-24.8z"/><path fill="#455a64" d="M259.38 253.79v84.17l-2.97-1.72v-84.17l2.97 1.72z"/><path fill="#37474f" d="M259.38 253.79v84.17l2.98-1.72v-84.17l-2.98 1.72z"/><path fill="#455a64" d="M256.41 276.24l-69.67-40.22v-3.2l69.67 40.22v3.2z"/><path fill="#37474f" d="M256.41 269.66l-66.69-38.56-2.98 1.72 69.67 40.22v-3.38z"/><path fill="#455a64" d="M49.13 291.39v84.17l-2.98-1.72v-84.17l2.98 1.72z"/><path fill="#37474f" d="M49.13 291.39v84.17l2.97-1.72v-84.17l-2.97 1.72z"/><path fill="#455a64" d="M121.77 333.34v84.17l-2.98-1.72v-84.17l2.98 1.72z"/><path fill="#37474f" d="M121.77 333.34v84.17l2.97-1.72v-84.17l-2.97 1.72z"/><path fill="#455a64" d="M118.79 355.79l-69.66-40.22v-3.2l69.66 40.22v3.2z"/><path fill="#37474f" d="M118.79 349.21L52.1 310.65l-2.97 1.72 69.66 40.22v-3.38z"/><g opacity=".2" fill="#fff"><path d="M49.13 291.39v84.17l-2.98-1.72v-84.17l2.98 1.72zm0 0v84.17l2.97-1.72v-84.17l-2.97 1.72zm72.64 41.95v84.17l-2.98-1.72v-84.17l2.98 1.72zm0 0v84.17l2.97-1.72v-84.17l-2.97 1.72z"/><path d="M118.79 355.79l-69.66-40.22v-3.2l69.66 40.22v3.2zm0-6.58L52.1 310.65l-2.97 1.72 69.66 40.22v-3.38z"/></g><g opacity=".2" fill="#fff"><path d="M259.38 253.79v84.17l-2.97-1.72v-84.17l2.97 1.72zm0 0v84.17l2.98-1.72v-84.17l-2.98 1.72z"/><path d="M256.41 276.24l-69.67-40.22v-3.2l69.67 40.22v3.2zm0-6.58l-66.69-38.56-2.98 1.72 69.67 40.22v-3.38z"/></g><path fill="#455a64" d="M121.77 325.22l140.59-81.03-75.61-43.68-140.6 81.03 75.62 43.68z"/><path fill="#455a64" d="M121.77 333.34l140.59-81.27v-7.88l-140.59 81.03v8.12zm0-8.13l-75.62-43.68v8.14l75.62 43.67v-8.13z"/><path fill="#fff" opacity=".3" d="M121.77 325.22l140.59-81.03-75.61-43.68-140.6 81.03 75.62 43.68z"/><path fill="#fff" opacity=".1" d="M121.77 325.21l-75.62-43.68v8.14l75.62 43.67v-8.13z"/><path fill="#fff" opacity=".2" d="M121.77 333.34l140.59-81.27v-7.88l-140.59 81.03v8.12z"/><path opacity=".32" d="M186.75 200.51L46.16 281.54l-.01-.01v8.14l75.62 43.67 140.59-81.27v-7.88l-75.61-43.68z"/><path d="M120.6 308.56c.4.36.81.7 1.21 1s1 .76 1.45 1.08a7.39 7.39 0 00-2.66-2.08z" fill="none"/><path d="M144.76 304.85a10.33 10.33 0 00-3.29-2.3 39 39 0 00-6.71-2.6 14.35 14.35 0 00-8.14-4.59 14.88 14.88 0 00-9.36 1.33 26.39 26.39 0 01-3.48 1.76 28.5 28.5 0 01-5.24.72 14.2 14.2 0 00-7.44 3.45 1.06 1.06 0 00.06 1.65 14.53 14.53 0 003.55 1.88c4.78 1.91 3.62 5.47 9 7.64 4.77 1.95 11.8 2.49 15.66-1.13a3.91 3.91 0 001.23-2.88c4.75 1.47 10.9 1.52 14.29-2a2 2 0 00.27-2.47 4.5 4.5 0 00-.4-.46zm-40.48-24.45a10.36 10.36 0 00-3.29-2.31 39 39 0 00-6.71-2.59 14.42 14.42 0 00-8.14-4.6 14.78 14.78 0 00-9.35 1.34A25.86 25.86 0 0173.3 274a27.68 27.68 0 01-5.24.73 14.18 14.18 0 00-7.44 3.44 1.07 1.07 0 00.06 1.66 14.53 14.53 0 003.55 1.88c4.78 1.91 3.62 5.46 9 7.64 4.77 1.94 11.8 2.49 15.66-1.13a3.92 3.92 0 001.23-2.88c4.76 1.46 10.9 1.52 14.29-2a2 2 0 00.27-2.47 3.7 3.7 0 00-.4-.47zm72.72 8a10.29 10.29 0 00-3.29-2.31 40 40 0 00-6.7-2.59 14.34 14.34 0 00-8.15-4.59 14.86 14.86 0 00-9.35 1.33A27 27 0 01146 282a28.5 28.5 0 01-5.24.72 14.15 14.15 0 00-7.45 3.45 1.07 1.07 0 00.06 1.65 14.43 14.43 0 003.56 1.88c4.78 1.91 3.61 5.47 9 7.64 4.77 2 11.8 2.49 15.66-1.13a4 4 0 001.23-2.88c4.75 1.47 10.89 1.52 14.28-2a2 2 0 00.28-2.47 3.46 3.46 0 00-.38-.46zm-53.43-21.71q-4.75-3.51-9.74-6.69a22.51 22.51 0 00-6.07-2.54l-8.2 3a10.06 10.06 0 006.29 4.37 11.63 11.63 0 006.88 6.71 20.9 20.9 0 009.81 1 6.25 6.25 0 001.87-.4 2.3 2.3 0 001-3.68 7.34 7.34 0 00-1.84-1.77zm13.37-4.35a7.34 7.34 0 00-1.86-1.74q-4.76-3.51-9.74-6.69a22.57 22.57 0 00-6.08-2.54l-8.19 3a10.06 10.06 0 006.29 4.37 11.63 11.63 0 006.88 6.71 20.89 20.89 0 009.81 1 6.5 6.5 0 001.86-.4 2.51 2.51 0 001.38-1.26 2.58 2.58 0 00-.35-2.45zm55.37 12.29q-4.76-3.51-9.74-6.69a22.44 22.44 0 00-6.08-2.54l-8.19 3a10.06 10.06 0 006.29 4.37 11.63 11.63 0 006.88 6.71 20.9 20.9 0 009.81 1 6.12 6.12 0 001.86-.4 2.57 2.57 0 001.39-1.26 2.61 2.61 0 00-.36-2.42 7.34 7.34 0 00-1.86-1.77zm13.37-4.35a7.51 7.51 0 00-1.86-1.74q-4.75-3.51-9.74-6.69a22.57 22.57 0 00-6.08-2.54l-8.19 3a10 10 0 006.29 4.37 11.63 11.63 0 006.88 6.71 20.89 20.89 0 009.81 1 6.25 6.25 0 001.86-.4 2.51 2.51 0 001.35-1.29 2.6 2.6 0 00-.32-2.42zm-71.54-23.79c2.06 2.69 3.92 5.69 6.81 7.46a13.83 13.83 0 007 1.84 33.53 33.53 0 007.25-.84 6.84 6.84 0 002.05-.66 2.4 2.4 0 001.25-1.68 3.18 3.18 0 00-1.14-2.46c-2.95-3.07-7.12-4.65-10.4-7.35-2-1.67-3.69-3.76-5.87-5.2a12.75 12.75 0 00-10.24-1.6c-1.32.36-4 1.17-4.33 2.75-.35 1.74 2 2.56 3.08 3.26a17.9 17.9 0 014.54 4.48zm15.3-6.95c2.06 2.7 3.91 5.69 6.81 7.46a13.81 13.81 0 007 1.85 33.47 33.47 0 007.25-.85 6.71 6.71 0 002.06-.66 2.38 2.38 0 001.25-1.68 3.21 3.21 0 00-1.15-2.46c-2.94-3.07-7.11-4.64-10.39-7.35-2-1.66-3.69-3.75-5.88-5.19a12.73 12.73 0 00-10.22-1.56c-1.33.36-4 1.17-4.33 2.74-.36 1.74 2 2.56 3.07 3.26a18 18 0 014.53 4.44z" opacity=".2"/><path d="M75.58 263.41l-.18-1.55c3.08-3.58 9.19-.62 9.19-.62v3.26l-9.19.6z" fill="#e0e0e0"/><path d="M75.58 263.41l-.18-1.55c3.08-3.58 9.19-.62 9.19-.62v3.26l-9.19.6z" opacity=".2"/><path d="M88 281.77c5.09 2.18 12.89 2.6 16.13-2.6v1.41c-3.24 5.2-11 4.77-16.13 2.6s-4-5.73-8.55-7.64a12.42 12.42 0 01-4.45-2.82c0-.41-.08-.93-.15-1.53a15.33 15.33 0 004.61 2.94C84 276 82.88 279.6 88 281.77z" fill="#f5f5f5"/><path d="M74.82 266.57a7.36 7.36 0 000-3 1.58 1.58 0 01.23-1.33l.38-.37.18 1.55a1.88 1.88 0 001.11 1 1.84 1.84 0 002.28-1.18l.05-.12a4.69 4.69 0 014.17-3.1l2-.11a1.41 1.41 0 011.4.87c2 4.91 7.14 10.35 11.08 12.85 2.9-.07 6.48 2.33 6.48 5.25v.29c-3.24 5.2-11 4.78-16.13 2.6s-4-5.73-8.55-7.64a15.33 15.33 0 01-4.61-2.94 16.07 16.07 0 01-.07-4.62z" fill="#e0e0e0"/><path d="M84.68 270.59a.65.65 0 01-1-.81 7.38 7.38 0 016.65-2.92c.28.34.55.67.84 1a7.13 7.13 0 00-6.49 2.73zm-2.01-2.25a.65.65 0 01-1-.81 7.76 7.76 0 016.94-3c.25.36.5.72.77 1.08a7.2 7.2 0 00-6.71 2.73zm4.1 4.45a.66.66 0 01-.91.08.64.64 0 01-.1-.89 7.39 7.39 0 016.48-2.98c.32.35.66.69 1 1a7.1 7.1 0 00-6.47 2.79zm10.86.84c2.9-.07 6.48 2.33 6.48 5.25v.29c-3.19 5.12-10.81 4.78-15.9 2.69.39-7 7.11-8.26 9.42-8.23zm-8.72 1.26a.64.64 0 01-.9.08.64.64 0 01-.1-.89 7.38 7.38 0 016.49-2.94c.41.37.81.71 1.21 1a7.18 7.18 0 00-6.7 2.75z" fill="#fff"/><path d="M61 268l-.18-1.55c3.07-3.58 9.19-.62 9.19-.62v3.26l-9.19.6z" fill="#e0e0e0"/><path d="M61 268l-.18-1.55c3.07-3.58 9.19-.62 9.19-.62v3.26l-9.19.6z" opacity=".2"/><path d="M73.41 286.36c5.1 2.18 12.9 2.6 16.13-2.6v1.41c-3.23 5.2-11 4.77-16.13 2.6s-4-5.73-8.54-7.64a12.42 12.42 0 01-4.46-2.82c0-.41-.09-.93-.16-1.53a15.74 15.74 0 004.62 2.94c4.56 1.91 3.45 5.46 8.54 7.64z" fill="#f5f5f5"/><path d="M60.25 271.16a7.61 7.61 0 000-3 1.58 1.58 0 01.23-1.33l.38-.37L61 268a1.85 1.85 0 001.11 1 1.84 1.84 0 002.27-1.13v-.12a4.71 4.71 0 014.17-3.1l2-.11a1.4 1.4 0 011.39.87c2 4.91 7.15 10.35 11.09 12.85 2.89-.07 6.47 2.33 6.47 5.25v.29c-3.23 5.2-11 4.78-16.13 2.6s-4-5.73-8.54-7.64a15.74 15.74 0 01-4.62-2.94 16.83 16.83 0 01.04-4.66z" fill="#e0e0e0"/><path d="M70.11 275.18a.64.64 0 01-.9.08.64.64 0 01-.1-.89 7.37 7.37 0 016.65-2.92c.27.33.55.67.83 1a7.13 7.13 0 00-6.48 2.73zm-2.01-2.25a.64.64 0 01-1-.81 7.78 7.78 0 016.94-3c.24.37.5.73.76 1.09a7.2 7.2 0 00-6.7 2.72zm4.1 4.45a.65.65 0 01-1-.81 7.4 7.4 0 016.48-2.94c.33.35.66.68 1 1a7.11 7.11 0 00-6.48 2.75zm10.87.84c2.89-.07 6.47 2.33 6.47 5.25v.29c-3.19 5.12-10.8 4.78-15.9 2.69.36-7 7.12-8.26 9.43-8.23zm-8.72 1.26a.64.64 0 01-.9.08.64.64 0 01-.11-.89 7.4 7.4 0 016.5-2.94c.4.37.81.71 1.21 1a7.16 7.16 0 00-6.7 2.75z" fill="#fff"/><path d="M148.27 271.47l-.18-1.55c3.07-3.58 9.19-.62 9.19-.62v3.27l-9.19.59z" fill="#455a64"/><path d="M148.27 271.47l-.18-1.55c3.07-3.58 9.19-.62 9.19-.62v3.27l-9.19.59z" opacity=".1"/><path d="M160.66 289.83c5.1 2.18 12.9 2.6 16.13-2.6v1.41c-3.23 5.2-11 4.78-16.13 2.6s-4-5.73-8.54-7.64a12.32 12.32 0 01-4.46-2.81c0-.42-.09-.94-.16-1.54a15.34 15.34 0 004.62 2.94c4.56 1.91 3.45 5.47 8.54 7.64z" fill="#e6e6e6"/><path d="M147.5 274.63a7.3 7.3 0 000-3 1.61 1.61 0 01.24-1.33l.38-.38.18 1.55a1.83 1.83 0 003.38-.17v-.12a4.71 4.71 0 014.17-3.1l2-.11a1.43 1.43 0 011.39.88c2 4.9 7.15 10.35 11.09 12.84 2.89-.07 6.47 2.34 6.47 5.25v.29c-3.23 5.2-11 4.78-16.13 2.6s-4-5.73-8.54-7.64a15.34 15.34 0 01-4.62-2.94 16.83 16.83 0 01-.01-4.62z" fill="#455a64"/><path d="M147.5 274.63a7.3 7.3 0 000-3 1.61 1.61 0 01.24-1.33l.38-.38.18 1.55a1.83 1.83 0 003.38-.17v-.12a4.71 4.71 0 014.17-3.1l2-.11a1.43 1.43 0 011.39.88c2 4.9 7.15 10.35 11.09 12.84 2.89-.07 6.47 2.34 6.47 5.25v.29c-3.23 5.2-11 4.78-16.13 2.6s-4-5.73-8.54-7.64a15.34 15.34 0 01-4.62-2.94 16.83 16.83 0 01-.01-4.62z" fill="#fff" opacity=".3"/><path d="M157.36 278.65a.64.64 0 01-.9.09.65.65 0 01-.1-.9 7.37 7.37 0 016.65-2.92c.27.34.55.67.83 1a7.12 7.12 0 00-6.48 2.73zm-2.01-2.24a.64.64 0 01-.9.08.64.64 0 01-.1-.89 7.73 7.73 0 016.94-3c.24.36.5.72.76 1.08a7.19 7.19 0 00-6.7 2.73zm4.1 4.44a.63.63 0 01-.9.08.65.65 0 01-.11-.89 7.36 7.36 0 016.48-2.93c.33.34.66.68 1 1a7.13 7.13 0 00-6.47 2.74zm10.87.84c2.89-.07 6.47 2.34 6.47 5.25v.29c-3.19 5.13-10.8 4.79-15.9 2.7.4-7 7.11-8.27 9.43-8.24zM161.6 283a.65.65 0 01-1-.81 7.39 7.39 0 016.5-2.93c.4.36.81.7 1.21 1a7.2 7.2 0 00-6.71 2.74z" fill="#fff"/><path d="M133.71 276.06l-.19-1.55c3.08-3.58 9.19-.62 9.19-.62v3.27l-9.19.59z" fill="#455a64"/><path d="M133.71 276.06l-.19-1.55c3.08-3.58 9.19-.62 9.19-.62v3.27l-9.19.59z" opacity=".1"/><path d="M146.1 294.42c5.09 2.18 12.89 2.6 16.13-2.6v1.41c-3.24 5.2-11 4.78-16.13 2.6s-4-5.73-8.55-7.64a12.22 12.22 0 01-4.45-2.81c0-.42-.09-.94-.16-1.54a15.46 15.46 0 004.61 2.94c4.57 1.91 3.45 5.47 8.55 7.64z" fill="#e6e6e6"/><path d="M132.94 279.22a7.3 7.3 0 000-3 1.64 1.64 0 01.23-1.34l.38-.37.19 1.55a1.83 1.83 0 001.1 1 1.85 1.85 0 002.28-1.13v-.12a4.69 4.69 0 014.17-3.1l2-.11a1.43 1.43 0 011.39.88c2 4.9 7.14 10.35 11.08 12.84 2.9-.07 6.48 2.33 6.48 5.25v.29c-3.24 5.2-11 4.78-16.13 2.6s-4-5.73-8.55-7.64a15.46 15.46 0 01-4.61-2.94 16.44 16.44 0 01-.01-4.66z" fill="#455a64"/><path d="M132.94 279.22a7.3 7.3 0 000-3 1.64 1.64 0 01.23-1.34l.38-.37.19 1.55a1.83 1.83 0 001.1 1 1.85 1.85 0 002.28-1.13v-.12a4.69 4.69 0 014.17-3.1l2-.11a1.43 1.43 0 011.39.88c2 4.9 7.14 10.35 11.08 12.84 2.9-.07 6.48 2.33 6.48 5.25v.29c-3.24 5.2-11 4.78-16.13 2.6s-4-5.73-8.55-7.64a15.46 15.46 0 01-4.61-2.94 16.44 16.44 0 01-.01-4.66z" fill="#fff" opacity=".3"/><path d="M142.8 283.24a.63.63 0 01-.9.08.64.64 0 01-.11-.89 7.39 7.39 0 016.66-2.92c.27.34.54.67.83 1a7.12 7.12 0 00-6.48 2.73zm-2.01-2.24a.64.64 0 01-.9.09.65.65 0 01-.11-.9 7.77 7.77 0 016.94-3l.77 1.08a7.2 7.2 0 00-6.7 2.73zm4.1 4.44a.65.65 0 01-1-.81 7.35 7.35 0 016.48-2.93c.33.34.66.68 1 1a7.12 7.12 0 00-6.48 2.74zm10.86.84c2.9-.07 6.48 2.33 6.48 5.25v.29c-3.19 5.13-10.8 4.79-15.9 2.7.39-7 7.11-8.27 9.42-8.24zm-8.75 1.26a.65.65 0 01-1-.81 7.38 7.38 0 016.49-2.93c.41.36.81.7 1.22 1a7.2 7.2 0 00-6.71 2.74z" fill="#fff"/><path d="M181.5 246.62c1.27-3.08 5-1.63 6.73 1.08a180.21 180.21 0 0012.4 16.3c3.3 3.53-5.58 4.93-8.78 2.49s-3.2-5.52-5.55-9.08-4.84-6.24-5.14-7.89a5.11 5.11 0 01.34-2.9z" fill="#fca311"/><path d="M181.5 246.62c1.27-3.08 5-1.63 6.73 1.08a180.21 180.21 0 0012.4 16.3c3.3 3.53-5.58 4.93-8.78 2.49s-3.2-5.52-5.55-9.08-4.84-6.24-5.14-7.89a5.11 5.11 0 01.34-2.9z" opacity=".3"/><path d="M185.27 261.27l-.68 4.06a10.18 10.18 0 01-4.25-3.26c-.08-3.11 0-6.31 0-7.87.86 1.89 2.73 3.17 3.89 4.92a9.77 9.77 0 011.04 2.15z" fill="#fca311"/><path d="M185.27 261.27l-.68 4.06a10.18 10.18 0 01-4.25-3.26c-.08-3.11 0-6.31 0-7.87.86 1.89 2.73 3.17 3.89 4.92a9.77 9.77 0 011.04 2.15z" opacity=".1"/><path d="M186.3 264.89l-1.71.44.68-4.06c.42 1.17.73 2.41 1.03 3.62z" fill="#fca311"/><path d="M186.3 264.89l-1.71.44.68-4.06c.42 1.17.73 2.41 1.03 3.62z" opacity=".2"/><path d="M180.17 249.71a16.19 16.19 0 011.33-3.09 8.84 8.84 0 001.49 4.67c1.15 1.86 2.7 3.47 3.81 5.36 1.35 2.31 2 5 3.83 7a8.43 8.43 0 007 2.73 3.7 3.7 0 002.56-1.15 2 2 0 00.43-1.23 17.83 17.83 0 002.89 2.53c1.17.82 2.57 1.68 2.76 3.09a3 3 0 01-1.68 2.88 8 8 0 01-3.42.76 21.67 21.67 0 01-7.53-.64 10.5 10.5 0 01-6-4.36 13.62 13.62 0 01-1.34-3.39c-.33-1.21-.61-2.45-1-3.62a9.77 9.77 0 00-1.06-2.15c-1.16-1.75-3-3-3.89-4.92 0-.1-.1-.2-.14-.3a6.67 6.67 0 01-.04-4.17z" fill="#fca311"/><path d="M180.17 249.71a16.19 16.19 0 011.33-3.09 8.84 8.84 0 001.49 4.67c1.15 1.86 2.7 3.47 3.81 5.36 1.35 2.31 2 5 3.83 7a8.43 8.43 0 007 2.73 3.7 3.7 0 002.56-1.15 2 2 0 00.43-1.23 17.83 17.83 0 002.89 2.53c1.17.82 2.57 1.68 2.76 3.09a3 3 0 01-1.68 2.88 8 8 0 01-3.42.76 21.67 21.67 0 01-7.53-.64 10.5 10.5 0 01-6-4.36 13.62 13.62 0 01-1.34-3.39c-.33-1.21-.61-2.45-1-3.62a9.77 9.77 0 00-1.06-2.15c-1.16-1.75-3-3-3.89-4.92 0-.1-.1-.2-.14-.3a6.67 6.67 0 01-.04-4.17z" fill="#fff" opacity=".1"/><path d="M170.55 252.52c1.27-3.07 5-1.63 6.73 1.08a180.26 180.26 0 0012.4 16.33c3.3 3.53-5.57 4.92-8.78 2.49s-3.2-5.52-5.55-9.08-4.84-6.24-5.13-7.9a5.08 5.08 0 01.33-2.92z" fill="#fca311"/><path d="M170.55 252.52c1.27-3.07 5-1.63 6.73 1.08a180.26 180.26 0 0012.4 16.33c3.3 3.53-5.57 4.92-8.78 2.49s-3.2-5.52-5.55-9.08-4.84-6.24-5.13-7.9a5.08 5.08 0 01.33-2.92z" opacity=".3"/><path d="M174.32 267.18l-.68 4.05a10.09 10.09 0 01-4.25-3.26c-.08-3.11 0-6.31 0-7.87.86 1.9 2.73 3.17 3.9 4.92a9.59 9.59 0 011.03 2.16z" fill="#fca311"/><path d="M174.32 267.18l-.68 4.05a10.09 10.09 0 01-4.25-3.26c-.08-3.11 0-6.31 0-7.87.86 1.9 2.73 3.17 3.9 4.92a9.59 9.59 0 011.03 2.16z" opacity=".1"/><path d="M175.35 270.79l-1.71.44.68-4.05c.42 1.16.68 2.4 1.03 3.61z" fill="#fca311"/><path d="M175.35 270.79l-1.71.44.68-4.05c.42 1.16.68 2.4 1.03 3.61z" opacity=".2"/><path d="M169.22 255.61a16.19 16.19 0 011.33-3.09 8.84 8.84 0 001.49 4.67c1.16 1.87 2.7 3.47 3.81 5.37 1.36 2.3 2.06 5 3.83 7a8.4 8.4 0 007 2.73 3.73 3.73 0 002.57-1.15 2.07 2.07 0 00.42-1.22 19.34 19.34 0 002.89 2.53c1.17.81 2.57 1.67 2.76 3.09a3 3 0 01-1.68 2.87 7.81 7.81 0 01-3.42.76 21.67 21.67 0 01-7.53-.64 10.4 10.4 0 01-6-4.36 13.49 13.49 0 01-1.35-3.39c-.33-1.21-.61-2.45-1-3.61a9.59 9.59 0 00-1-2.16c-1.17-1.75-3-3-3.9-4.92 0-.1-.1-.19-.14-.3a6.74 6.74 0 01-.08-4.18z" fill="#fca311"/><path d="M169.22 255.61a16.19 16.19 0 011.33-3.09 8.84 8.84 0 001.49 4.67c1.16 1.87 2.7 3.47 3.81 5.37 1.36 2.3 2.06 5 3.83 7a8.4 8.4 0 007 2.73 3.73 3.73 0 002.57-1.15 2.07 2.07 0 00.42-1.22 19.34 19.34 0 002.89 2.53c1.17.81 2.57 1.67 2.76 3.09a3 3 0 01-1.68 2.87 7.81 7.81 0 01-3.42.76 21.67 21.67 0 01-7.53-.64 10.4 10.4 0 01-6-4.36 13.49 13.49 0 01-1.35-3.39c-.33-1.21-.61-2.45-1-3.61a9.59 9.59 0 00-1-2.16c-1.17-1.75-3-3-3.9-4.92 0-.1-.1-.19-.14-.3a6.74 6.74 0 01-.08-4.18z" fill="#fff" opacity=".1"/><path d="M112.69 238.75c1.27-3.08 5-1.63 6.73 1.08a180.26 180.26 0 0012.4 16.33c3.3 3.53-5.57 4.92-8.78 2.49s-3.19-5.52-5.54-9.09-4.85-6.23-5.14-7.89a5.06 5.06 0 01.33-2.92z" fill="#455a64"/><path d="M112.69 238.75c1.27-3.08 5-1.63 6.73 1.08a180.26 180.26 0 0012.4 16.33c3.3 3.53-5.57 4.92-8.78 2.49s-3.19-5.52-5.54-9.09-4.85-6.23-5.14-7.89a5.06 5.06 0 01.33-2.92z" fill="#fff" opacity=".2"/><path d="M116.46 253.41l-.67 4a10 10 0 01-4.25-3.26c-.09-3.11-.05-6.31 0-7.87.85 1.9 2.72 3.17 3.89 4.92a9.59 9.59 0 011.03 2.21z" fill="#455a64"/><path d="M116.46 253.41l-.67 4a10 10 0 01-4.25-3.26c-.09-3.11-.05-6.31 0-7.87.85 1.9 2.72 3.17 3.89 4.92a9.59 9.59 0 011.03 2.21z" fill="#fff" opacity=".4"/><path d="M117.5 257l-1.71.44.67-4c.42 1.13.7 2.37 1.04 3.56z" fill="#455a64"/><path d="M117.5 257l-1.71.44.67-4c.42 1.13.7 2.37 1.04 3.56z" fill="#fff" opacity=".2"/><path d="M111.36 241.84a16.84 16.84 0 011.33-3.09 8.93 8.93 0 001.49 4.67c1.16 1.87 2.7 3.47 3.82 5.37 1.35 2.3 2 5 3.83 7a8.38 8.38 0 007 2.73 3.73 3.73 0 002.57-1.15 2 2 0 00.42-1.22 19.34 19.34 0 002.89 2.53c1.17.81 2.57 1.67 2.76 3.08a3 3 0 01-1.67 2.88 8 8 0 01-3.43.76 21.61 21.61 0 01-7.52-.64 10.42 10.42 0 01-6-4.36 13.24 13.24 0 01-1.35-3.4c-.34-1.21-.62-2.45-1-3.61a9.59 9.59 0 00-1-2.16c-1.17-1.75-3-3-3.89-4.92a2.75 2.75 0 01-.14-.3 6.74 6.74 0 01-.11-4.17z" fill="#455a64"/><path d="M111.36 241.84a16.84 16.84 0 011.33-3.09 8.93 8.93 0 001.49 4.67c1.16 1.87 2.7 3.47 3.82 5.37 1.35 2.3 2 5 3.83 7a8.38 8.38 0 007 2.73 3.73 3.73 0 002.57-1.15 2 2 0 00.42-1.22 19.34 19.34 0 002.89 2.53c1.17.81 2.57 1.67 2.76 3.08a3 3 0 01-1.67 2.88 8 8 0 01-3.43.76 21.61 21.61 0 01-7.52-.64 10.42 10.42 0 01-6-4.36 13.24 13.24 0 01-1.35-3.4c-.34-1.21-.62-2.45-1-3.61a9.59 9.59 0 00-1-2.16c-1.17-1.75-3-3-3.89-4.92a2.75 2.75 0 01-.14-.3 6.74 6.74 0 01-.11-4.17z" fill="#fff" opacity=".5"/><path d="M101.74 244.66c1.27-3.08 5-1.63 6.73 1.07a180.49 180.49 0 0012.41 16.33c3.29 3.53-5.58 4.92-8.78 2.49s-3.2-5.52-5.55-9.08-4.84-6.24-5.14-7.9a5 5 0 01.33-2.91z" fill="#455a64"/><path d="M101.74 244.66c1.27-3.08 5-1.63 6.73 1.07a180.49 180.49 0 0012.41 16.33c3.29 3.53-5.58 4.92-8.78 2.49s-3.2-5.52-5.55-9.08-4.84-6.24-5.14-7.9a5 5 0 01.33-2.91z" fill="#fff" opacity=".2"/><path d="M105.52 259.31l-.68 4.05a10 10 0 01-4.25-3.25c-.08-3.11 0-6.31 0-7.87.85 1.89 2.73 3.17 3.89 4.91a10.07 10.07 0 011.04 2.16z" fill="#455a64"/><path d="M105.52 259.31l-.68 4.05a10 10 0 01-4.25-3.25c-.08-3.11 0-6.31 0-7.87.85 1.89 2.73 3.17 3.89 4.91a10.07 10.07 0 011.04 2.16z" fill="#fff" opacity=".4"/><path d="M106.55 262.92l-1.71.44.68-4.05c.42 1.17.69 2.4 1.03 3.61z" fill="#455a64"/><path d="M106.55 262.92l-1.71.44.68-4.05c.42 1.17.69 2.4 1.03 3.61z" fill="#fff" opacity=".2"/><path d="M100.41 247.75a17.24 17.24 0 011.33-3.09 8.92 8.92 0 001.49 4.66c1.16 1.87 2.71 3.48 3.82 5.37 1.35 2.31 2 5 3.83 7a8.38 8.38 0 007 2.72 3.67 3.67 0 002.57-1.15 2 2 0 00.43-1.22 18.26 18.26 0 002.88 2.53c1.17.82 2.58 1.67 2.77 3.09a3 3 0 01-1.68 2.87 8 8 0 01-3.42.77 21.89 21.89 0 01-7.53-.65 10.45 10.45 0 01-6-4.36 13.32 13.32 0 01-1.34-3.39c-.34-1.21-.61-2.44-1-3.61a10.07 10.07 0 00-1.06-2.16c-1.16-1.74-3-3-3.89-4.91a2.92 2.92 0 01-.14-.31 6.71 6.71 0 01-.06-4.16z" fill="#455a64"/><path d="M100.41 247.75a17.24 17.24 0 011.33-3.09 8.92 8.92 0 001.49 4.66c1.16 1.87 2.71 3.48 3.82 5.37 1.35 2.31 2 5 3.83 7a8.38 8.38 0 007 2.72 3.67 3.67 0 002.57-1.15 2 2 0 00.43-1.22 18.26 18.26 0 002.88 2.53c1.17.82 2.58 1.67 2.77 3.09a3 3 0 01-1.68 2.87 8 8 0 01-3.42.77 21.89 21.89 0 01-7.53-.65 10.45 10.45 0 01-6-4.36 13.32 13.32 0 01-1.34-3.39c-.34-1.21-.61-2.44-1-3.61a10.07 10.07 0 00-1.06-2.16c-1.16-1.74-3-3-3.89-4.91a2.92 2.92 0 01-.14-.31 6.71 6.71 0 01-.06-4.16z" fill="#fff" opacity=".5"/><path d="M116.35 287.5l-.18-1.55c3.08-3.58 9.19-.62 9.19-.62v3.26l-9.19.6z" fill="#fca311"/><path d="M116.35 287.5l-.18-1.55c3.08-3.58 9.19-.62 9.19-.62v3.26l-9.19.6z" opacity=".2"/><path d="M128.75 305.86c5.09 2.18 12.89 2.6 16.13-2.6v1.41c-3.24 5.2-11 4.77-16.13 2.6s-4-5.73-8.55-7.64a12.42 12.42 0 01-4.46-2.82c0-.41-.08-.93-.15-1.53a15.52 15.52 0 004.61 2.94c4.57 1.91 3.45 5.46 8.55 7.64z" fill="#e6e6e6"/><path d="M115.59 290.66a7.36 7.36 0 000-3 1.58 1.58 0 01.23-1.33l.38-.37.18 1.55a1.88 1.88 0 001.11 1 1.85 1.85 0 002.28-1.13v-.12a4.69 4.69 0 014.17-3.1l2-.11a1.4 1.4 0 011.39.87c2 4.91 7.14 10.35 11.08 12.85 2.9-.07 6.48 2.33 6.48 5.25v.29c-3.24 5.2-11 4.78-16.13 2.6s-4-5.73-8.55-7.64a15.52 15.52 0 01-4.61-2.94 16.07 16.07 0 01-.01-4.67z" fill="#fca311"/><path d="M115.59 290.66a7.36 7.36 0 000-3 1.58 1.58 0 01.23-1.33l.38-.37.18 1.55a1.88 1.88 0 001.11 1 1.85 1.85 0 002.28-1.13v-.12a4.69 4.69 0 014.17-3.1l2-.11a1.4 1.4 0 011.39.87c2 4.91 7.14 10.35 11.08 12.85 2.9-.07 6.48 2.33 6.48 5.25v.29c-3.24 5.2-11 4.78-16.13 2.6s-4-5.73-8.55-7.64a15.52 15.52 0 01-4.61-2.94 16.07 16.07 0 01-.01-4.67z" fill="#fff" opacity=".3"/><path d="M125.45 294.68a.65.65 0 01-.9.08.64.64 0 01-.11-.89 7.38 7.38 0 016.65-2.92c.28.33.55.67.84 1a7.13 7.13 0 00-6.48 2.73zm-2.01-2.25a.65.65 0 01-1-.81 7.8 7.8 0 016.94-3c.25.37.5.73.77 1.09a7.2 7.2 0 00-6.71 2.72zm4.1 4.45a.66.66 0 01-.91.08.64.64 0 01-.1-.89 7.39 7.39 0 016.48-2.94c.33.35.66.68 1 1a7.1 7.1 0 00-6.47 2.75zm10.86.84c2.9-.07 6.48 2.33 6.48 5.25v.29c-3.19 5.12-10.81 4.78-15.9 2.69.39-6.95 7.11-8.26 9.42-8.23zm-8.72 1.28a.64.64 0 01-.9.08.64.64 0 01-.1-.89 7.38 7.38 0 016.49-2.94c.41.37.81.71 1.21 1a7.17 7.17 0 00-6.7 2.75z" fill="#fff"/><path d="M101.79 292.09l-.18-1.55c3.08-3.58 9.19-.63 9.19-.63v3.27l-9.19.6z" fill="#fca311"/><path d="M101.79 292.09l-.18-1.55c3.08-3.58 9.19-.63 9.19-.63v3.27l-9.19.6z" opacity=".2"/><path d="M114.18 310.45c5.1 2.18 12.9 2.6 16.13-2.6v1.41c-3.23 5.2-11 4.77-16.13 2.6s-4-5.73-8.54-7.64a12.42 12.42 0 01-4.46-2.82c0-.41-.09-.93-.16-1.53a15.74 15.74 0 004.62 2.94c4.56 1.91 3.45 5.46 8.54 7.64z" fill="#e6e6e6"/><path d="M101 295.25a7.42 7.42 0 000-3 1.58 1.58 0 01.23-1.33l.38-.37.18 1.55a1.84 1.84 0 003.38-.17v-.13a4.69 4.69 0 014.16-3.09l2-.11a1.4 1.4 0 011.39.87c2 4.9 7.15 10.35 11.09 12.85 2.89-.07 6.47 2.33 6.47 5.25v.29c-3.23 5.2-11 4.78-16.13 2.6s-4-5.73-8.54-7.64a15.74 15.74 0 01-4.62-2.94 16.83 16.83 0 01.01-4.63z" fill="#fca311"/><path d="M101 295.25a7.42 7.42 0 000-3 1.58 1.58 0 01.23-1.33l.38-.37.18 1.55a1.84 1.84 0 003.38-.17v-.13a4.69 4.69 0 014.16-3.09l2-.11a1.4 1.4 0 011.39.87c2 4.9 7.15 10.35 11.09 12.85 2.89-.07 6.47 2.33 6.47 5.25v.29c-3.23 5.2-11 4.78-16.13 2.6s-4-5.73-8.54-7.64a15.74 15.74 0 01-4.62-2.94 16.83 16.83 0 01.01-4.63z" fill="#fff" opacity=".3"/><path d="M110.88 299.27a.64.64 0 01-.9.08.64.64 0 01-.1-.89 7.37 7.37 0 016.65-2.92c.27.33.55.67.83 1a7.13 7.13 0 00-6.48 2.73zm-2.01-2.27a.64.64 0 01-1-.81 7.76 7.76 0 016.94-3c.24.37.5.73.76 1.09a7.18 7.18 0 00-6.7 2.72zm4.13 4.47a.65.65 0 01-1-.81 7.4 7.4 0 016.48-2.94c.33.35.66.68 1 1a7.11 7.11 0 00-6.48 2.75zm10.84.84c2.89-.07 6.47 2.33 6.47 5.25v.29c-3.19 5.12-10.8 4.78-15.9 2.69.4-7 7.12-8.26 9.43-8.23zm-8.72 1.26a.65.65 0 01-1-.81 7.4 7.4 0 016.5-2.94c.4.36.81.7 1.21 1a7.16 7.16 0 00-6.71 2.75z" fill="#fff"/><path d="M144.18 219.66l-.34-2.13a9.13 9.13 0 014.87-.6l.43 1.31c1.24-.1 2 2.85 3.12 3.22v2l-5.94 1.54-2.48-3.72z" fill="#fca311"/><path d="M144.18 219.66l-.34-2.13a9.13 9.13 0 014.87-.6l.43 1.31c1.24-.1 2 2.85 3.12 3.22v2l-5.94 1.54-2.48-3.72z" opacity=".2"/><path d="M144.18 219.66l-.34-2.13a9.13 9.13 0 014.87-.6l.43 1.31c1.24-.1 2 2.85 3.12 3.22v2l-5.94 1.54-2.48-3.72z" fill="#fff" opacity=".1"/><path d="M164.22 247a13.74 13.74 0 01-9.48-4.19c-1.81-1.9-3-4.31-5-6.11-2.24-2.1-4.71-3-7.25-4.76a2.76 2.76 0 01-.95-1.19 2.5 2.5 0 010-.55 4.78 4.78 0 01.52-1.81 2.78 2.78 0 001.12 1.79c2.47 1.8 5.44 3.06 7.63 5.16 1.88 1.8 3.06 4.21 4.84 6.11a13.32 13.32 0 009.26 4.2c3.48.09 9.48-1.17 9.48-3.66a3.07 3.07 0 01-.35 2.34c-2.16 2.12-7.22 2.73-9.82 2.67z" fill="#ebebeb"/><path d="M143.14 223.37a3.63 3.63 0 00.29-2s-.19-2-.32-2.6c-.23-1.19.73-1.29.73-1.29s.17 1 .34 2.13a2.35 2.35 0 011 1.51 9.27 9.27 0 00.56 1.81 1.59 1.59 0 001.51.93c.69-.1 1.1-.79 1.67-1.18a2.37 2.37 0 012.28-.1 1.84 1.84 0 01.66-2.27 5.29 5.29 0 012.43-.82 6.34 6.34 0 011.79-.13 2.19 2.19 0 011.55.8 1.35 1.35 0 010 1.66c2.58 1.59 3.56 8.83 8.42 12.46s8.32 4.43 8.32 7.65c0 2.49-6 3.75-9.48 3.66a13.32 13.32 0 01-9.26-4.2c-1.78-1.9-3-4.31-4.84-6.11-2.19-2.1-5.16-3.36-7.63-5.16a2.78 2.78 0 01-1.12-1.79 2.37 2.37 0 010-.65 12.34 12.34 0 011.1-4.31z" fill="#fca311"/><path d="M143.14 223.37a3.63 3.63 0 00.29-2s-.19-2-.32-2.6c-.23-1.19.73-1.29.73-1.29s.17 1 .34 2.13a2.35 2.35 0 011 1.51 9.27 9.27 0 00.56 1.81 1.59 1.59 0 001.51.93c.69-.1 1.1-.79 1.67-1.18a2.37 2.37 0 012.28-.1 1.84 1.84 0 01.66-2.27 5.29 5.29 0 012.43-.82 6.34 6.34 0 011.79-.13 2.19 2.19 0 011.55.8 1.35 1.35 0 010 1.66c2.58 1.59 3.56 8.83 8.42 12.46s8.32 4.43 8.32 7.65c0 2.49-6 3.75-9.48 3.66a13.32 13.32 0 01-9.26-4.2c-1.78-1.9-3-4.31-4.84-6.11-2.19-2.1-5.16-3.36-7.63-5.16a2.78 2.78 0 01-1.12-1.79 2.37 2.37 0 010-.65 12.34 12.34 0 011.1-4.31z" opacity=".1"/><path d="M143.14 223.37a3.63 3.63 0 00.29-2s-.19-2-.32-2.6c-.23-1.19.73-1.29.73-1.29s.17 1 .34 2.13a2.35 2.35 0 011 1.51 9.27 9.27 0 00.56 1.81 1.59 1.59 0 001.51.93c.69-.1 1.1-.79 1.67-1.18a2.37 2.37 0 012.28-.1 1.84 1.84 0 01.66-2.27 5.29 5.29 0 012.43-.82 6.34 6.34 0 011.79-.13 2.19 2.19 0 011.55.8 1.35 1.35 0 010 1.66c2.58 1.59 3.56 8.83 8.42 12.46s8.32 4.43 8.32 7.65c0 2.49-6 3.75-9.48 3.66a13.32 13.32 0 01-9.26-4.2c-1.78-1.9-3-4.31-4.84-6.11-2.19-2.1-5.16-3.36-7.63-5.16a2.78 2.78 0 01-1.12-1.79 2.37 2.37 0 010-.65 12.34 12.34 0 011.1-4.31z" fill="#fff" opacity=".2"/><path d="M174.16 241.22a.47.47 0 00-.58-.24l-2.25.82a.83.83 0 00-.54.7c-.26 2.22-.59 3.06-1.45 4a22.4 22.4 0 01-5.12.51 13.74 13.74 0 01-9.48-4.19c-1.81-1.9-3-4.31-5-6.11-2.24-2.1-4.71-3-7.25-4.76a2.76 2.76 0 01-.95-1.19 2.8 2.8 0 001.12 1.9c2.47 1.79 4.89 2.65 7.08 4.75 1.88 1.8 3.07 4.21 4.84 6.11a13.32 13.32 0 009.26 4.2c2.31.06 6.63-.44 9-2.14a3.22 3.22 0 001.32-4.36z" fill="#fca311"/><path d="M174.16 241.22a.47.47 0 00-.58-.24l-2.25.82a.83.83 0 00-.54.7c-.26 2.22-.59 3.06-1.45 4a22.4 22.4 0 01-5.12.51 13.74 13.74 0 01-9.48-4.19c-1.81-1.9-3-4.31-5-6.11-2.24-2.1-4.71-3-7.25-4.76a2.76 2.76 0 01-.95-1.19 2.8 2.8 0 001.12 1.9c2.47 1.79 4.89 2.65 7.08 4.75 1.88 1.8 3.07 4.21 4.84 6.11a13.32 13.32 0 009.26 4.2c2.31.06 6.63-.44 9-2.14a3.22 3.22 0 001.32-4.36z" opacity=".4"/><path d="M174.16 241.22a.47.47 0 00-.58-.24l-2.25.82a.83.83 0 00-.54.7c-.26 2.22-.59 3.06-1.45 4a22.4 22.4 0 01-5.12.51 13.74 13.74 0 01-9.48-4.19c-1.81-1.9-3-4.31-5-6.11-2.24-2.1-4.71-3-7.25-4.76a2.76 2.76 0 01-.95-1.19 2.8 2.8 0 001.12 1.9c2.47 1.79 4.89 2.65 7.08 4.75 1.88 1.8 3.07 4.21 4.84 6.11a13.32 13.32 0 009.26 4.2c2.31.06 6.63-.44 9-2.14a3.22 3.22 0 001.32-4.36z" fill="#fff" opacity=".2"/><path d="M152.72 225.31a.62.62 0 00.47-.22 4.89 4.89 0 012.73-1.59 4.94 4.94 0 013.14.42.62.62 0 00.56-1.11 6.23 6.23 0 00-3.94-.53 6.12 6.12 0 00-3.43 2 .62.62 0 00.06.88.63.63 0 00.41.15zm1.75 3.79a.59.59 0 00.44-.19 6.44 6.44 0 016.09-1.71.63.63 0 00.75-.46.62.62 0 00-.45-.75 7.71 7.71 0 00-7.25 2.06.62.62 0 00.45 1zm2.7 3.31a.6.6 0 00.49-.24 5.22 5.22 0 014.82-1.85.62.62 0 10.21-1.23 6.43 6.43 0 00-6 2.31.63.63 0 00.48 1zm2.71 2.81a.62.62 0 00.45-.2 5.19 5.19 0 014.38-1.63.62.62 0 10.15-1.23 6.4 6.4 0 00-5.44 2 .62.62 0 00.46 1z" fill="#fff"/><path d="M129 226.61l-.34-2.13a9.13 9.13 0 014.87-.6l.44 1.31c1.24-.1 2 2.85 3.12 3.22v2l-5.94 1.53-2.49-3.72z" fill="#fca311"/><path d="M129 226.61l-.34-2.13a9.13 9.13 0 014.87-.6l.44 1.31c1.24-.1 2 2.85 3.12 3.22v2l-5.94 1.53-2.49-3.72z" opacity=".2"/><path d="M129 226.61l-.34-2.13a9.13 9.13 0 014.87-.6l.44 1.31c1.24-.1 2 2.85 3.12 3.22v2l-5.94 1.53-2.49-3.72z" fill="#fff" opacity=".1"/><path d="M149.07 253.93a13.72 13.72 0 01-9.48-4.19c-1.82-1.9-3-4.31-5-6.11-2.25-2.1-4.72-3-7.25-4.76a2.71 2.71 0 01-1-1.19 3.32 3.32 0 010-.55 4.65 4.65 0 01.51-1.81 2.77 2.77 0 001.11 1.79c2.48 1.8 5.44 3.06 7.64 5.16 1.87 1.8 3.06 4.21 4.83 6.11a13.34 13.34 0 009.26 4.2c3.48.09 9.49-1.17 9.49-3.66a3.07 3.07 0 01-.36 2.34c-2.09 2.14-7.16 2.74-9.75 2.67z" fill="#ebebeb"/><path d="M128 230.32a3.63 3.63 0 00.28-1.95s-.19-2-.31-2.6c-.24-1.19.72-1.29.72-1.29s.18 1 .34 2.13a2.28 2.28 0 011 1.51 9.29 9.29 0 00.57 1.81 1.57 1.57 0 001.51.93c.68-.1 1.1-.79 1.67-1.18a2.35 2.35 0 012.27-.1 1.85 1.85 0 01.66-2.27 5.29 5.29 0 012.43-.82 6.39 6.39 0 011.79-.13 2.21 2.21 0 011.56.8 1.35 1.35 0 010 1.66c2.58 1.59 3.57 8.84 8.43 12.46s8.32 4.43 8.32 7.65c0 2.49-6 3.75-9.49 3.66a13.34 13.34 0 01-9.26-4.2c-1.77-1.9-3-4.31-4.83-6.11-2.2-2.1-5.16-3.36-7.64-5.16a2.77 2.77 0 01-1.11-1.79 2.85 2.85 0 010-.65 12.4 12.4 0 011.09-4.36z" fill="#fca311"/><path d="M128 230.32a3.63 3.63 0 00.28-1.95s-.19-2-.31-2.6c-.24-1.19.72-1.29.72-1.29s.18 1 .34 2.13a2.28 2.28 0 011 1.51 9.29 9.29 0 00.57 1.81 1.57 1.57 0 001.51.93c.68-.1 1.1-.79 1.67-1.18a2.35 2.35 0 012.27-.1 1.85 1.85 0 01.66-2.27 5.29 5.29 0 012.43-.82 6.39 6.39 0 011.79-.13 2.21 2.21 0 011.56.8 1.35 1.35 0 010 1.66c2.58 1.59 3.57 8.84 8.43 12.46s8.32 4.43 8.32 7.65c0 2.49-6 3.75-9.49 3.66a13.34 13.34 0 01-9.26-4.2c-1.77-1.9-3-4.31-4.83-6.11-2.2-2.1-5.16-3.36-7.64-5.16a2.77 2.77 0 01-1.11-1.79 2.85 2.85 0 010-.65 12.4 12.4 0 011.09-4.36z" opacity=".1"/><path d="M128 230.32a3.63 3.63 0 00.28-1.95s-.19-2-.31-2.6c-.24-1.19.72-1.29.72-1.29s.18 1 .34 2.13a2.28 2.28 0 011 1.51 9.29 9.29 0 00.57 1.81 1.57 1.57 0 001.51.93c.68-.1 1.1-.79 1.67-1.18a2.35 2.35 0 012.27-.1 1.85 1.85 0 01.66-2.27 5.29 5.29 0 012.43-.82 6.39 6.39 0 011.79-.13 2.21 2.21 0 011.56.8 1.35 1.35 0 010 1.66c2.58 1.59 3.57 8.84 8.43 12.46s8.32 4.43 8.32 7.65c0 2.49-6 3.75-9.49 3.66a13.34 13.34 0 01-9.26-4.2c-1.77-1.9-3-4.31-4.83-6.11-2.2-2.1-5.16-3.36-7.64-5.16a2.77 2.77 0 01-1.11-1.79 2.85 2.85 0 010-.65 12.4 12.4 0 011.09-4.36z" fill="#fff" opacity=".2"/><path d="M159 248.17a.46.46 0 00-.57-.24l-2.25.82a.85.85 0 00-.55.7c-.26 2.22-.58 3.06-1.44 4a22.45 22.45 0 01-5.12.51 13.72 13.72 0 01-9.48-4.19c-1.82-1.9-3-4.31-5-6.11-2.25-2.1-4.72-3-7.25-4.76a2.71 2.71 0 01-1-1.19 2.87 2.87 0 001.12 1.9c2.48 1.79 4.89 2.65 7.09 4.75 1.87 1.8 3.06 4.21 4.83 6.11a13.34 13.34 0 009.27 4.2c2.31.06 6.62-.44 9-2.14a3.21 3.21 0 001.35-4.36z" fill="#fca311"/><path d="M159 248.17a.46.46 0 00-.57-.24l-2.25.82a.85.85 0 00-.55.7c-.26 2.22-.58 3.06-1.44 4a22.45 22.45 0 01-5.12.51 13.72 13.72 0 01-9.48-4.19c-1.82-1.9-3-4.31-5-6.11-2.25-2.1-4.72-3-7.25-4.76a2.71 2.71 0 01-1-1.19 2.87 2.87 0 001.12 1.9c2.48 1.79 4.89 2.65 7.09 4.75 1.87 1.8 3.06 4.21 4.83 6.11a13.34 13.34 0 009.27 4.2c2.31.06 6.62-.44 9-2.14a3.21 3.21 0 001.35-4.36z" opacity=".4"/><path d="M159 248.17a.46.46 0 00-.57-.24l-2.25.82a.85.85 0 00-.55.7c-.26 2.22-.58 3.06-1.44 4a22.45 22.45 0 01-5.12.51 13.72 13.72 0 01-9.48-4.19c-1.82-1.9-3-4.31-5-6.11-2.25-2.1-4.72-3-7.25-4.76a2.71 2.71 0 01-1-1.19 2.87 2.87 0 001.12 1.9c2.48 1.79 4.89 2.65 7.09 4.75 1.87 1.8 3.06 4.21 4.83 6.11a13.34 13.34 0 009.27 4.2c2.31.06 6.62-.44 9-2.14a3.21 3.21 0 001.35-4.36z" fill="#fff" opacity=".2"/><path d="M137.56 232.26a.59.59 0 00.44-.26 4.9 4.9 0 015.88-1.17.62.62 0 00.83-.27.63.63 0 00-.28-.84 6.12 6.12 0 00-7.37 1.47.63.63 0 00.07.88.6.6 0 00.43.19zm1.75 3.79a.63.63 0 00.45-.18 6.4 6.4 0 016.05-1.72.62.62 0 00.75-.46.61.61 0 00-.45-.75 7.7 7.7 0 00-7.24 2.06.61.61 0 000 .87.61.61 0 00.44.18zm2.69 3.31a.63.63 0 00.49-.24 5.21 5.21 0 014.82-1.85.62.62 0 00.2-1.23 6.44 6.44 0 00-6 2.31.63.63 0 00.1.87.64.64 0 00.39.14zm2.72 2.81a.63.63 0 00.46-.2 5.17 5.17 0 014.38-1.63.62.62 0 00.69-.53.63.63 0 00-.54-.7 6.42 6.42 0 00-5.45 2 .63.63 0 000 .88.61.61 0 00.46.18z" fill="#fff"/><path d="M170.43 224.13c2 2.7 3.91 5.7 6.8 7.46a13.84 13.84 0 007 1.85 32.86 32.86 0 007.25-.85 6.71 6.71 0 002.06-.66 2.43 2.43 0 001.25-1.68 3.24 3.24 0 00-1.15-2.46c-2.95-3.06-7.11-4.64-10.39-7.35-2-1.66-3.69-3.75-5.88-5.19a12.73 12.73 0 00-10.22-1.56c-1.33.36-4 1.17-4.34 2.75-.35 1.73 2 2.55 3.08 3.25a18.28 18.28 0 014.54 4.44zm15.29-6.94c2.06 2.69 3.92 5.69 6.81 7.46a13.82 13.82 0 007 1.84 33.46 33.46 0 007.25-.84 7 7 0 002.06-.66 2.38 2.38 0 001.25-1.68 3.19 3.19 0 00-1.15-2.46c-2.94-3.07-7.11-4.64-10.39-7.35-2-1.67-3.69-3.75-5.87-5.19a12.8 12.8 0 00-10.23-1.57c-1.33.36-4 1.18-4.33 2.75-.36 1.74 2 2.56 3.07 3.26a17.78 17.78 0 014.53 4.44z" opacity=".2"/><path d="M180.46 197.3l-.34-2.13a9.06 9.06 0 014.87-.59l.43 1.31c1.25-.11 2 2.85 3.13 3.22v2l-6 1.53-2.48-3.73z" fill="#455a64"/><path d="M180.46 197.3l-.34-2.13a9.06 9.06 0 014.87-.59l.43 1.31c1.25-.11 2 2.85 3.13 3.22v2l-6 1.53-2.48-3.73z" opacity=".2"/><path d="M180.46 197.3l-.34-2.13a9.06 9.06 0 014.87-.59l.43 1.31c1.25-.11 2 2.85 3.13 3.22v2l-6 1.53-2.48-3.73z" fill="#fff" opacity=".1"/><path d="M200.51 224.63a13.78 13.78 0 01-9.49-4.19c-1.81-1.91-3-4.31-5-6.12-2.24-2.09-4.71-3-7.25-4.75a2.82 2.82 0 01-.95-1.19 2.59 2.59 0 010-.56 4.78 4.78 0 01.52-1.8 2.84 2.84 0 001.12 1.8c2.47 1.79 5.44 3.06 7.63 5.16 1.88 1.8 3.07 4.2 4.84 6.11a13.31 13.31 0 009.26 4.19c3.48.1 9.49-1.16 9.49-3.66a3.1 3.1 0 01-.36 2.35c-2.15 2.12-7.22 2.73-9.81 2.66z" fill="#ebebeb"/><path d="M179.42 201a3.63 3.63 0 00.29-2s-.19-2-.32-2.6c-.23-1.19.73-1.3.73-1.3s.18 1 .34 2.13a2.39 2.39 0 011 1.52 9.18 9.18 0 00.56 1.8 1.6 1.6 0 001.51.94c.69-.1 1.1-.79 1.68-1.18a2.35 2.35 0 012.27-.1 1.86 1.86 0 01.66-2.28 5.41 5.41 0 012.43-.82 6.73 6.73 0 011.79-.13 2.18 2.18 0 011.55.81 1.34 1.34 0 010 1.66c2.58 1.59 3.56 8.83 8.43 12.45s8.32 4.43 8.32 7.65c0 2.5-6 3.76-9.49 3.66a13.31 13.31 0 01-9.26-4.19c-1.77-1.91-3-4.31-4.84-6.11-2.19-2.1-5.16-3.37-7.63-5.16a2.84 2.84 0 01-1.12-1.8 3.49 3.49 0 010-.65 12.25 12.25 0 011.1-4.3z" fill="#455a64"/><path d="M179.42 201a3.63 3.63 0 00.29-2s-.19-2-.32-2.6c-.23-1.19.73-1.3.73-1.3s.18 1 .34 2.13a2.39 2.39 0 011 1.52 9.18 9.18 0 00.56 1.8 1.6 1.6 0 001.51.94c.69-.1 1.1-.79 1.68-1.18a2.35 2.35 0 012.27-.1 1.86 1.86 0 01.66-2.28 5.41 5.41 0 012.43-.82 6.73 6.73 0 011.79-.13 2.18 2.18 0 011.55.81 1.34 1.34 0 010 1.66c2.58 1.59 3.56 8.83 8.43 12.45s8.32 4.43 8.32 7.65c0 2.5-6 3.76-9.49 3.66a13.31 13.31 0 01-9.26-4.19c-1.77-1.91-3-4.31-4.84-6.11-2.19-2.1-5.16-3.37-7.63-5.16a2.84 2.84 0 01-1.12-1.8 3.49 3.49 0 010-.65 12.25 12.25 0 011.1-4.3z" opacity=".1"/><path d="M179.42 201a3.63 3.63 0 00.29-2s-.19-2-.32-2.6c-.23-1.19.73-1.3.73-1.3s.18 1 .34 2.13a2.39 2.39 0 011 1.52 9.18 9.18 0 00.56 1.8 1.6 1.6 0 001.51.94c.69-.1 1.1-.79 1.68-1.18a2.35 2.35 0 012.27-.1 1.86 1.86 0 01.66-2.28 5.41 5.41 0 012.43-.82 6.73 6.73 0 011.79-.13 2.18 2.18 0 011.55.81 1.34 1.34 0 010 1.66c2.58 1.59 3.56 8.83 8.43 12.45s8.32 4.43 8.32 7.65c0 2.5-6 3.76-9.49 3.66a13.31 13.31 0 01-9.26-4.19c-1.77-1.91-3-4.31-4.84-6.11-2.19-2.1-5.16-3.37-7.63-5.16a2.84 2.84 0 01-1.12-1.8 3.49 3.49 0 010-.65 12.25 12.25 0 011.1-4.3z" fill="#fff" opacity=".2"/><path d="M210.44 218.87a.45.45 0 00-.58-.24l-2.25.81a.87.87 0 00-.54.71c-.26 2.21-.59 3.06-1.45 4a21.89 21.89 0 01-5.11.52 13.78 13.78 0 01-9.49-4.19c-1.81-1.91-3-4.31-5-6.12-2.24-2.09-4.71-3-7.25-4.75a2.82 2.82 0 01-.95-1.19 2.76 2.76 0 001.12 1.89c2.48 1.79 4.89 2.66 7.08 4.76 1.88 1.8 3.07 4.2 4.84 6.11a13.31 13.31 0 009.26 4.19c2.31.07 6.63-.43 9-2.13a3.21 3.21 0 001.32-4.37z" fill="#455a64"/><path d="M210.44 218.87a.45.45 0 00-.58-.24l-2.25.81a.87.87 0 00-.54.71c-.26 2.21-.59 3.06-1.45 4a21.89 21.89 0 01-5.11.52 13.78 13.78 0 01-9.49-4.19c-1.81-1.91-3-4.31-5-6.12-2.24-2.09-4.71-3-7.25-4.75a2.82 2.82 0 01-.95-1.19 2.76 2.76 0 001.12 1.89c2.48 1.79 4.89 2.66 7.08 4.76 1.88 1.8 3.07 4.2 4.84 6.11a13.31 13.31 0 009.26 4.19c2.31.07 6.63-.43 9-2.13a3.21 3.21 0 001.32-4.37z" opacity=".4"/><path d="M210.44 218.87a.45.45 0 00-.58-.24l-2.25.81a.87.87 0 00-.54.71c-.26 2.21-.59 3.06-1.45 4a21.89 21.89 0 01-5.11.52 13.78 13.78 0 01-9.49-4.19c-1.81-1.91-3-4.31-5-6.12-2.24-2.09-4.71-3-7.25-4.75a2.82 2.82 0 01-.95-1.19 2.76 2.76 0 001.12 1.89c2.48 1.79 4.89 2.66 7.08 4.76 1.88 1.8 3.07 4.2 4.84 6.11a13.31 13.31 0 009.26 4.19c2.31.07 6.63-.43 9-2.13a3.21 3.21 0 001.32-4.37z" fill="#fff" opacity=".2"/><path d="M189 203a.62.62 0 00.47-.21 4.88 4.88 0 015.87-1.17.63.63 0 00.84-.28.62.62 0 00-.28-.83 6.16 6.16 0 00-3.94-.53 6.06 6.06 0 00-3.43 2 .61.61 0 00.06.87.58.58 0 00.41.15zm1.75 3.75a.59.59 0 00.44-.19 6.44 6.44 0 016.06-1.72.62.62 0 10.3-1.2 7.69 7.69 0 00-7.24 2.05.62.62 0 000 .88.6.6 0 00.44.18zm2.71 3.3a.62.62 0 00.48-.23 5.18 5.18 0 014.82-1.85.64.64 0 00.72-.51.63.63 0 00-.51-.72 6.44 6.44 0 00-6 2.3.63.63 0 00.1.88.61.61 0 00.39.13zm2.7 2.82a.62.62 0 00.46-.21A5.16 5.16 0 01201 211a.63.63 0 00.7-.54.62.62 0 00-.54-.69 6.36 6.36 0 00-5.45 2 .62.62 0 000 .87.63.63 0 00.45.23z" fill="#fff"/><path d="M165.31 204.26l-.35-2.14a9.18 9.18 0 014.87-.59l.44 1.31c1.24-.11 2 2.85 3.12 3.22v2l-5.94 1.53-2.45-3.77z" fill="#455a64"/><path d="M165.31 204.26l-.35-2.14a9.18 9.18 0 014.87-.59l.44 1.31c1.24-.11 2 2.85 3.12 3.22v2l-5.94 1.53-2.45-3.77z" opacity=".2"/><path d="M165.31 204.26l-.35-2.14a9.18 9.18 0 014.87-.59l.44 1.31c1.24-.11 2 2.85 3.12 3.22v2l-5.94 1.53-2.45-3.77z" fill="#fff" opacity=".1"/><path d="M185.35 231.58a13.78 13.78 0 01-9.48-4.19c-1.81-1.91-3-4.31-5-6.11-2.25-2.1-4.72-3-7.25-4.76a2.74 2.74 0 01-.95-1.19 2.59 2.59 0 010-.56 4.64 4.64 0 01.51-1.8 2.79 2.79 0 001.11 1.8c2.48 1.79 5.45 3.06 7.64 5.16 1.88 1.8 3.06 4.2 4.83 6.11a13.33 13.33 0 009.27 4.19c3.47.1 9.48-1.16 9.48-3.66a3.14 3.14 0 01-.35 2.35c-2.16 2.08-7.16 2.73-9.81 2.66z" fill="#ebebeb"/><path d="M164.27 208a3.63 3.63 0 00.29-1.95s-.19-2-.32-2.6c-.23-1.19.72-1.3.72-1.3s.18 1 .35 2.14a2.35 2.35 0 011.05 1.51 8.55 8.55 0 00.56 1.8 1.58 1.58 0 001.51.94c.68-.1 1.1-.79 1.67-1.18a2.35 2.35 0 012.27-.1A1.86 1.86 0 01173 205a5.33 5.33 0 012.43-.82 6.73 6.73 0 011.79-.13 2.2 2.2 0 011.55.81 1.35 1.35 0 010 1.66c2.58 1.59 3.56 8.83 8.42 12.45s8.32 4.43 8.32 7.65c0 2.5-6 3.76-9.48 3.66a13.33 13.33 0 01-9.27-4.19c-1.77-1.91-2.95-4.31-4.83-6.11-2.19-2.1-5.16-3.37-7.64-5.16a2.79 2.79 0 01-1.11-1.8 2.35 2.35 0 010-.65 12.25 12.25 0 011.09-4.37z" fill="#455a64"/><path d="M164.27 208a3.63 3.63 0 00.29-1.95s-.19-2-.32-2.6c-.23-1.19.72-1.3.72-1.3s.18 1 .35 2.14a2.35 2.35 0 011.05 1.51 8.55 8.55 0 00.56 1.8 1.58 1.58 0 001.51.94c.68-.1 1.1-.79 1.67-1.18a2.35 2.35 0 012.27-.1A1.86 1.86 0 01173 205a5.33 5.33 0 012.43-.82 6.73 6.73 0 011.79-.13 2.2 2.2 0 011.55.81 1.35 1.35 0 010 1.66c2.58 1.59 3.56 8.83 8.42 12.45s8.32 4.43 8.32 7.65c0 2.5-6 3.76-9.48 3.66a13.33 13.33 0 01-9.27-4.19c-1.77-1.91-2.95-4.31-4.83-6.11-2.19-2.1-5.16-3.37-7.64-5.16a2.79 2.79 0 01-1.11-1.8 2.35 2.35 0 010-.65 12.25 12.25 0 011.09-4.37z" opacity=".1"/><path d="M164.27 208a3.63 3.63 0 00.29-1.95s-.19-2-.32-2.6c-.23-1.19.72-1.3.72-1.3s.18 1 .35 2.14a2.35 2.35 0 011.05 1.51 8.55 8.55 0 00.56 1.8 1.58 1.58 0 001.51.94c.68-.1 1.1-.79 1.67-1.18a2.35 2.35 0 012.27-.1A1.86 1.86 0 01173 205a5.33 5.33 0 012.43-.82 6.73 6.73 0 011.79-.13 2.2 2.2 0 011.55.81 1.35 1.35 0 010 1.66c2.58 1.59 3.56 8.83 8.42 12.45s8.32 4.43 8.32 7.65c0 2.5-6 3.76-9.48 3.66a13.33 13.33 0 01-9.27-4.19c-1.77-1.91-2.95-4.31-4.83-6.11-2.19-2.1-5.16-3.37-7.64-5.16a2.79 2.79 0 01-1.11-1.8 2.35 2.35 0 010-.65 12.25 12.25 0 011.09-4.37z" fill="#fff" opacity=".2"/><path d="M195.29 225.82a.47.47 0 00-.58-.24l-2.25.81a.87.87 0 00-.55.71c-.26 2.21-.58 3.06-1.44 4a22 22 0 01-5.12.52 13.78 13.78 0 01-9.48-4.19c-1.81-1.91-3-4.31-5-6.12-2.25-2.09-4.72-3-7.25-4.75a2.74 2.74 0 01-.95-1.19 2.76 2.76 0 001.12 1.89c2.47 1.79 4.89 2.66 7.08 4.76 1.88 1.8 3.06 4.2 4.84 6.11a13.29 13.29 0 009.26 4.19c2.31.07 6.63-.43 9-2.13a3.22 3.22 0 001.32-4.37z" fill="#455a64"/><path d="M195.29 225.82a.47.47 0 00-.58-.24l-2.25.81a.87.87 0 00-.55.71c-.26 2.21-.58 3.06-1.44 4a22 22 0 01-5.12.52 13.78 13.78 0 01-9.48-4.19c-1.81-1.91-3-4.31-5-6.12-2.25-2.09-4.72-3-7.25-4.75a2.74 2.74 0 01-.95-1.19 2.76 2.76 0 001.12 1.89c2.47 1.79 4.89 2.66 7.08 4.76 1.88 1.8 3.06 4.2 4.84 6.11a13.29 13.29 0 009.26 4.19c2.31.07 6.63-.43 9-2.13a3.22 3.22 0 001.32-4.37z" opacity=".4"/><path d="M195.29 225.82a.47.47 0 00-.58-.24l-2.25.81a.87.87 0 00-.55.71c-.26 2.21-.58 3.06-1.44 4a22 22 0 01-5.12.52 13.78 13.78 0 01-9.48-4.19c-1.81-1.91-3-4.31-5-6.12-2.25-2.09-4.72-3-7.25-4.75a2.74 2.74 0 01-.95-1.19 2.76 2.76 0 001.12 1.89c2.47 1.79 4.89 2.66 7.08 4.76 1.88 1.8 3.06 4.2 4.84 6.11a13.29 13.29 0 009.26 4.19c2.31.07 6.63-.43 9-2.13a3.22 3.22 0 001.32-4.37z" fill="#fff" opacity=".2"/><path d="M173.84 209.9a.61.61 0 00.47-.21 4.9 4.9 0 015.88-1.17.62.62 0 00.56-1.11 6.16 6.16 0 00-3.94-.53 6.06 6.06 0 00-3.43 2 .61.61 0 00.06.87.57.57 0 00.4.15zm1.76 3.8a.59.59 0 00.44-.19 6.43 6.43 0 016.05-1.72.63.63 0 00.76-.45.62.62 0 00-.46-.75 7.69 7.69 0 00-7.24 2 .63.63 0 000 .88.62.62 0 00.45.23zm2.7 3.3a.64.64 0 00.49-.23 5.18 5.18 0 014.82-1.85.62.62 0 00.2-1.23 6.42 6.42 0 00-6 2.3.62.62 0 00.1.88.6.6 0 00.39.13zm2.7 2.82a.6.6 0 00.46-.21 5.18 5.18 0 014.38-1.62.62.62 0 00.15-1.23 6.36 6.36 0 00-5.45 2 .62.62 0 000 .87.63.63 0 00.46.19z" fill="#fff"/><path fill="#fca311" d="M196.72 245.4l19.34 11.17 29.01-16.75-19.34-11.17-29.01 16.75z"/><path opacity=".2" d="M196.72 245.4l19.34 11.17 29.01-16.75-19.34-11.17-29.01 16.75z"/><path fill="#fca311" d="M206.39 217.49l-9.67 27.91 29.01-16.75 9.67-27.92-29.01 16.76z"/><path opacity=".3" d="M206.39 217.49l-9.67 27.91 29.01-16.75 9.67-27.92-29.01 16.76z"/><path fill="#fca311" d="M235.4 200.73l-29.01 16.76 9.67 39.08 29.01-16.75-9.67-39.09z"/><path fill="#fff" opacity=".2" d="M235.4 200.73l-29.01 16.76 9.67 39.08 29.01-16.75-9.67-39.09z"/><path d="M219 234.61c1.54-.88 2-2.51 1.36-4.55a4.29 4.29 0 00-3-3c-1.37-.56-1.89-1.08-2.18-2s-.09-1.43.4-1.71.9-.1 1.17.8l.16.54 1.48-.85-.12-.4c-.63-2.05-1.76-2.77-3.29-1.89s-1.95 2.5-1.32 4.55a4.3 4.3 0 002.94 3c1.37.54 1.9 1.06 2.18 2s.07 1.43-.43 1.72-.91.13-1.19-.78l-.28-.92-1.48.86.24.79c.68 2.03 1.84 2.73 3.36 1.84zm18.06-10.58l-.55-1.83-2.7 1.55-1.14-3.73 2.14-1.24-.55-1.82-2.14 1.24-1.09-3.56 2.7-1.56-.56-1.82-4.26 2.46 3.89 12.77 4.26-2.46zm-4.94 2.86l-.56-1.84-2.57 1.49-3.33-10.94-1.57.91 3.89 12.77 4.14-2.39zm-8.9 5.11l-.44-2.48 1.92-1.11 1 2.17 1.57-.91-5.48-11.85-2.29 1.33 2.3 13.68zm-2-11.22l2.7 6-1.5.87-1.24-6.88zm.08 21.47c-.33-1.1-.85-1.51-1.52-1.13a1.33 1.33 0 00-.64 1l-.46-1.81 1.58-.92-.32-1.06-2.4 1.39 1.15 4.4.86-.5-.07-.22c-.16-.54 0-.84.25-1s.53-.07.7.46l.49 1.64c.17.53 0 .82-.25 1s-.53.08-.69-.45l-.21-.69-.86.49.19.63c.36 1.18 1 1.59 1.92 1.07a2.06 2.06 0 00.79-2.64zm8.41-5.03c-.23-.76-.66-1-1.23-.68a1.31 1.31 0 00-.52 1.69l.74 2.45c.23.76.67 1 1.24.68a1.34 1.34 0 00.52-1.7zm0 3.47c-.19.11-.34 0-.44-.29l-.78-2.55c-.1-.33 0-.53.16-.64s.34 0 .44.3l.78 2.54c.13.33.05.53-.13.64zm-2.65 2.27l.53-.31.03-8.74-.54.31-.02 8.74zm-3.14-4.82c-.36-1.19-1-1.59-1.94-1.08a2.11 2.11 0 00-.82 2.67l1.18 3.86c.36 1.19 1.06 1.58 1.95 1.07a2.11 2.11 0 00.81-2.66zm.05 5.46c-.29.17-.53.07-.7-.46l-1.22-4c-.16-.53 0-.84.25-1s.53-.06.69.46l1.23 4c.16.53.03.83-.22 1zm2.03-7.44c-.23-.76-.67-1-1.24-.68a1.33 1.33 0 00-.52 1.69l.75 2.45c.23.76.66 1 1.23.68a1.32 1.32 0 00.52-1.7zm0 3.47c-.19.11-.34 0-.44-.3l-.77-2.54c-.11-.33 0-.53.15-.64s.34 0 .44.3l.78 2.54c.14.33.07.53-.16.64zm13.96-7.73l-.32-1.06-1.17.68-.68-2.24 1.49-.86-.32-1.06-2.41 1.39 2.26 7.42.92-.53-.94-3.06 1.17-.68zm-3.17.59l-1.17.67-.68-2.23 1.5-.87-.33-1.06-2.4 1.39 2.26 7.42.91-.52-.94-3.07 1.18-.68-.33-1.05zm-3.12.02c-.37-1.19-1.06-1.58-2-1.07a2.1 2.1 0 00-.8 2.67l1.17 3.86c.36 1.18 1 1.58 1.95 1.06a2.1 2.1 0 00.81-2.66zm0 5.47c-.29.16-.54.07-.7-.46l-1.22-4c-.16-.52 0-.84.25-1s.53-.07.69.46l1.22 4c.21.53.09.83-.2 1.02z" fill="#fca311"/><path d="M219 234.61c1.54-.88 2-2.51 1.36-4.55a4.29 4.29 0 00-3-3c-1.37-.56-1.89-1.08-2.18-2s-.09-1.43.4-1.71.9-.1 1.17.8l.16.54 1.48-.85-.12-.4c-.63-2.05-1.76-2.77-3.29-1.89s-1.95 2.5-1.32 4.55a4.3 4.3 0 002.94 3c1.37.54 1.9 1.06 2.18 2s.07 1.43-.43 1.72-.91.13-1.19-.78l-.28-.92-1.48.86.24.79c.68 2.03 1.84 2.73 3.36 1.84zm18.06-10.58l-.55-1.83-2.7 1.55-1.14-3.73 2.14-1.24-.55-1.82-2.14 1.24-1.09-3.56 2.7-1.56-.56-1.82-4.26 2.46 3.89 12.77 4.26-2.46zm-4.94 2.86l-.56-1.84-2.57 1.49-3.33-10.94-1.57.91 3.89 12.77 4.14-2.39zm-8.9 5.11l-.44-2.48 1.92-1.11 1 2.17 1.57-.91-5.48-11.85-2.29 1.33 2.3 13.68zm-2-11.22l2.7 6-1.5.87-1.24-6.88zm.08 21.47c-.33-1.1-.85-1.51-1.52-1.13a1.33 1.33 0 00-.64 1l-.46-1.81 1.58-.92-.32-1.06-2.4 1.39 1.15 4.4.86-.5-.07-.22c-.16-.54 0-.84.25-1s.53-.07.7.46l.49 1.64c.17.53 0 .82-.25 1s-.53.08-.69-.45l-.21-.69-.86.49.19.63c.36 1.18 1 1.59 1.92 1.07a2.06 2.06 0 00.79-2.64zm8.41-5.03c-.23-.76-.66-1-1.23-.68a1.31 1.31 0 00-.52 1.69l.74 2.45c.23.76.67 1 1.24.68a1.34 1.34 0 00.52-1.7zm0 3.47c-.19.11-.34 0-.44-.29l-.78-2.55c-.1-.33 0-.53.16-.64s.34 0 .44.3l.78 2.54c.13.33.05.53-.13.64zm-2.65 2.27l.53-.31.03-8.74-.54.31-.02 8.74zm-3.14-4.82c-.36-1.19-1-1.59-1.94-1.08a2.11 2.11 0 00-.82 2.67l1.18 3.86c.36 1.19 1.06 1.58 1.95 1.07a2.11 2.11 0 00.81-2.66zm.05 5.46c-.29.17-.53.07-.7-.46l-1.22-4c-.16-.53 0-.84.25-1s.53-.06.69.46l1.23 4c.16.53.03.83-.22 1zm2.03-7.44c-.23-.76-.67-1-1.24-.68a1.33 1.33 0 00-.52 1.69l.75 2.45c.23.76.66 1 1.23.68a1.32 1.32 0 00.52-1.7zm0 3.47c-.19.11-.34 0-.44-.3l-.77-2.54c-.11-.33 0-.53.15-.64s.34 0 .44.3l.78 2.54c.14.33.07.53-.16.64zm13.96-7.73l-.32-1.06-1.17.68-.68-2.24 1.49-.86-.32-1.06-2.41 1.39 2.26 7.42.92-.53-.94-3.06 1.17-.68zm-3.17.59l-1.17.67-.68-2.23 1.5-.87-.33-1.06-2.4 1.39 2.26 7.42.91-.52-.94-3.07 1.18-.68-.33-1.05zm-3.12.02c-.37-1.19-1.06-1.58-2-1.07a2.1 2.1 0 00-.8 2.67l1.17 3.86c.36 1.18 1 1.58 1.95 1.06a2.1 2.1 0 00.81-2.66zm0 5.47c-.29.16-.54.07-.7-.46l-1.22-4c-.16-.52 0-.84.25-1s.53-.07.69.46l1.22 4c.21.53.09.83-.2 1.02z" opacity=".7" fill="#fff"/><path d="M434.7 225.46l22.7 24.66a21.85 21.85 0 01-13.76 8.77v52c.36 5.92-10.53 4.07-27.52-5.31s-19-7.65-19-17.94 2.52-50.49 2.52-50.49a21.57 21.57 0 01-6.6-17.8l21.82-3.87z" fill="#fca311"/><path d="M441.39 307.21v-48.59a7.72 7.72 0 002.25.27v52c.12 2-1.05 3.08-3.27 3.32 1.49-1.37.85-3.67 1.02-7z" opacity=".15"/><path d="M434.7 225.46l22.7 24.66a21.85 21.85 0 01-13.76 8.77v52c.36 5.92-10.53 4.07-27.52-5.31s-19-7.65-19-17.94 2.52-50.49 2.52-50.49a21.57 21.57 0 01-6.6-17.8l21.82-3.87z" opacity=".2"/><path d="M434.7 225.46l22.7 24.66a21.85 21.85 0 01-13.76 8.77v52c.36 5.92-10.53 4.07-27.52-5.31s-19-7.65-19-17.94 2.52-50.49 2.52-50.49a21.57 21.57 0 01-6.6-17.8l21.82-3.87z" fill="#fff" opacity=".4"/><path d="M416.69 216.4l15.79 7.94c-5.48 9.01-16.85 4.89-15.79-7.94z" fill="#fca311"/><path d="M416.69 216.4l15.79 7.94c-5.48 9.01-16.85 4.89-15.79-7.94z" opacity=".4"/><path d="M416.69 216.4l15.79 7.94c-5.48 9.01-16.85 4.89-15.79-7.94z" fill="#fff" opacity=".4"/><path d="M431.84 226a5.45 5.45 0 01-.78 2.25l-14.94-8.62a14.07 14.07 0 01-.76-3.14l4.8 2.79 2.66 1.54 1.44.83z" fill="#b06d6d"/><path d="M422.82 220.84v-2.68a13 13 0 01-5.08-9.58c0-3.69 2.63-5.18 5.84-3.33a12.83 12.83 0 015.39 7.31 9.83 9.83 0 01.42 2.74c0 .46-.34.64-.73.42a1.61 1.61 0 01-.72-1.26 7.29 7.29 0 00-.31-2.05 9.62 9.62 0 00-4.06-5.5c-2.41-1.4-4.37-.27-4.38 2.5a9.63 9.63 0 004.35 7.56 1.56 1.56 0 01.73 1.25v3.45z" fill="#e0e0e0"/><path d="M414.83 215.47l1.86.93c-1.06 12.83 10.28 16.95 15.79 7.94l2.22 1.12c-6.8 12.1-21.7 6.75-19.87-9.99z" fill="#fff"/><path d="M338.81 244l-2.54 5.35 6.08 6.68-.44 16-19.59-17a5.32 5.32 0 01-1.3-6.3l6-12.42z" fill="#b06d6d"/><path d="M332.78 254.14s2.74-2.27 3.49-4.78l1.52 1.67a7.82 7.82 0 01-5.01 3.11z" fill="#8c4d4d"/><path d="M339.3 245.3c-7.77-.69-13.07-8.75-13.07-8.75 6.95-14.24 13-30.09 25.17-26.31z" fill="#fff"/><path d="M346.22 225.26l-6.92 20a14.57 14.57 0 01-6.69-2.47 40.51 40.51 0 0113.61-17.53z" opacity=".1"/><path d="M369.65 412.82c.74 2.31 3.27 3.64 5.69 3.83s4.81-.49 7.2-.92c5.34-1 10.49 0 15.82-.13a23.3 23.3 0 005.21-.57 8.65 8.65 0 004.45-2.62 5.85 5.85 0 001.28-2.79A5.52 5.52 0 01408 414a8.59 8.59 0 01-4.45 2.62 22.19 22.19 0 01-5.21.57c-5.33.12-10.48-.84-15.82.13-2.39.43-4.78 1.11-7.2.92s-4.95-1.51-5.69-3.83a6.16 6.16 0 01-.18-2.46 5.31 5.31 0 00.2.87z" fill="#fca311"/><path d="M369.79 408.39c.33-1.62.66-3.23 1-4.85a7.21 7.21 0 01.83-2.47 2.44 2.44 0 012.16-1.24c2.93-.39 7-1.45 9.47.23a21.86 21.86 0 0013.09 3.8c2.42-.09 4.84-.59 7.24-.29s4.9 1.63 5.61 3.94a4.56 4.56 0 01.13 2.11 5.85 5.85 0 01-1.28 2.79 8.65 8.65 0 01-4.45 2.62 23.3 23.3 0 01-5.21.57c-5.33.12-10.48-.84-15.82.13-2.39.43-4.78 1.11-7.2.92s-4.95-1.52-5.69-3.83a5.31 5.31 0 01-.18-.9 11.43 11.43 0 01.3-3.53z" fill="#fca311"/><g opacity=".5" fill="#fff"><path d="M369.65 412.82c.74 2.31 3.27 3.64 5.69 3.83s4.81-.49 7.2-.92c5.34-1 10.49 0 15.82-.13a23.3 23.3 0 005.21-.57 8.65 8.65 0 004.45-2.62 5.85 5.85 0 001.28-2.79A5.52 5.52 0 01408 414a8.59 8.59 0 01-4.45 2.62 22.19 22.19 0 01-5.21.57c-5.33.12-10.48-.84-15.82.13-2.39.43-4.78 1.11-7.2.92s-4.95-1.51-5.69-3.83a6.16 6.16 0 01-.18-2.46 5.31 5.31 0 00.2.87z" opacity=".6"/><path d="M369.79 408.39c.33-1.62.66-3.23 1-4.85a7.21 7.21 0 01.83-2.47 2.44 2.44 0 012.16-1.24c2.93-.39 7-1.45 9.47.23a21.86 21.86 0 0013.09 3.8c2.42-.09 4.84-.59 7.24-.29s4.9 1.63 5.61 3.94a4.56 4.56 0 01.13 2.11 5.85 5.85 0 01-1.28 2.79 8.65 8.65 0 01-4.45 2.62 23.3 23.3 0 01-5.21.57c-5.33.12-10.48-.84-15.82.13-2.39.43-4.78 1.11-7.2.92s-4.95-1.52-5.69-3.83a5.31 5.31 0 01-.18-.9 11.43 11.43 0 01.3-3.53z"/></g><path d="M383.94 395l.21 6.33a2.5 2.5 0 01-2.32 2.58 38.74 38.74 0 01-6.38-.06 3.61 3.61 0 01-3.26-3.39l-.25-4.67z" fill="#b06d6d"/><path d="M342.64 391.61a4.88 4.88 0 00.85 2.61 4.76 4.76 0 003 1.68 7.54 7.54 0 007.41-3c.8-1.15 1.25-2.51 2-3.69a17 17 0 014.16-4 17.52 17.52 0 004.18-4 5.89 5.89 0 00.8-5.35 4.09 4.09 0 01.4.67 6.09 6.09 0 01-.76 5.7 17.88 17.88 0 01-4.27 4.14 17.11 17.11 0 00-4.24 4.16c-.76 1.22-1.23 2.61-2 3.8a7.64 7.64 0 01-7.56 3.14 4.8 4.8 0 01-3-1.73 5.85 5.85 0 01-.89-3.63c-.1-.24-.08-.37-.08-.5z" fill="#fca311"/><path d="M344.56 383.67c1.92-3.38 5.89-5.83 8.95-8.21a11.39 11.39 0 015.93-2.7 5.58 5.58 0 015.52 2.82 1.27 1.27 0 01.06.18 5.89 5.89 0 01-.8 5.35 17.52 17.52 0 01-4.18 4 17 17 0 00-4.16 4c-.75 1.18-1.2 2.54-2 3.69a7.54 7.54 0 01-7.41 3 4.76 4.76 0 01-3-1.68 4.88 4.88 0 01-.85-2.61v-.92a14.8 14.8 0 011.94-6.92z" fill="#fca311"/><g opacity=".5" fill="#fff"><path d="M342.64 391.61a4.88 4.88 0 00.85 2.61 4.76 4.76 0 003 1.68 7.54 7.54 0 007.41-3c.8-1.15 1.25-2.51 2-3.69a17 17 0 014.16-4 17.52 17.52 0 004.18-4 5.89 5.89 0 00.8-5.35 4.09 4.09 0 01.4.67 6.09 6.09 0 01-.76 5.7 17.88 17.88 0 01-4.27 4.14 17.11 17.11 0 00-4.24 4.16c-.76 1.22-1.23 2.61-2 3.8a7.64 7.64 0 01-7.56 3.14 4.8 4.8 0 01-3-1.73 5.85 5.85 0 01-.89-3.63c-.1-.24-.08-.37-.08-.5z" opacity=".6"/><path d="M344.56 383.67c1.92-3.38 5.89-5.83 8.95-8.21a11.39 11.39 0 015.93-2.7 5.58 5.58 0 015.52 2.82 1.27 1.27 0 01.06.18 5.89 5.89 0 01-.8 5.35 17.52 17.52 0 01-4.18 4 17 17 0 00-4.16 4c-.75 1.18-1.2 2.54-2 3.69a7.54 7.54 0 01-7.41 3 4.76 4.76 0 01-3-1.68 4.88 4.88 0 01-.85-2.61v-.92a14.8 14.8 0 011.94-6.92z"/></g><path d="M352.9 380.74v5.75a9.66 9.66 0 01-8.95-.39l-.54-5.18z" fill="#b06d6d"/><path d="M341.9 276.44c-1.72 5.18.4 29.75 1.41 53.32-3.74 8.91-2.73 34.2-.58 52.17 0 0 3.74 2.3 10.49 0l8.48-49.58 1.18-28s2.13 24.87 4.57 40.82c-2.3 12.21-1.72 14.51 3.95 52.09a14.19 14.19 0 0012.72 0c3.21-52.79 2-100.9 1.42-118.2z" fill="#455a64"/><path d="M341.9 276.44c-1.72 5.18.4 29.75 1.41 53.32-3.74 8.91-2.73 34.2-.58 52.17 0 0 3.74 2.3 10.49 0l8.48-49.58 1.18-28s2.13 24.87 4.57 40.82c-2.3 12.21-1.72 14.51 3.95 52.09a14.19 14.19 0 0012.72 0c3.21-52.79 2-100.9 1.42-118.2z" opacity=".3"/><path d="M341.9 276.44c-1.72 5.18.4 29.75 1.41 53.32-3.74 8.91-2.73 34.2-.58 52.17 0 0 3.74 2.3 10.49 0l8.48-49.58 1.18-28s2.13 24.87 4.57 40.82c-2.3 12.21-1.72 14.51 3.95 52.09a14.19 14.19 0 0012.72 0c3.21-52.79 2-100.9 1.42-118.2z" fill="#fff" opacity=".2"/><path d="M362.16 321.39l1-22.86c-5.91 0-11.39-4.41-15.56-8.6 4 7.13 11.77 10.3 11.77 10.3z" opacity=".3"/><path d="M386.44 235.67v44.76c-26.35 11-43.43 1.07-45.75-4.12 1.22-18.22-3.09-39.54-2.76-48.59s1.44-19.26 15.48-17.21l14.93 1.49 7.58 1.85z" fill="#fff"/><path d="M386.44 241.43l-10.79-11.88a51.66 51.66 0 0010.79 22.2z" opacity=".1"/><path d="M400.43 233.24l5 5.23 12.06-16a46.45 46.45 0 01-2.95-13.25 1.42 1.42 0 011.43-1.49 1.42 1.42 0 011.29.81l2.23 4.7a2.2 2.2 0 001.39-1.37l.44-1.24a7.81 7.81 0 00.44-2.58V205a2.48 2.48 0 013.68-2.16 12.17 12.17 0 013.65 3 6.58 6.58 0 011.49 4.18v4.18a9.35 9.35 0 01-.55 3.14l-2.18 6a9 9 0 01-.75 1.57L411.57 251a7.41 7.41 0 01-11.28 1.75l-9.91-8.8z" fill="#b06d6d"/><path d="M408.55 244.9s-.83-4.08-3.09-6.43l1.39-1.84c1.05 1.94 2.52 5.7 1.7 8.27z" fill="#b06d6d"/><path d="M408.55 244.9s-.83-4.08-3.09-6.43l1.39-1.84c1.05 1.94 2.52 5.7 1.7 8.27z" fill="#8c4d4d"/><path d="M401.67 233.27l-14.15-13.92a19.91 19.91 0 00-11.63-5.58h-.26c-6 13.13 1.93 19.53 1.93 19.53l13.16 12.09a23.74 23.74 0 0010.95-12.12z" fill="#fff"/><path d="M375.5 181.22a2.09 2.09 0 00.31-2.33 2.75 2.75 0 002.23-.31 2.08 2.08 0 001-1.9 1.73 1.73 0 00-1.44-1.52 2.73 2.73 0 001.7-1.16 2.77 2.77 0 00.54-2 3.64 3.64 0 00-2.5-2.78 8.79 8.79 0 00-3.89-.21 3.11 3.11 0 00-1.64-3.68 3.82 3.82 0 00-3.57.58 11.26 11.26 0 00-2.53 2.79 11.46 11.46 0 00-9.32-.6 11.64 11.64 0 00-6.51 6.77 7.63 7.63 0 00-4.94 5.16 12 12 0 00.42 7.24 33.1 33.1 0 003.39 6.52c.61 1 1.24 2 1.86 3 .79 1.24 2.79 4.31 3.57 5.55a11.6 11.6 0 0011-.68 18.75 18.75 0 007.09-8.8 60.27 60.27 0 003.23-11.64z" fill="#263238"/><path d="M358.91 203.59a10.78 10.78 0 01-4.84-1.11c-.39-.62-1.08-1.69-1.78-2.77l-1.79-2.78c-.62-1-1.25-2-1.86-3a32.22 32.22 0 01-3.4-6.56 12.28 12.28 0 01-.43-7.34 7.74 7.74 0 015-5.25 11.75 11.75 0 016.57-6.79 11.53 11.53 0 019.33.53 11.15 11.15 0 012.49-2.7 4 4 0 013.74-.61 3.35 3.35 0 011.82 3.65 8.36 8.36 0 013.7.25A3.75 3.75 0 01380 172a2.92 2.92 0 01-.57 2.12 3.45 3.45 0 01-1.24 1.06 1.9 1.9 0 011 1.49 2.23 2.23 0 01-1.05 2.07 3 3 0 01-2 .41 2.08 2.08 0 01-.42 2.17 60.89 60.89 0 01-3.23 11.6 18.81 18.81 0 01-7.16 8.88 12.29 12.29 0 01-6.42 1.79zm-4.63-1.41a11.37 11.37 0 0010.82-.69 18.81 18.81 0 007-8.72 60.61 60.61 0 003.21-11.58v-.06a1.89 1.89 0 00.27-2.13l-.18-.38.4.14a2.5 2.5 0 002.07-.29 1.85 1.85 0 00.89-1.74 1.53 1.53 0 00-1.28-1.35l-1.3-.16 1.29-.19a2.67 2.67 0 001.59-1.1 2.55 2.55 0 00.5-1.85 3.45 3.45 0 00-2.38-2.63 8.51 8.51 0 00-3.81-.2h-.28l.1-.27a3 3 0 00-1.54-3.46 3.7 3.7 0 00-3.41.56 11.26 11.26 0 00-2.49 2.75l-.09.12-.13-.07a11.23 11.23 0 00-9.18-.58A11.39 11.39 0 00350 175v.09h-.09a7.47 7.47 0 00-4.82 5 11.93 11.93 0 00.42 7.13 32.88 32.88 0 003.37 6.49c.61 1 1.24 2 1.86 3l1.78 2.77c.68 1.02 1.36 2.08 1.76 2.7z" fill="#272525"/><path d="M377.21 188.89l2.36 4.1-2.33.86a48.27 48.27 0 00-.03-4.96z" fill="#8c4d4d"/><path d="M375.5 181.22a32.88 32.88 0 011.71 7.67 48.27 48.27 0 010 5 47.3 47.3 0 01-.81 6.93 7.53 7.53 0 01-1.37 3.48 5.45 5.45 0 01-3.77 1.73 16 16 0 01-4.24-.4v6.72c-5.1 1.2-9.32 1.73-13.32-1.35l.42-8.64a12.48 12.48 0 007.18-1.14c3.53-1.9 4.51-4.93 4-6.63a2.67 2.67 0 01-2.76 1 3.72 3.72 0 01-2.28-1.82 7.54 7.54 0 01-.86-2.86 5.27 5.27 0 01.52-3.55 3.71 3.71 0 014-1.34 5.72 5.72 0 013.36 2.81 9.89 9.89 0 01.59 1.28.79.79 0 001.54-.19 10.63 10.63 0 00-1-5.63 4.3 4.3 0 001.89.44 2.37 2.37 0 001.8-.84 1.61 1.61 0 00.07-1.91c1.73.78 3.33-.76 3.33-.76z" fill="#b06d6d"/><path d="M429 212.56a12.83 12.83 0 00-5.39-7.31c-1.7-1-3.24-1-4.31-.29a5.46 5.46 0 00.84 1.93c.81-.73 2.05-.8 3.46 0a9.62 9.62 0 014.06 5.5 7.29 7.29 0 01.31 2.05 1.61 1.61 0 00.72 1.26c.39.22.73 0 .73-.42a10.21 10.21 0 00-.42-2.72z" fill="#e0e0e0"/><path d="M252.23 449.3c-.68 1.43-2.86 2.76-5.23 3.15s-4.8-.12-7.19-.45a47.46 47.46 0 00-10.72-.28 55.26 55.26 0 01-6.67.48 10.54 10.54 0 01-6.27-2 6.37 6.37 0 01-2.36-4 6.05 6.05 0 002.36 5.4 10.61 10.61 0 006.27 2 57.37 57.37 0 006.67-.48 48 48 0 0110.72.27c2.39.34 5 1 7.36.63s4.55-1.72 5.23-3.16z" fill="#263238"/><path d="M226.21 445.05c2 0 1.26-3 3.16-4.94-.77 0-1.55.06-2.33.06-1.71 2.46-2.19 4.88-.83 4.88zm4.15-.15c2 0 1.49-3.53 3.46-5.59a13.38 13.38 0 01-1.37.4c-.39.09-.79.15-1.19.21-1.76 2.5-2.26 4.98-.9 4.98z" fill="#fff"/><path d="M250.16 438.13a2.69 2.69 0 00-1-1.63l-10.81-.26a9.25 9.25 0 01-4.49 3.07c-2 2.06-1.45 5.59-3.46 5.59-1.37 0-.86-2.48.9-5-.62.09-1.25.15-1.89.19-1.9 2-1.16 4.94-3.16 4.94-1.36 0-.88-2.42.83-4.88h-1.51c-.46 0-.92 0-1.38-.07-4 3.14-4.32 6.55-3.8 11.9a13.1 13.1 0 002.07.22 55.26 55.26 0 006.67-.48 47.46 47.46 0 0110.72.28c2.39.33 4.81.84 7.19.45s4.55-1.72 5.23-3.15z" fill="#455a64"/><path d="M224.15 440.08a17.23 17.23 0 00-5.41 0 6.44 6.44 0 00-4.86 4.24 4.69 4.69 0 00-.09 1.9 6.37 6.37 0 002.36 4 9.21 9.21 0 004.2 1.77c-.52-5.36-.18-8.77 3.8-11.91z" fill="#fff"/><path d="M238 433.15v5.21a2.14 2.14 0 002.14 2.14h5.45a3.5 3.5 0 003.51-3.39l.13-4z" fill="#ffa8a7"/><path d="M274 430.84a4 4 0 01-3.28 2.29 6.81 6.81 0 01-4.15-1c-1.88-1.19-2.61-3.06-3.89-4.75a28.15 28.15 0 00-4.52-4.41 15 15 0 01-4.32-5 6.89 6.89 0 01-.51-1.84 6.54 6.54 0 00.51 3.52 14.92 14.92 0 004.32 5 28.22 28.22 0 014.52 4.42c1.28 1.69 2 3.56 3.89 4.75a6.81 6.81 0 004.15 1 4 4 0 003.28-2.29 9.36 9.36 0 00.2-2.91 3.85 3.85 0 01-.2 1.22z" fill="#263238"/><path d="M261.75 419.41a1.34 1.34 0 00-.27.89 1 1 0 00.59.67 1.3 1.3 0 001.22-.32 6.18 6.18 0 00.84-1 6.3 6.3 0 014.45-2.4l-1.35-1.25a6.6 6.6 0 00-2.47.61 6.75 6.75 0 00-3.01 2.8z" fill="#fff"/><path d="M262 415.11a6.83 6.83 0 00-3 2.78 1.33 1.33 0 00-.26.89.91.91 0 00.59.67 1.3 1.3 0 001.21-.31 6.32 6.32 0 00.85-1 6.41 6.41 0 012.78-2 6.5 6.5 0 012.73-.36l-1.34-1.22a6.75 6.75 0 00-3.56.55z" fill="#fff"/><path d="M264.73 413.75a14.25 14.25 0 00-4.24-2.83 5.65 5.65 0 00-5.84.8 5.06 5.06 0 00-1.29 4.38 6.89 6.89 0 00.51 1.84 9.74 9.74 0 001.34 2.12c.52-4.66 4.56-6.83 9.52-6.31z" fill="#fff"/><path d="M274.14 426.27a9.68 9.68 0 00-1.06-4.55l-2.63-2.72-1.87-1.71a6.3 6.3 0 00-4.45 2.4 6.18 6.18 0 01-.84 1 1.3 1.3 0 01-1.22.32 1 1 0 01-.59-.67 1.34 1.34 0 01.27-.89 6.75 6.75 0 013-2.78 6.6 6.6 0 012.47-.61l-.31-.28a6.5 6.5 0 00-2.73.36 6.41 6.41 0 00-2.78 2 6.32 6.32 0 01-.85 1 1.3 1.3 0 01-1.21.31.91.91 0 01-.59-.67 1.33 1.33 0 01.26-.89 6.83 6.83 0 013-2.78 6.75 6.75 0 013.54-.59h-.05l-.8-.73c-5-.52-9 1.65-9.52 6.31a23.27 23.27 0 003 2.89 28.15 28.15 0 014.52 4.41c1.28 1.69 2 3.56 3.89 4.75a6.81 6.81 0 004.15 1 4 4 0 003.28-2.29 3.85 3.85 0 00.2-1.22 33.18 33.18 0 00-.08-3.37z" fill="#455a64"/><path d="M264.65 418l.31 5.59c3.53 2 7.24.92 8.48-.36l.23-5.23z" fill="#ffa8a7"/><path d="M271.6 297.21a5 5 0 01-.53-1.93l-.3-4.79-34.19 2.19c-.45 2.4-.91 5.34-1.35 8.67a50.85 50.85 0 0036.37-4.14z" fill="#ff9192"/><path d="M270.93 277.85l7.29 14.07L271.6 303l7.32 11.57 11-17.15a9.65 9.65 0 001.13-7.92 134 134 0 00-7.14-19.5z" fill="#ffa8a7"/><path d="M265.15 250.68c8.38-1.56 13.17 1.23 20.25 20.19-2.89 6.48-15.16 8.88-15.16 8.88z" fill="#fca311"/><path d="M265.15 250.68c8.38-1.56 13.17 1.23 20.25 20.19-2.89 6.48-15.16 8.88-15.16 8.88z" fill="#fff" opacity=".4"/><path fill="#ff9192" d="M236.87 230.99l-2.83 4.91 3.09 1.14-.26-6.05z"/><path d="M236.55 228.8c.45-4.31 1.71-8.37 4.52-10.43a23.2 23.2 0 003.23 15.41 6.69 6.69 0 012.08-3.69 3.9 3.9 0 014-.86 4 4 0 012 2.2 5.23 5.23 0 01-6.53 6.91 10 10 0 007.72 7.82 13 13 0 007.49-.71l1.16 5.8c-4.72 5-12.8 1.66-12.8 1.66l-1.06-5.71c-9.29.55-10.16.39-11.18-4.73a49.51 49.51 0 01-.63-13.67z" fill="#ffa8a7"/><path d="M235.44 218.48a15 15 0 018.86-8.11 25.37 25.37 0 0112.21-.93 22.07 22.07 0 017.29 2.15 12.33 12.33 0 015.38 5.36l.48-4a2.91 2.91 0 012.15 1.92 3.18 3.18 0 01-.73 2.91h.37a12.46 12.46 0 0112.46 12.46v21.17a12.24 12.24 0 01-12.24-12.24v-4.86a23.07 23.07 0 01-7 9.17 16 16 0 01-3.54 1.93 13 13 0 01-7.49.71 10 10 0 01-7.72-7.82 5.23 5.23 0 006.53-6.91 4 4 0 00-2-2.2 3.9 3.9 0 00-4 .86 6.69 6.69 0 00-2.08 3.69 23.2 23.2 0 01-3.23-15.41c-2.81 2.06-4.07 6.12-4.52 10.43a11 11 0 01-1.18-10.28z" fill="#fca311"/><path d="M235.44 218.48a15 15 0 018.86-8.11 25.37 25.37 0 0112.21-.93 22.07 22.07 0 017.29 2.15 12.33 12.33 0 015.38 5.36l.48-4a2.91 2.91 0 012.15 1.92 3.18 3.18 0 01-.73 2.91h.37a12.46 12.46 0 0112.46 12.46v21.17a12.24 12.24 0 01-12.24-12.24v-4.86a23.07 23.07 0 01-7 9.17 16 16 0 01-3.54 1.93 13 13 0 01-7.49.71 10 10 0 01-7.72-7.82 5.23 5.23 0 006.53-6.91 4 4 0 00-2-2.2 3.9 3.9 0 00-4 .86 6.69 6.69 0 00-2.08 3.69 23.2 23.2 0 01-3.23-15.41c-2.81 2.06-4.07 6.12-4.52 10.43a11 11 0 01-1.18-10.28z" opacity=".6"/><path d="M249.45 252.91l-9.14 1.8c-2 3.7-4.09 7.17-6.11 10.87-1.52 2.79-3.09 5.75-3 8.93a9.09 9.09 0 005.48 7.88l-1.06 12.49c14.37 4.39 31.93.53 35.78-2.79 1.14-5.24 2.14-10.81 3.28-16a54.63 54.63 0 001.54-10.31 18.23 18.23 0 00-2.41-10l-.06-.08a11.15 11.15 0 00-11.22-4.82z" fill="#fca311"/><path d="M249.45 252.91l-9.14 1.8c-2 3.7-4.09 7.17-6.11 10.87-1.52 2.79-3.09 5.75-3 8.93a9.09 9.09 0 005.48 7.88l-1.06 12.49c14.37 4.39 31.93.53 35.78-2.79 1.14-5.24 2.14-10.81 3.28-16a54.63 54.63 0 001.54-10.31 18.23 18.23 0 00-2.41-10l-.06-.08a11.15 11.15 0 00-11.22-4.82z" opacity=".1"/><path d="M249.45 252.91l-9.14 1.8c-2 3.7-4.09 7.17-6.11 10.87-1.52 2.79-3.09 5.75-3 8.93a9.09 9.09 0 005.48 7.88l-1.06 12.49c14.37 4.39 31.93.53 35.78-2.79 1.14-5.24 2.14-10.81 3.28-16a54.63 54.63 0 001.54-10.31 18.23 18.23 0 00-2.41-10l-.06-.08a11.15 11.15 0 00-11.22-4.82z" fill="#fff" opacity=".53"/><path d="M272.13 298.08a5.46 5.46 0 01-.53-.87 50.85 50.85 0 01-36.37 4.14c-2.58 19.17-4.8 51.65-3.44 73.07 1.13 24.94 5.72 60.26 5.72 60.26 6 1.8 10.48.7 12.17-.6 2-24.74 6.39-41.7 3-58.06 2.26-11.44 3.72-25.81 3.72-25.81l1.73 25.28 5.87 44.43a10.51 10.51 0 0010.51-.54c4.26-25.4 5.86-42.62 2.13-55.23 5.66-41.69 5.95-52.35-4.51-66.07z" fill="#fca311"/><path d="M272.13 298.08a5.46 5.46 0 01-.53-.87 50.85 50.85 0 01-36.37 4.14c-2.58 19.17-4.8 51.65-3.44 73.07 1.13 24.94 5.72 60.26 5.72 60.26 6 1.8 10.48.7 12.17-.6 2-24.74 6.39-41.7 3-58.06 2.26-11.44 3.72-25.81 3.72-25.81l1.73 25.28 5.87 44.43a10.51 10.51 0 0010.51-.54c4.26-25.4 5.86-42.62 2.13-55.23 5.66-41.69 5.95-52.35-4.51-66.07z" opacity=".5"/><path d="M258.92 345.22l3.14-13.16c3.65-.6 9.37-3 12.38-8a25.19 25.19 0 01-15.18 5.35l-2.86 20.81.61 8.9.25-3.24a67.22 67.22 0 011.66-10.66z" opacity=".3"/><path d="M217.13 273l-4.71 4.91-11.29-15a43.1 43.1 0 002.76-12.4 1.33 1.33 0 00-1.33-1.4 1.34 1.34 0 00-1.21.76l-2.09 4.4A2 2 0 01198 253l-.41-1.16a7.12 7.12 0 01-.42-2.42v-2.92a2.32 2.32 0 00-3.44-2 11.57 11.57 0 00-3.42 2.82 6.22 6.22 0 00-1.39 3.92v3.91a8.43 8.43 0 00.52 2.94l2 5.61a8.58 8.58 0 00.69 1.47l14.58 24.42a6.93 6.93 0 0010.56 1.63l9.28-8.24z" fill="#ffa8a7"/><path d="M209.53 283.87a14.14 14.14 0 012.89-6l-1.3-1.73c-.98 1.8-2.36 5.33-1.59 7.73z" fill="#f28f8f"/><path d="M209.53 283.87a14.14 14.14 0 012.89-6l-1.3-1.73c-.98 1.8-2.36 5.33-1.59 7.73z" fill="#ff9192"/><path d="M216 273l13.25-13a18.62 18.62 0 0110.89-5.22h.24C246 267 238.54 273 238.54 273l-12.32 11.32A22.27 22.27 0 01216 273z" fill="#fca311"/><path d="M216 273l13.25-13a18.62 18.62 0 0110.89-5.22h.24C246 267 238.54 273 238.54 273l-12.32 11.32A22.27 22.27 0 01216 273z" fill="#fff" opacity=".4"/></svg>