<svg xmlns="http://www.w3.org/2000/svg" data-name="Layer 1" width="709" height="516.438"><path d="M529.115 336.416a2.04 2.04 0 001.478-3.536l-.14-.556.056-.133a5.478 5.478 0 0110.106.037c1.653 3.981 3.757 7.969 4.275 12.178a16.207 16.207 0 01-.285 5.574 64.977 64.977 0 005.911-26.988 62.717 62.717 0 00-.389-6.996q-.322-2.857-.894-5.673a65.73 65.73 0 00-13.035-27.858 17.493 17.493 0 01-7.275-7.548 13.344 13.344 0 01-1.214-3.646c.355.046.715.075 1.069.098l.337.018.041.002a2.021 2.021 0 001.66-3.293l-.459-.565c-.232-.29-.47-.574-.702-.865a1.007 1.007 0 01-.076-.087c-.267-.33-.534-.656-.801-.987a5.844 5.844 0 011.916-1.852c2.677-1.568 6.37-.482 8.303 1.94a10.562 10.562 0 011.631 8.842 23.422 23.422 0 01-3.24 7.223c.146.186.297.366.442.552a66.154 66.154 0 016.905 10.939 27.501 27.501 0 011.641-12.774c1.572-3.791 4.518-6.984 7.112-10.262a5.645 5.645 0 0110.053 2.772l.016.145q-.578.326-1.131.692a2.767 2.767 0 001.115 5.036l.057.008a27.533 27.533 0 01-.726 4.117 28.348 28.348 0 01-14.115 17.767c-.226.116-.447.232-.674.343a67.524 67.524 0 013.635 17.105 64.044 64.044 0 01-.046 10.34l.017-.121a16.923 16.923 0 015.777-9.772c4.446-3.652 10.727-4.997 15.524-7.933a3.176 3.176 0 014.864 3.09l-.02.128a18.588 18.588 0 00-2.084 1.005q-.578.326-1.132.692a2.767 2.767 0 001.116 5.036l.057.008.116.018a27.557 27.557 0 01-5.07 7.937 28.374 28.374 0 01-20.576 9.028h-.006a67.505 67.505 0 01-4.535 13.239h-16.2c-.057-.18-.11-.366-.162-.546a18.406 18.406 0 004.483-.267c-1.202-1.475-2.404-2.961-3.606-4.436a1.007 1.007 0 01-.075-.087c-.61-.755-1.226-1.504-1.835-2.259a26.96 26.96 0 01.79-6.869z" fill="#f2f2f2"/><path d="M480.109 187.802c0 8.917 4.46 17.991 13.378 17.991s21.22-6.458 18.453-20.297c-1.75-8.744-6.768-13.84-15.685-13.84a16.146 16.146 0 00-16.146 16.146z" fill="#2f2e41"/><path d="M517.515 315.206a4.964 4.964 0 011.062-7.538l-3.903-17.204 8.58 3.229 2.391 15.842a4.991 4.991 0 01-8.13 5.67z" fill="#a0616a"/><path d="M499.303 254.227l5.989.61s-1.566 8.871.883 10.87 1.462 1.988 1.448 3.47a7.594 7.594 0 002.91 5.458c1.96 1.5 6.037 28.212 6.037 28.212l8.885.085a27.841 27.841 0 01.067-6.911c.526-3.45 3.19-12.143 2.216-13.633s-.46-4.232-.432-7.193-4.209.31-4.161-4.626-5.388-35.912-4.851-40.35-4.856-8.44-4.856-8.44l-4.937-.047z" fill="#e6e6e6"/><path d="M435.728 212.568a4.704 4.704 0 004.392 5.721l4.804 16.01 5.57-6.665-5.415-14.18a4.729 4.729 0 00-9.35-.886z" fill="#a0616a"/><path d="M486.448 217.782s-11.614-4.354-17.91 19.493l-8.359 8.657-7.022-12.69.928-3.01-5.427-12.303-9.305 5.34 2.29 8.447-.386 4.176 2.223 2.597 3.64 13.424 2.277 4.385s2.872 5.615 7.884 6.54a12.98 12.98 0 004.052.115 15.685 15.685 0 008.505-4.246 208.144 208.144 0 0017.553-17.646z" fill="#e6e6e6"/><path fill="#a0616a" d="M502.026 257.714l.822 3.915.698 14.441-28.064-3.8-2.155-16.722 2.978-4.894 25.721 7.06z"/><circle cx="492.923" cy="192.278" r="13.282" fill="#a0616a"/><path d="M515.177 223.337a17.532 17.532 0 00-12.2-10.24l-.05-.01-2.63-3.54-10.67 1.07-1.95 4-5.06 3.01h-.01l-.01.01-2.65 1.58-8.79 10.29-.01.01a11.336 11.336 0 00-4.89 7.58 13.35 13.35 0 00-.13 2.67c.29 5.47 3.71 10.34 4.18 10.99l1.15 6.47.23 1.33 2.07.3 29.16 4.17.81.12.24.03.84-2.17v-.02l8.13-21.27 3.65-9.49a17.19 17.19 0 00-1.41-6.89z" fill="#e6e6e6"/><path d="M506.823 195.76c-.12-.02-.24-.045-.361-.064-2.072-.367-4.144-.728-6.21-1.102l-.19-4.682-2.502 4.194c-5.709 1.894-11.05.824-16.074-1.54a45.381 45.381 0 01-4.815-2.654c-1.081-6.596 1.646-11.793 8.648-12.457.218-.02.374-.202.564-.297a.006.006 0 00.006-.007c.323-.152.653-.298.982-.43a14.63 14.63 0 0115.359 2.977 17.48 17.48 0 014.593 16.062z" fill="#2f2e41"/><path d="M519.907 302.877a61.736 61.736 0 00-2.88-11.52v-.01a57.643 57.643 0 00-4.14-9.14.01.01 0 01-.01-.01 44.761 44.761 0 00-9.13-11.76l-.39-.41h-.1l-28.16-.69h-.29l-.32-.01s-.12.35-.35 1.01a.564.564 0 01-.04.12c-.08.26-.18.56-.3.89-.07.22-.15.45-.23.7-.09.27-.19.55-.29.85-.78 2.33-1.92 5.71-3.32 9.9-.21.64-.43 1.3-.66 1.99-5.34 16.07-13.93 42.33-21.43 67.22h26.6c2.58-7.46 5.32-18.1 5.32-18.1 1.07-1.27 1.01-4.72 1.01-4.72l8.36-8.78 6.02 31.6h25.26l.19-35.17v-.3a71.513 71.513 0 00-.72-13.66z" fill="#ccc"/><path d="M501.734 176.821v.012a8.032 8.032 0 00.264 2.06c.028.117.062.24.101.359v.005a8.149 8.149 0 005.024 5.232c.174.067.353.123.533.174a7.28 7.28 0 001.156.236 7.379 7.379 0 001.061.073 8.078 8.078 0 00.831-.04 7.86 7.86 0 001.892-.432 2.376 2.376 0 00.28-.1 1.37 1.37 0 00.135-.057 8.147 8.147 0 004.204-11.03l-.005-.006a7.984 7.984 0 00-1.6-2.245c-1.47-1.465-2.119-5.136-4.353-5.136a3.055 3.055 0 00-.32.01c-1.498.051-4.269 3.285-5.448 4.048a7.945 7.945 0 00-2.234 2.117 8.045 8.045 0 00-1.313 2.896 8.151 8.151 0 00-.208 1.824z" fill="#2f2e41"/><path d="M511.679 173.987c1.264 1.472 3.243 2.044 5.028 2.81a21.154 21.154 0 0112.29 15.454c.493 2.754.429 5.605 1.208 8.29.775 2.684 2.694 5.318 5.448 5.784 1.864.319 3.732-.401 5.485-1.111q1.447-.582 2.893-1.168-1.509-3.785-3.013-7.57a38.363 38.363 0 005.587 6.537q5.183-2.09 10.375-4.18c-8.516.033-7.063-8.234-8.968-16.528-1.047-4.558-9.964-7.644-11.713-11.98a13.266 13.266 0 00-24.062-1.21c-1.748.697-1.8 3.419-.558 4.872z" fill="#2f2e41"/><path d="M475.509 271.358a12.57 12.57 0 00-8.62 7.808 3.99 3.99 0 00.036 3.427 1.747 1.747 0 002.148.814 4.306 4.306 0 001.869-1.99 25.217 25.217 0 001.473-3.38c.668-1.753 2.094-4.677.059-6.047-1.712-1.152-3.978-.705-5.904-.784-2.081-.085-4.394-.882-5.133-3.039-.72-2.098.966-4.07 2.783-4.868a7.235 7.235 0 016.754.643 9.793 9.793 0 013.921 5.672.693.693 0 01-1.334.368 8.21 8.21 0 00-3.736-5.118 5.6 5.6 0 00-5.967.233 2.455 2.455 0 00-1.061 2.766 3.327 3.327 0 002.382 1.785c2.196.53 4.493-.156 6.681.545a4.05 4.05 0 012.989 4.591 16.651 16.651 0 01-1.1 3.62 31.277 31.277 0 01-1.495 3.494c-.869 1.642-2.435 3.42-4.503 2.938-2.357-.549-2.916-3.3-2.411-5.323a13.804 13.804 0 019.8-9.49.693.693 0 01.369 1.335z" fill="#ccc"/><path d="M579.547 353.007h-164a7.008 7.008 0 01-7-7v-223a7.008 7.008 0 017-7h164a7.008 7.008 0 017 7v223a7.008 7.008 0 01-7 7zm-164-235a5.006 5.006 0 00-5 5v223a5.006 5.006 0 005 5h164a5.006 5.006 0 005-5v-223a5.006 5.006 0 00-5-5z" fill="#3f3d56"/><path d="M605.61 34.484H140.317a1.807 1.807 0 010-3.613H605.61a1.807 1.807 0 010 3.613z" fill="#cacaca"/><ellipse cx="171.241" cy="10.823" rx="10.588" ry="10.823" fill="#3f3d56"/><ellipse cx="207.816" cy="10.823" rx="10.588" ry="10.823" fill="#3f3d56"/><ellipse cx="244.391" cy="10.823" rx="10.588" ry="10.823" fill="#3f3d56"/><path d="M583.589 2.683h-25.981a1.968 1.968 0 000 3.934h25.98a1.968 1.968 0 000-3.934zm0 7.384h-25.981a1.968 1.968 0 000 3.935h25.98a1.968 1.968 0 000-3.935zm0 7.375h-25.981a1.968 1.968 0 000 3.934h25.98a1.968 1.968 0 000-3.934z" fill="#3f3d56"/><path d="M696 249.007h-53a13 13 0 010-26h53a13 13 0 010 26z" fill="#fca311"/><path d="M315.98 303.416a2.04 2.04 0 01-1.479-3.536l.14-.556-.056-.133a5.478 5.478 0 00-10.105.037c-1.653 3.981-3.757 7.969-4.275 12.178a16.207 16.207 0 00.284 5.574 64.977 64.977 0 01-5.91-26.988 62.717 62.717 0 01.388-6.996q.323-2.857.894-5.673a65.73 65.73 0 0113.035-27.858 17.493 17.493 0 007.276-7.548 13.343 13.343 0 001.213-3.646 16.57 16.57 0 01-1.068.098l-.337.018-.042.002a2.021 2.021 0 01-1.66-3.293l.46-.565c.232-.29.47-.574.702-.865a1.006 1.006 0 00.075-.087c.268-.33.535-.656.802-.987a5.844 5.844 0 00-1.916-1.852c-2.677-1.568-6.37-.482-8.303 1.94a10.562 10.562 0 00-1.632 8.842 23.422 23.422 0 003.24 7.223c-.145.186-.296.366-.441.552a66.155 66.155 0 00-6.905 10.939 27.501 27.501 0 00-1.642-12.774c-1.571-3.791-4.517-6.984-7.111-10.262a5.645 5.645 0 00-10.054 2.772l-.015.145q.577.326 1.131.692a2.767 2.767 0 01-1.116 5.036l-.056.008a27.532 27.532 0 00.726 4.117 28.348 28.348 0 0014.115 17.767c.226.116.447.232.673.343a67.524 67.524 0 00-3.635 17.105 64.044 64.044 0 00.047 10.34l-.018-.121a16.923 16.923 0 00-5.777-9.772c-4.446-3.652-10.727-4.997-15.523-7.933a3.176 3.176 0 00-4.865 3.09l.02.128a18.589 18.589 0 012.084 1.005q.578.326 1.132.692a2.767 2.767 0 01-1.116 5.035l-.056.01c-.04.005-.076.01-.116.017a27.557 27.557 0 005.069 7.937 28.374 28.374 0 0020.577 9.028h.006a67.504 67.504 0 004.534 13.238h16.2c.058-.18.11-.365.162-.545a18.406 18.406 0 01-4.482-.267c1.202-1.475 2.403-2.962 3.605-4.436a1.007 1.007 0 00.076-.087c.61-.755 1.225-1.504 1.835-2.259a26.96 26.96 0 00-.79-6.869z" fill="#f2f2f2"/><g opacity=".38"><path d="M285.22 279.882a5.856 5.856 0 01-.1-8.98l-13.238-34.609 10.58 2.241 11.233 33.29a5.888 5.888 0 01-8.474 8.058z" fill="#ffb8b8"/><path d="M290.667 241.977l-11.88-49.44-5.11-14.38a.035.035 0 01-.01-.02 9.297 9.297 0 00-4.83-5.32 9.28 9.28 0 00-7.21-.34 6.083 6.083 0 00-.59.24 10.466 10.466 0 00-1.19.64 9.43 9.43 0 00-4.23 6.19l-.9 4.72-.38 2.01 14.03 49.04v.02l4.88 17.08 2.26 7.88v.01l2.62 9.17.06.19 6.29-.42h.01l.95-.07 7.2-.48 1.04-.07z" fill="#2f2e41"/><path d="M242.437 159.432l26.461 53.514 16.74 56.903c-35.267 6.878-79.52 21.59-82.705.49 1.963-58.826 8.146-77.59 20.911-103.092z" fill="#2f2e41"/><path d="M277.817 318.007h-21.73l-8.81-29.77-6.2 29.39c-.02.13-.03.25-.05.38h-23.16c.75-9.2 2.12-25.2 2.77-27.47.92-3.22 0-3.22-1.84-5.06-.41-.41-.55-2.05-.51-4.34.11-7.89 2.26-23.52 2.26-23.52l2.55-4.72.88-1.64 45.42-1.6.39-.01.84 3.66 1.03 4.51 1.81 7.91 1.67 6.31.09.32v1.87a4.614 4.614 0 00-.38 2.07c0 .64 1.44 20.58 2.97 41.71z" fill="#2f2e41"/><path d="M239.336 167.368l3.118-7.461 9.652.17 10.064 14.235 10.563 44.423s3.794 32.45 0 34.163-49.735.802-49.735.802c2.127-17.525 3.712-35.352 5.383-46.002 5.522-35.197 8.128-27.79 10.955-40.33z" fill="#fca311"/><path d="M252.106 160.076s20.79 12.018 21.603 18.292 3.536 83.057 3.536 83.057l-7.352-4.75-2.01-27.986c1.402-24.867-2.018-43.402-8.972-57.296z" fill="#2f2e41"/><circle cx="247.198" cy="142.411" r="14.169" fill="#ffb8b8"/><path d="M229.739 141.57a24.64 24.64 0 003.37 8.074 5.496 5.496 0 001.838 2.087 2.01 2.01 0 002.553-.32l.345-.28a7.313 7.313 0 01-1.787-1.55 2.49 2.49 0 01-.479-2.228 1.533 1.533 0 011.877-1.003c.83.326 1.334 1.526 2.202 1.34.702-.152.849-1.078.849-1.805-.026-3.805 1.812-9.21 3.236-9.045a11.477 11.477 0 004.244-.568 11.12 11.12 0 014.251-.542c.102.012.204.031.313.05a9.413 9.413 0 01.944-2.061 11.014 11.014 0 00.115 2.336 21.849 21.849 0 003.536 1.117c1.315.185 4.207 4.117 4.34 3.715a9.413 9.413 0 01.945-2.062 11.014 11.014 0 00.115 2.336c.007.032.007.058.013.09.638-.85 1.028-1.883.81-1.092 2.139-4.838 1.309-8.304-2.055-12.382a6.468 6.468 0 00-2.52-2.024 3.18 3.18 0 00-3.103.307 10.437 10.437 0 00-10.353-2.209c-3.504 1.22-6.204 1.934-6.74 5.61a7.8 7.8 0 00-7.474 3.639 11.78 11.78 0 00-1.385 8.47z" fill="#2f2e41"/><path d="M190.034 276.386a5.856 5.856 0 014.246-7.913l5.109-36.7 8.184 7.068-6.228 34.577a5.888 5.888 0 01-11.311 2.968z" fill="#ffb8b8"/><path d="M235.127 178.417l-.39-3.56a9.423 9.423 0 00-5.44-7.52 9.183 9.183 0 00-3.64-.85h-.01a9.415 9.415 0 00-8.81 5.56l-6.24 13.95-15.75 48.35-5.09 26.3 5.5.81 7.97 1.17.06.01 1.83.27 25.57-68.44.01-.02 4.78-12.79z" fill="#2f2e41"/></g><path d="M330.547 319.007h-164a7.008 7.008 0 01-7-7v-223a7.008 7.008 0 017-7h164a7.008 7.008 0 017 7v223a7.008 7.008 0 01-7 7zm-164-235a5.006 5.006 0 00-5 5v223a5.006 5.006 0 005 5h164a5.006 5.006 0 005-5v-223a5.006 5.006 0 00-5-5zM66 249.007H13a13 13 0 010-26h53a13 13 0 010 26zm26 51H39a13 13 0 010-26h53a13 13 0 010 26z" fill="#e6e6e6"/><path fill="#e6e6e6" d="M120.005 292.47l.03-2 102.418 1.48-.028 2z"/><path d="M226.736 297.526a5.007 5.007 0 01-4.503-2.808 5 5 0 114.503 2.808zm-.01-8a3 3 0 00-2.695 4.315 2.998 2.998 0 102.694-4.316zM98.005 239.47l.03-2 102.418 1.48-.028 2z" fill="#e6e6e6"/><path d="M204.736 244.526a5.007 5.007 0 01-4.503-2.808 5.002 5.002 0 114.503 2.808zm-2.705-3.685a3 3 0 10-.14-2.292 3.002 3.002 0 00.14 2.292zM106 199.007H53a13 13 0 010-26h53a13 13 0 010 26zm32.005-9.537l.03-2 102.418 1.48-.028 2z" fill="#e6e6e6"/><path d="M244.736 194.526a5.007 5.007 0 01-4.503-2.808 5.002 5.002 0 114.503 2.808zm-2.705-3.685a3 3 0 10-.14-2.292 3.002 3.002 0 00.14 2.292z" fill="#e6e6e6"/><path fill="#3f3d56" d="M514.88 232.653l.03-2 102.419 1.48-.03 2z"/><path d="M510.61 237.079a5.009 5.009 0 112.187-.509 5.005 5.005 0 01-2.187.509zm-.007-8.005a3.002 3.002 0 102.699 1.687 3.007 3.007 0 00-2.7-1.687z" fill="#3f3d56"/><path d="M696 352.007h-53a13 13 0 010-26h53a13 13 0 010 26z" fill="#fca311"/><path fill="#3f3d56" d="M514.88 335.653l.03-2 102.419 1.48-.03 2z"/><path d="M510.61 340.078a5.001 5.001 0 114.49-7.193 5.004 5.004 0 01-4.49 7.193zm-.007-8.004a3.002 3.002 0 102.699 1.688 3.006 3.006 0 00-2.7-1.688z" fill="#3f3d56"/><path d="M378.97 351.886a5.883 5.883 0 00.258-8.956l9.525-27.732-7.023-4.52-11.072 33.02a5.875 5.875 0 008.312 8.188z" fill="#ffb6b6"/><path d="M387.098 275.37c-1.682 7.115-4.193 13.331-3.853 16.316.337 2.977-3.301 5.838-2.145 8.191 1.154 2.359-2.398 2.611-1.438 6.408.964 3.805 1.59 4.618.777 5.245-.82.623-5.15 15.145-5.15 15.145l2.54.93 7.41 2.704 17.415-28.642-.053-35.157-4.324-.139c-1.038.39-2.188.856-3.334 1.419-3.503 1.69-7.046 4.19-7.845 7.58z" fill="#fca311"/><path fill="#ffb6b6" d="M451.224 498.447h9.056l4.308-34.929h-13.366l.002 34.929z"/><path d="M463.293 499.263v-6.14l-2.38.146-9.692.574-2.243.138-1.714 20.56-.092 1.103h6.43l.207-1.095.933-4.975 2.412 4.975.528 1.095h17.047a3.852 3.852 0 003.828-3.835c.72-3.36-13.458-10.625-15.264-12.546z" fill="#2f2e41"/><path fill="#ffb6b6" d="M345.131 488.59l7.877 4.469 20.984-28.254-11.625-6.595-17.236 30.38z"/><path d="M355.23 495.251l3.024-5.335-2.128-1.049-8.72-4.279-2.02-.995-9.928 14.537-2.335 3.414 2.64 1.5 2.948 1.676 3.996-4.715-.444 6.729 13.924 7.907h.007l.896.505a3.834 3.834 0 005.22-1.446c2.282-2.572-6.46-15.877-7.08-18.449zm51.053-168.264c-12.135 8.041-24.147 85.298-20.995 84.037l-28.602 53.305 14.62 9.884 52.86-84.58 17.571 37.416 7.257 57.432 18.202-1.3c-4.73-64.702-16.539-132.942-26.325-159.338z" fill="#2f2e41"/><path d="M397.07 332.725l-.132.496c12.829 7.138 47.944-1.13 47.944-1.13l-5.66-18.236 7.64-40.513a11.842 11.842 0 00-12.721-11.735l-9.219-6.83-13.124.453-8.78 9.697-5.244 1.874-4.075 1.453a37.38 37.38 0 00-2.584 2.54l6.445 38.361 2.742 11.47z" fill="#fca311"/><circle cx="418.373" cy="236.417" r="16.839" fill="#ffb6b6"/><path d="M396.231 230.55c.05.02.094.039.145.058a2.357 2.357 0 00.295.107 8.133 8.133 0 001.992.458 7.975 7.975 0 00.874.046 8.226 8.226 0 001.12-.072 7.918 7.918 0 001.22-.249 5.807 5.807 0 00.56-.18 8.578 8.578 0 005.31-5.502v-.007a3.71 3.71 0 00.107-.377 8.514 8.514 0 00.282-2.169v-.012a8.514 8.514 0 00-1.59-4.978c-.627-.889-1.351-1.037-.945-2.053 1.295-3.24-4.004-5.889-7.133-4.464a3.064 3.064 0 00-.34-.013c-2.106-.006-2.887 3.105-4.143 4.856l.036.012a1.616 1.616 0 01-.02 3.058q-1.254.41-2.535.722c-2.815 3.325.412 13.051 4.765 10.76z" fill="#2f2e41"/><path d="M397.78 239.466a17.48 17.48 0 005.486 9.302c2.85 2.302 16.249 7.757 17.38 3.087-.757 3.262-.3 4.508.916 5.675.209-.283.43-.552.657-.816a10.609 10.609 0 012.961-2.376 34.1 34.1 0 01-.423 5.885 19.897 19.897 0 011.43 1.463c2.167-6.46 6.917-14.196 3.478-20.077-1.365-2.334-.227-2.654.982-2.922 2.11-.468 3.274-9.129 3.776-11.234.623-2.64.87-5.677-.766-7.844s-5.774-2.26-6.61.323l-1.742-2.37c-2.252-4.954-8.228-3.963-13.632-3.323a16.793 16.793 0 00-12.607 9.3 22.973 22.973 0 00-1.285 15.927z" fill="#2f2e41"/><path d="M406.3 216.832a15.254 15.254 0 01-8.726 14.377c-1.098.498-2.054-1.13-.949-1.631a13.42 13.42 0 007.788-12.75c-.063-1.214 1.823-1.205 1.886.004z" fill="#fca311"/><path d="M482.355 226.148a5.883 5.883 0 00-3.771 8.128l-19.696 21.722 4.67 6.925 23.203-25.971a5.875 5.875 0 00-4.406-10.804z" fill="#ffb6b6"/><path d="M426.37 296.621s13.968 2.51 18.322-3.371 9.113-10.597 9.98-13.472 5.335-4.062 5.203-6.683 3.234-1.45 3.848-5.323.36-4.87 1.359-5.123 10.702-11.884 10.702-11.884l-7.706-7.266-27.302 19.446z" fill="#fca311"/><path d="M321.308 508.31a36.597 36.597 0 01-26.634-16.827c-3.78-6.129-5.73-13.407-7.616-20.446-.549-2.049-1.116-4.167-1.717-6.209a11.68 11.68 0 013.857-12.506 11.483 11.483 0 0112.8-1.32l.44.233.774 17.38c1.146-2.328 3.66-7.588 5.652-12.84l.167-.44.382.275a58.745 58.745 0 0110.794 10.03 60.546 60.546 0 0112.815 49.268l-.096.516z" fill="#f2f2f2"/><path d="M250.438 515.248a1.186 1.186 0 001.19 1.19h290.29a1.19 1.19 0 000-2.38h-290.29a1.187 1.187 0 00-1.19 1.19z" fill="#ccc"/></svg>