<svg xmlns="http://www.w3.org/2000/svg" data-name="Layer 1" width="652" height="570.125"><path d="M109.955 505.868c-21.42 11.55-30.614 36.063-30.614 36.063s25.533 5.787 46.953-5.763 30.615-36.063 30.615-36.063-25.534-5.787-46.954 5.763z" fill="#f2f2f2"/><path d="M117.002 513.807c-12.545 20.852-37.464 28.883-37.464 28.883s-4.578-25.777 7.967-46.63 37.464-28.883 37.464-28.883 4.579 25.777-7.967 46.63z" fill="#f2f2f2"/><path fill="#2f2e41" d="M437.445 40.125h76v45h-76z"/><path d="M362.152 47.381h-39.184V33.717a19.592 19.592 0 0139.184 0zm-38.317-.867h37.45V33.717a18.725 18.725 0 00-37.45 0z" fill="#3f3d56"/><path fill="#3f3d56" d="M381.527 45.502v-5.34l-99.65 2.67-3.154 135.26 14.748 18.218 88.056-150.808z"/><path fill="#fca311" d="M399.167 43.622L291.158 46.08l2.313 150.23 104.234-11.235 1.462-141.453z"/><path fill="#ffb6b6" d="M490.997 530.355h-12.26l-5.832-47.288h18.094l-.002 47.288z"/><path d="M494.123 542.24l-39.53-.002v-.5a15.387 15.387 0 0115.386-15.387h.001l24.144.001z" fill="#2f2e41"/><path fill="#ffb6b6" d="M445.997 530.355h-12.26l-5.832-47.288h18.094l-.002 47.288z"/><path d="M449.123 542.24l-39.53-.002v-.5a15.387 15.387 0 0115.386-15.387h.001l24.144.001zm-39.131-307.98s-17.912 38.574-1.73 116.22 16.317 162.888 16.317 162.888l24.743.403 13.9-183.52 7.278 180.93h24.378l21.485-178.07s14.137-79.513-17.39-93.75z" fill="#2f2e41"/><path d="M495.733 98.125l-54.178-4.994c-16.99 12.384-26.525 34.625-24.568 57.574 2.654 31.114 1.756 73.934-19.542 92.536 0 0 58.05 45.816 109.615 2.35 0 0-17.633-47.238-5.527-66.102s16.474-71.864-5.8-81.364z" fill="#e4e4e4"/><path d="M334.527 21.242a10.743 10.743 0 0011.44 11.852L417.5 99.852l12.82-19.53-74.345-59.48a10.8 10.8 0 00-21.448.4z" fill="#ffb6b6"/><path d="M404.142 89.54l16.97-17.433a4.817 4.817 0 017.28.438l14.713 19.283a13.377 13.377 0 01-18.72 19.116l-19.61-14.139a4.817 4.817 0 01-.633-7.266z" fill="#e4e4e4"/><path d="M600.284 183.812a10.743 10.743 0 00-12.08-11.199l-75.132-62.68-11.716 20.212 77.536 55.257a10.8 10.8 0 0021.392-1.59z" fill="#ffb6b6"/><path d="M526.982 119.488l-15.975 18.347a4.817 4.817 0 01-7.294-.032l-15.76-18.436a13.377 13.377 0 0117.628-20.126l20.365 13.027a4.817 4.817 0 011.036 7.22z" fill="#e4e4e4"/><path d="M607.918 210.316h-29.681v-10.35a14.84 14.84 0 0129.681 0zm-29.024-.657h28.367v-9.693a14.183 14.183 0 00-28.367 0z" fill="#3f3d56"/><path fill="#3f3d56" d="M622.594 208.892v-4.045l-75.482 2.023-2.389 102.455 11.171 13.8 66.7-114.233z"/><path fill="#fca311" d="M635.956 207.468l-81.814 1.862 1.752 113.795 78.955-8.51 1.107-107.147z"/><circle cx="472.445" cy="52.125" r="32" fill="#ffb6b6"/><path d="M457.712 37.863c11.07 10.849 30.334 11.889 42.507 2.295a71.784 71.784 0 01-15.288 67.676c6.772 2.446 14.567.837 20.62-3.063s10.535-9.854 13.918-16.21c8.373-15.735 10.47-34.948 4.546-51.759s-20.117-30.75-37.36-35.264-37.013 1.062-48.534 14.663c-12.046 14.222-13.998 35.061-8.719 52.936s16.858 33.226 29.58 46.848a195.465 195.465 0 01-12.056-48.902c-.647-5.737-1.025-11.651.595-17.192s5.61-10.704 11.17-12.26" fill="#2f2e41"/><path d="M651 544.125H270a1 1 0 010-2h381a1 1 0 010 2zm-488 0H1a1 1 0 010-2h162a1 1 0 010 2zm428.918-86.809h-29.681v-10.35a14.84 14.84 0 0129.681 0zm-29.024-.657h28.367v-9.693a14.183 14.183 0 00-28.367 0z" fill="#cacaca"/><path fill="#cacaca" d="M606.594 455.892v-4.045l-75.482 2.023-2.389 102.455 11.171 13.8 66.7-114.233z"/><path fill="#e4e4e4" d="M619.956 454.468l-81.814 1.862 1.752 113.795 78.955-8.51 1.107-107.147z"/></svg>